<svg width="37" height="36" viewBox="0 0 37 36" fill="none" xmlns="http://www.w3.org/2000/svg">
<path d="M37.0001 17.9927C37.0001 27.9363 28.7743 36 18.6456 36C8.51691 36 0.276123 27.9363 0.276123 17.9927C0.276123 8.04896 8.50193 0 18.6306 0C28.7593 0 36.9851 8.06365 36.9851 17.9927" fill="#141AB7"/>
<path fill-rule="evenodd" clip-rule="evenodd" d="M20.2187 14.0857V12.426C20.2187 11.6328 20.7731 11.4419 21.1627 11.4419H23.53V7.88741H20.2487C16.6078 7.88741 15.7987 10.5312 15.7987 12.235V14.1151H13.686V18.2717H15.8137V28.6414H20.0539V18.2717H23.1854L23.3203 16.6414L23.575 14.1298H20.2038L20.2187 14.0857Z" fill="#6EEAC4"/>
</svg>
