<svg width="37" height="36" viewBox="0 0 37 36" fill="none" xmlns="http://www.w3.org/2000/svg">
<path d="M36.724 17.9927C36.724 27.9363 28.4982 36 18.3695 36C8.24079 36 0 27.9363 0 17.9927C0 8.04896 8.22581 0 18.3545 0C28.4832 0 36.709 8.06365 36.709 17.9927" fill="#061743"/>
<path fill-rule="evenodd" clip-rule="evenodd" d="M19.9427 14.0855V12.4258C19.9427 11.6326 20.4971 11.4417 20.8866 11.4417H23.254V7.88721H19.9726C16.3317 7.88721 15.5226 10.531 15.5226 12.2348V14.1149H13.41V18.2715H15.5376V28.6412H19.7779V18.2715H22.9094L23.0442 16.6412L23.2989 14.1296H19.9277L19.9427 14.0855Z" fill="white"/>
</svg>
