<svg width="37" height="36" viewBox="0 0 37 36" fill="none" xmlns="http://www.w3.org/2000/svg">
<path d="M36.724 17.9927C36.724 27.9363 28.4981 36 18.3545 36C8.21082 36 0 27.9363 0 17.9927C0 8.04896 8.22581 0 18.3545 0C28.4832 0 36.724 8.06365 36.724 17.9927Z" fill="#141AB7"/>
<path d="M23.5237 29.743H13.2002C9.4394 29.743 6.38281 26.7466 6.38281 23.06V12.94C6.38281 9.25336 9.4394 6.25703 13.2002 6.25703H23.5237C27.2845 6.25703 30.341 9.25336 30.341 12.94V23.06C30.341 26.7466 27.2845 29.743 23.5237 29.743ZM13.2002 8.26927C10.5781 8.26927 8.43552 10.3696 8.43552 12.94V23.06C8.43552 25.6303 10.5781 27.7307 13.2002 27.7307H23.5237C26.1457 27.7307 28.2883 25.6303 28.2883 23.06V12.94C28.2883 10.3696 26.1457 8.26927 23.5237 8.26927H13.2002Z" fill="#6EEAC4"/>
<path d="M18.3694 24.0147C14.9831 24.0147 12.2412 21.3121 12.2412 18.0073C12.2412 14.7026 14.9981 12 18.3694 12C21.7406 12 24.4975 14.7026 24.4975 18.0073C24.4975 21.3121 21.7406 24.0147 18.3694 24.0147ZM18.3694 13.9976C16.1219 13.9976 14.2939 15.7895 14.2939 17.9927C14.2939 20.1958 16.1219 21.9878 18.3694 21.9878C20.6168 21.9878 22.4448 20.1958 22.4448 17.9927C22.4448 15.7895 20.6168 13.9976 18.3694 13.9976Z" fill="#6EEAC4"/>
<path d="M26.2355 11.6475C26.2355 12.4406 25.5763 13.0869 24.7672 13.0869C23.9581 13.0869 23.2988 12.4406 23.2988 11.6475C23.2988 10.8544 23.9581 10.2081 24.7672 10.2081C25.5763 10.2081 26.2355 10.8544 26.2355 11.6475Z" fill="#6EEAC4"/>
</svg>
