<svg width="33" height="29" viewBox="0 0 33 29" fill="none" xmlns="http://www.w3.org/2000/svg">
<path d="M30.9441 20.2716C25.2397 30.0952 9.39422 31.046 2.10529 20.2716C10.3449 8.86253 23.6552 7.9118 30.9441 20.2716Z" stroke="#3A046E" stroke-width="2"/>
<path d="M26.8242 15.2004L31.8948 8.54533" stroke="#3A046E" stroke-width="2"/>
<path d="M17.3169 11.3975L17.3169 0.305614" stroke="#3A046E" stroke-width="2"/>
<path d="M12 12L8 3" stroke="#3A046E" stroke-width="2"/>
<path d="M22 12L26 3" stroke="#3A046E" stroke-width="2"/>
<path d="M6.85889 15.2004L2.73906 8.54533" stroke="#3A046E" stroke-width="2"/>
<path d="M14 20C14 21.6569 15.3431 23 17 23C18.6569 23 20 21.6569 20 20C20 18.3431 18.6569 17 17 17C15.3431 17 14 18.3431 14 20Z" stroke="#3A046E" stroke-width="2"/>
</svg>
