<svg width="34" height="13" viewBox="0 0 34 13" fill="none" xmlns="http://www.w3.org/2000/svg">
<g clip-path="url(#clip0_37_729)">
<path d="M0 12.2333H2.53942V11.4333C3.10373 12.1 4.09129 12.5 4.93776 12.5C7.61826 12.5 9.02905 10.2333 9.02905 7.96667C9.02905 5.7 7.47718 3.56667 4.93776 3.56667C3.95021 3.56667 3.10373 3.96667 2.53942 4.63333V0.5H0V12.2333ZM4.37344 10.3667C3.10373 10.3667 2.25726 9.16667 2.25726 7.96667C2.25726 6.76667 3.10373 5.56667 4.37344 5.56667C5.64315 5.56667 6.48963 6.76667 6.48963 7.96667C6.48963 9.16667 5.64315 10.3667 4.37344 10.3667Z" fill="#2C0552"/>
<path d="M10.0195 0.5H12.559V12.2333H10.0195V0.5Z" fill="#2C0552"/>
<path d="M16.3675 4.23438H13.8281V12.2344H16.3675V4.23438Z" fill="#2C0552"/>
<path d="M23.2773 4.36693C22.5719 3.83359 21.3022 3.43359 20.4558 3.43359C18.7628 3.43359 17.6342 4.63359 17.6342 6.10026C17.6342 7.43359 18.4806 7.96693 19.4682 8.36693C20.3147 8.90026 21.1611 9.03359 21.1611 9.70026C21.1611 10.2336 20.7379 10.6336 20.1736 10.6336C19.4682 10.6336 18.7628 10.2336 18.3396 9.70026L17.2109 11.1669C17.9163 11.9669 19.045 12.5003 20.1736 12.5003C22.0076 12.5003 23.7006 11.4336 23.7006 9.56693C23.7006 8.10026 22.8541 7.56693 21.8665 7.16693C21.0201 6.76693 20.0325 6.63359 20.0325 5.96693C20.0325 5.56693 20.4558 5.30026 20.879 5.30026C21.4433 5.30026 21.8665 5.56693 22.2898 5.83359L23.2773 4.36693Z" fill="#2C0552"/>
<path d="M15.0944 3.16667C15.8735 3.16667 16.5052 2.56971 16.5052 1.83333C16.5052 1.09695 15.8735 0.5 15.0944 0.5C14.3152 0.5 13.6836 1.09695 13.6836 1.83333C13.6836 2.56971 14.3152 3.16667 15.0944 3.16667Z" fill="#2C0552"/>
<path d="M34.0001 12.4997L32.4482 11.0331C33.1536 10.2331 33.5768 9.16641 33.5768 8.09974C33.5768 5.43307 31.7428 3.56641 28.9212 3.56641C26.0996 3.56641 24.2656 5.43307 24.2656 8.09974C24.2656 10.7664 26.0996 12.6331 28.9212 12.6331C29.6266 12.4997 30.4731 12.3664 31.0374 11.9664L31.6017 12.4997H34.0001ZM28.7801 10.3664C27.5104 10.3664 26.664 9.16641 26.664 7.96641C26.664 6.76641 27.5104 5.56641 28.7801 5.56641C30.0499 5.56641 30.8963 6.76641 30.8963 7.96641C30.8963 8.36641 30.7553 8.89974 30.6142 9.29974L30.0499 8.76641H27.6515L29.3445 10.3664C29.0623 10.3664 28.9212 10.3664 28.7801 10.3664Z" fill="#2C0552"/>
</g>
<defs>
<clipPath id="clip0_37_729">
<rect width="34" height="12" fill="white" transform="translate(0 0.5)"/>
</clipPath>
</defs>
</svg>
