<svg width="372" height="102" viewBox="0 0 372 102" fill="none" xmlns="http://www.w3.org/2000/svg">
<path d="M26.9348 0L19.1537 13.1868H34.6661L26.9348 0ZM18.4553 14.3856H35.3644L42.7965 27.2727C43.6444 28.3217 44.0434 29.5704 43.9437 30.9191C43.9437 33.6164 41.9485 35.7642 39.3049 36.1139C37.9083 36.3137 36.5117 35.9141 35.3644 35.0649C34.2172 34.2158 33.5189 32.9171 33.3194 31.5185C33.3194 31.2188 33.0201 30.969 32.7208 30.969C32.4216 30.969 32.1722 31.1688 32.1223 31.5185C31.823 33.9161 29.9276 35.8142 27.5334 36.1139C26.1368 36.3137 24.7401 35.9141 23.5929 35.0649C22.4457 34.2158 21.7474 32.9171 21.5479 31.5185C21.5479 31.2188 21.2486 31.019 20.9493 30.969C20.6002 30.969 20.4006 31.1688 20.3508 31.4685C19.9018 33.966 17.8069 35.7642 15.313 35.8641C15.2132 35.8641 15.1633 35.8641 15.0636 35.8641C12.2204 35.8641 9.82623 33.6164 9.72647 30.7692C9.72647 30.0699 9.82623 29.3706 10.0756 28.7712C10.2751 28.3217 10.5744 27.9221 10.9236 27.5225L18.5052 14.3856H18.4553ZM53.8198 45.7542H0L8.57924 31.2188C8.9284 34.6154 11.8214 37.2128 15.313 37.1129C17.7072 37.013 19.8021 35.6643 20.8496 33.6164C21.2985 34.5654 21.9469 35.4146 22.7949 36.0639C24.1915 37.1129 25.8874 37.6124 27.6331 37.3626C29.8777 37.0629 31.7232 35.6643 32.671 33.7163C33.1199 34.6154 33.7683 35.4146 34.5664 36.0639C35.7136 36.963 37.1102 37.4126 38.5567 37.4126C38.856 37.4126 39.1553 37.4126 39.4047 37.3626C42.6468 36.9131 45.041 34.2657 45.0909 31.019L53.7699 45.7542H53.8198ZM75.3178 12.7373H67.1874L65.5414 16.5834H63.2969L70.1802 1.5984H72.325L79.2582 16.8332H76.9638L75.3178 12.7373ZM74.5197 11.039L71.2277 3.54645L67.9855 11.039H74.5197ZM92.1271 4.99501V14.985C92.2767 16.6334 91.7281 18.2318 90.6307 19.4805C89.3837 20.5295 87.7876 21.029 86.1416 20.9291C85.0941 20.9291 84.0467 20.7792 83.0491 20.4795C82.1512 20.2298 81.3532 19.7802 80.6549 19.1808L81.6525 17.5824C82.251 18.0819 82.8994 18.4316 83.6476 18.6813C84.4457 18.981 85.2438 19.0809 86.0917 19.0809C87.1891 19.1808 88.2365 18.8312 89.0845 18.1319C89.7828 17.3327 90.1319 16.2837 90.0322 15.2348V14.2857C89.5334 14.8851 88.9348 15.3347 88.2365 15.6344C87.4883 15.9341 86.6903 16.0839 85.8922 16.0839C84.8447 16.0839 83.8471 15.8342 82.8994 15.3846C82.0515 14.9351 81.3033 14.2358 80.8045 13.3866C80.3057 12.4875 80.0563 11.4885 80.0563 10.4895C80.0563 9.49051 80.3057 8.49151 80.8045 7.59241C81.3033 6.74326 82.0515 6.04396 82.8994 5.59441C83.8471 5.14486 84.8447 4.8951 85.8922 4.8951C86.6903 4.8951 87.5382 5.09491 88.2864 5.39461C89.0346 5.69431 89.6331 6.14386 90.1319 6.79321V4.99501H92.1271ZM88.1368 13.7363C88.7852 13.4865 89.3837 13.037 89.7828 12.4376C90.1319 11.8382 90.2816 11.1888 90.2816 10.4895C90.2816 9.49051 89.9324 8.49151 89.1842 7.79221C87.5382 6.39361 85.0941 6.39361 83.4481 7.79221C82.6999 8.49151 82.3009 9.49051 82.3508 10.4895C82.3508 11.1888 82.5004 11.8382 82.8496 12.4376C83.1987 12.987 83.6476 13.4865 84.2462 13.7862C84.8946 14.0859 85.5929 14.2358 86.3411 14.2358C86.9895 14.2358 87.5881 14.0859 88.1368 13.7862V13.7363ZM99.7586 5.39461C100.557 5.04496 101.455 4.8951 102.302 4.94506V6.99301H101.804C100.806 6.94306 99.8584 7.29271 99.1601 7.99201C98.4618 8.79121 98.1126 9.84016 98.2124 10.8891V16.5335H96.1175V4.99501H98.1126V6.89311C98.5117 6.24376 99.0603 5.74426 99.7586 5.44456V5.39461ZM115.77 4.94506V16.5834H113.775V14.985C113.376 15.5844 112.777 16.034 112.129 16.3337C111.43 16.6833 110.682 16.8332 109.884 16.8332C108.537 16.9331 107.241 16.4835 106.243 15.5844C105.195 14.5854 104.647 13.1369 104.747 11.6883V4.99501H106.842V11.4386C106.792 12.3377 107.041 13.2867 107.64 13.986C108.238 14.5854 109.086 14.8851 109.934 14.8352C110.932 14.8352 111.879 14.5355 112.578 13.8362C113.276 13.037 113.575 12.038 113.525 10.989V4.99501H115.77V4.94506ZM128.838 5.59441C129.736 6.09391 130.434 6.79321 130.933 7.69231C131.432 8.64136 131.731 9.69031 131.681 10.7393C131.681 11.8382 131.432 12.8871 130.933 13.8362C130.434 14.7353 129.736 15.4346 128.838 15.8841C127.94 16.3836 126.893 16.6334 125.846 16.6334C125.047 16.6334 124.299 16.4835 123.551 16.1838C122.903 15.8841 122.304 15.4346 121.805 14.9351V20.7293H119.71V4.99501H121.755V6.79321C122.204 6.14386 122.803 5.69431 123.501 5.34466C124.249 5.04496 125.047 4.84516 125.846 4.84516C126.893 4.84516 127.94 5.14486 128.838 5.64436V5.59441ZM127.641 14.2857C128.24 13.986 128.739 13.4865 129.038 12.8871C129.387 12.2378 129.537 11.4885 129.537 10.7393C129.537 9.99001 129.387 9.29071 129.038 8.64136C128.739 8.04196 128.24 7.54246 127.641 7.19281C127.043 6.84316 126.344 6.64336 125.646 6.69331C124.948 6.69331 124.299 6.89311 123.701 7.19281C123.102 7.54246 122.653 8.04196 122.304 8.64136C121.955 9.29071 121.805 9.99001 121.805 10.7393C121.805 11.4885 121.955 12.2378 122.304 12.8871C122.603 13.4865 123.102 13.986 123.701 14.2857C124.299 14.6354 124.948 14.8352 125.646 14.8352C126.344 14.8352 127.043 14.6354 127.641 14.2857ZM142.306 6.04396C143.204 6.99301 143.702 8.24176 143.603 9.54046V16.5335H141.607V14.9351C141.258 15.4845 140.71 15.9341 140.111 16.1838C139.363 16.4835 138.615 16.5834 137.817 16.5834C136.719 16.6833 135.622 16.3836 134.674 15.7343C133.926 15.1349 133.477 14.1858 133.527 13.2368C133.527 12.2877 133.926 11.3886 134.674 10.7892C135.722 10.1399 136.969 9.84016 138.216 9.94006H141.508V9.44056C141.558 8.69131 141.258 7.94206 140.71 7.39261C140.061 6.84316 139.263 6.59341 138.415 6.69331C137.717 6.69331 137.068 6.79321 136.42 6.99301C135.821 7.19281 135.273 7.49251 134.774 7.89211L133.876 6.34366C134.525 5.84416 135.223 5.49451 136.021 5.24476C136.869 4.995 137.767 4.8951 138.665 4.94506C139.961 4.79521 141.308 5.19481 142.306 6.04396ZM140.211 14.4855C140.809 14.1359 141.258 13.6364 141.508 12.987V11.3886H138.265C136.52 11.3886 135.622 11.988 135.622 13.1868C135.622 13.7363 135.871 14.2358 136.32 14.5355C136.869 14.8851 137.517 15.0849 138.166 15.035C138.864 15.035 139.612 14.8352 140.211 14.4855ZM165.3 6.14386C166.248 7.19281 166.697 8.54146 166.597 9.94006V16.5335H164.602V9.94006C164.702 9.04096 164.402 8.09191 163.804 7.39261C163.205 6.79321 162.407 6.49351 161.609 6.54346C160.661 6.54346 159.763 6.84316 159.115 7.54246C158.417 8.34166 158.068 9.34066 158.167 10.3896V16.5335H156.072V9.94006C156.122 9.04096 155.873 8.14186 155.324 7.39261C154.726 6.79321 153.928 6.49351 153.08 6.54346C152.132 6.54346 151.234 6.84316 150.586 7.54246C149.887 8.34166 149.538 9.34066 149.638 10.3896V16.5335H147.543V4.99501H149.638V6.69331C150.087 6.09391 150.636 5.64436 151.284 5.34466C152.032 5.04496 152.83 4.84516 153.628 4.84516C154.476 4.84516 155.274 5.04496 156.023 5.39461C156.721 5.74426 157.27 6.29371 157.619 6.99301C158.068 6.29371 158.716 5.79421 159.464 5.44456C160.212 5.09491 161.06 4.94506 161.858 4.99501C163.105 4.8951 164.352 5.34466 165.3 6.19381V6.14386ZM180.862 11.4386H171.535C171.635 12.3876 172.084 13.2867 172.832 13.8861C173.63 14.5355 174.628 14.8851 175.675 14.8352C176.922 14.8352 178.169 14.3856 179.017 13.4366L180.164 14.7852C179.615 15.3846 178.967 15.8841 178.219 16.1838C177.371 16.4835 176.523 16.6334 175.625 16.6334C174.478 16.6334 173.381 16.3836 172.383 15.8841C171.485 15.3846 170.687 14.6853 170.188 13.7862C169.739 12.8372 169.54 11.7882 169.59 10.7393C169.59 9.69031 169.839 8.64136 170.338 7.74226C170.837 6.89311 171.535 6.14386 172.383 5.64436C173.281 5.09491 174.328 4.84516 175.376 4.84516C176.423 4.84516 177.421 5.09491 178.319 5.64436C179.167 6.14386 179.865 6.84316 180.314 7.74226C180.813 8.69131 181.062 9.74026 181.062 10.7892C181.062 10.989 180.962 11.2388 180.862 11.4386ZM172.682 7.54246C172.034 8.19181 171.585 9.04096 171.535 9.94006H178.917C178.817 9.04096 178.418 8.14186 177.72 7.54246C177.022 6.94306 176.124 6.59341 175.226 6.64336C174.278 6.64336 173.381 6.94306 172.682 7.54246ZM193.432 6.14386C194.28 7.19281 194.679 8.59141 194.529 9.94006V16.5335H192.434V9.94006C192.534 9.04096 192.235 8.09191 191.636 7.39261C191.038 6.94306 190.29 6.69331 189.541 6.74326C188.544 6.69331 187.546 7.04296 186.848 7.74226C186.15 8.54146 185.8 9.54046 185.9 10.5894V16.5335H183.805V4.99501H185.8V6.74326C186.2 6.14386 186.798 5.64436 187.496 5.34466C188.294 5.04496 189.093 4.84516 189.94 4.84516C191.237 4.79521 192.484 5.29471 193.432 6.19381V6.14386ZM205.104 15.8342C204.755 16.0839 204.356 16.2837 203.957 16.4336C203.508 16.5335 203.009 16.5335 202.56 16.4336C201.562 16.4835 200.615 16.1838 199.866 15.5345C199.218 14.7852 198.869 13.8362 198.919 12.8372V6.74326H196.973V4.99501H198.919V2.4975H201.014V4.99501H204.505V6.69331H201.014V12.987C201.014 13.4865 201.113 14.036 201.463 14.4356C201.812 14.7852 202.311 14.985 202.809 14.9351C203.408 14.9351 204.006 14.7852 204.505 14.3856L205.104 15.8841V15.8342ZM209.044 15.8342C208.146 15.3347 207.398 14.6354 206.899 13.7363C206.401 12.7872 206.151 11.7383 206.151 10.6893C206.151 9.64036 206.401 8.59141 206.899 7.64236C207.398 6.79321 208.146 6.09391 209.044 5.59441C209.992 5.09491 211.039 4.84516 212.137 4.8951C213.234 4.8951 214.282 5.14486 215.229 5.69431C216.127 6.19381 216.875 6.89311 217.374 7.74226C217.873 8.69131 218.122 9.74026 218.122 10.7892C218.122 11.8382 217.873 12.8871 217.374 13.8362C216.875 14.7353 216.127 15.4346 215.229 15.9341C214.282 16.4336 213.234 16.6833 212.137 16.6833C211.039 16.6833 209.992 16.3836 209.044 15.8342ZM214.032 14.2358C214.631 13.9361 215.13 13.4366 215.429 12.8372C215.778 12.1878 215.928 11.4386 215.928 10.6893C215.928 9.94006 215.778 9.24076 215.429 8.59141C215.13 7.99201 214.631 7.49251 214.032 7.14286C212.785 6.49351 211.289 6.49351 210.042 7.14286C209.443 7.49251 208.994 7.99201 208.695 8.59141C208.346 9.24076 208.146 9.94006 208.146 10.6893C208.146 11.4386 208.346 12.1878 208.695 12.8372C208.994 13.4366 209.443 13.9361 210.042 14.2358C211.289 14.985 212.785 14.985 214.032 14.2358ZM237.725 0.3996V16.5834H235.73V14.985C235.281 15.6344 234.682 16.1339 233.984 16.4336C233.236 16.7832 232.438 16.983 231.64 16.9331C230.592 16.9331 229.545 16.6833 228.647 16.1838C227.749 15.7343 227.051 15.035 226.552 14.1359C226.053 13.1868 225.804 12.1379 225.804 11.039C225.804 9.99001 226.053 8.94106 226.552 7.99201C227.051 7.09291 227.749 6.39361 228.647 5.89411C229.545 5.39461 230.592 5.0949 231.64 5.14486C232.438 5.14486 233.186 5.34466 233.934 5.64436C234.632 5.94406 235.231 6.44356 235.63 7.04296V0.3996H237.725ZM233.784 14.3357C234.383 14.036 234.882 13.5365 235.181 12.9371C235.53 12.2877 235.68 11.5385 235.68 10.7892C235.68 10.04 235.53 9.34066 235.181 8.69131C234.882 8.09191 234.383 7.59241 233.784 7.24276C232.537 6.59341 231.041 6.59341 229.794 7.24276C229.195 7.59241 228.747 8.09191 228.447 8.69131C228.098 9.34066 227.899 10.04 227.899 10.7892C227.899 11.5385 228.098 12.2877 228.447 12.9371C228.747 13.5365 229.195 14.036 229.794 14.3357C231.041 15.0849 232.537 15.0849 233.784 14.3357ZM252.09 11.4885H242.713C242.813 12.4376 243.311 13.3367 244.06 13.9361C244.858 14.6354 245.855 14.985 246.903 14.985C248.15 14.985 249.347 14.4855 250.195 13.5864L251.392 14.985C250.843 15.5844 250.195 16.034 249.446 16.3836C248.599 16.6833 247.701 16.8332 246.803 16.8332C245.706 16.8332 244.608 16.5834 243.611 16.0839C242.713 15.6344 241.915 14.8851 241.416 13.986C240.867 13.0869 240.568 11.988 240.618 10.9391C240.618 9.89011 240.867 8.84116 241.366 7.94206C241.865 7.04296 242.563 6.34366 243.461 5.84416C245.257 4.7952 247.551 4.7952 249.347 5.84416C250.245 6.34366 250.943 7.04296 251.392 7.94206C251.891 8.89111 252.14 9.94006 252.09 10.989V11.4885ZM243.91 7.59241C243.212 8.19181 242.763 9.04096 242.713 9.99001H250.095C249.995 9.09091 249.596 8.24176 248.948 7.59241C248.249 6.99301 247.352 6.69331 246.404 6.69331C245.506 6.69331 244.608 6.99301 243.91 7.59241ZM272.191 14.6853V16.5834H261.168V1.5984H271.892V3.1968H263.313V7.89211H270.944V9.99001H263.313V14.985L272.191 14.6853ZM275.833 16.3337C275.084 16.1339 274.386 15.7842 273.788 15.3347L274.685 13.6863C275.234 14.0859 275.883 14.3856 276.531 14.5854C277.229 14.7852 277.977 14.8851 278.726 14.8851C280.521 14.8851 281.469 14.3856 281.469 13.3367C281.469 12.987 281.319 12.6873 281.07 12.4875C280.821 12.2877 280.521 12.1379 280.172 12.038L278.576 11.7383C277.828 11.6384 277.08 11.4885 276.331 11.2388C275.733 11.039 275.234 10.7393 274.785 10.2897C274.436 9.74026 274.237 9.04096 274.336 8.39161C274.336 7.39261 274.835 6.44356 275.633 5.84416C276.681 5.19481 277.878 4.84516 279.125 4.8951C279.923 4.8951 280.671 4.99501 281.419 5.19481C282.068 5.34466 282.716 5.59441 283.315 5.94406L282.417 7.64236C281.419 6.99301 280.272 6.64336 279.125 6.69331C278.426 6.69331 277.728 6.79321 277.08 7.14286C276.681 7.39261 276.381 7.79221 276.381 8.29171C276.381 8.64136 276.531 8.99101 276.78 9.19081C277.08 9.39061 277.379 9.54046 277.728 9.64036C278.227 9.79021 278.776 9.94006 279.324 9.99001C280.072 10.1399 280.821 10.3397 281.569 10.5395C282.117 10.6893 282.616 11.039 283.015 11.4386C283.464 11.9381 283.714 12.5874 283.664 13.2867C283.664 14.2857 283.165 15.2348 282.317 15.7842C281.22 16.4336 279.973 16.7333 278.676 16.6833C277.728 16.6833 276.78 16.5834 275.833 16.3337ZM288.053 15.9341C287.155 15.4346 286.357 14.7353 285.858 13.8362C285.36 12.8871 285.11 11.8382 285.11 10.7892C285.11 9.74026 285.36 8.69131 285.858 7.74226C286.407 6.84316 287.155 6.14386 288.053 5.69431C289.001 5.19481 290.098 4.94506 291.195 4.99501C292.143 4.99501 293.141 5.19481 293.989 5.64436C294.787 6.09391 295.435 6.69331 295.884 7.49251L294.288 8.49151C293.939 7.94206 293.49 7.54246 292.941 7.24276C292.393 6.99301 291.744 6.84316 291.146 6.84316C290.447 6.84316 289.749 6.99301 289.101 7.34266C288.502 7.69231 288.003 8.19181 287.704 8.79121C287.355 9.44056 287.205 10.1399 287.205 10.8891C287.205 11.6384 287.355 12.3876 287.704 13.037C288.053 13.6364 288.502 14.1359 289.101 14.4855C289.749 14.7852 290.447 14.985 291.146 14.985C291.794 14.985 292.393 14.8352 292.941 14.5355C293.49 14.2358 293.989 13.7862 294.288 13.2368L295.884 14.2358C295.435 15.035 294.787 15.6344 293.989 16.034C293.141 16.4835 292.143 16.6833 291.195 16.6833C290.098 16.6833 289.001 16.4336 288.053 15.9341ZM300.224 15.9341C299.326 15.4346 298.578 14.7353 298.079 13.8362C297.58 12.8871 297.331 11.8382 297.331 10.7892C297.331 9.74026 297.58 8.69131 298.079 7.74226C298.578 6.89311 299.326 6.19381 300.224 5.69431C301.171 5.19481 302.219 4.94506 303.316 4.99501C304.414 4.99501 305.461 5.24476 306.409 5.79421C307.307 6.29371 308.055 6.99301 308.553 7.84216C309.052 8.79121 309.302 9.84016 309.302 10.8891C309.302 11.9381 309.052 12.987 308.553 13.9361C308.055 14.8352 307.307 15.5345 306.409 16.034C305.461 16.5335 304.414 16.7832 303.316 16.7832C302.219 16.7832 301.171 16.4835 300.224 15.9341ZM305.212 14.3357C305.81 14.036 306.309 13.5365 306.608 12.9371C306.957 12.2877 307.107 11.5385 307.107 10.7892C307.107 10.04 306.957 9.34066 306.608 8.69131C306.309 8.09191 305.81 7.59241 305.212 7.24276C303.965 6.59341 302.468 6.59341 301.221 7.24276C300.623 7.59241 300.174 8.09191 299.825 8.69131C299.475 9.34066 299.326 10.04 299.326 10.7892C299.326 11.5385 299.525 12.2877 299.825 12.9371C300.174 13.5365 300.623 13.986 301.221 14.3357C302.468 15.0849 303.965 15.0849 305.212 14.3357ZM312.195 0.3996H314.24V16.5834H312.145V0.3996H312.195ZM326.161 6.09391C327.059 7.04296 327.558 8.29171 327.458 9.59041V16.5834H325.463V14.985C325.113 15.5345 324.565 15.984 323.966 16.2338C323.218 16.5335 322.47 16.6334 321.672 16.6334C320.574 16.6833 319.477 16.3836 318.579 15.7343C317.831 15.1349 317.432 14.1858 317.432 13.2368C317.432 12.2877 317.781 11.3886 318.529 10.7892C319.577 10.1399 320.824 9.84016 322.071 9.99001H325.363V9.49051C325.413 8.74126 325.113 7.99201 324.565 7.44256C323.916 6.89311 323.118 6.64336 322.27 6.74326C321.572 6.74326 320.924 6.84316 320.275 7.04296C319.677 7.24276 319.128 7.54246 318.629 7.94206L317.731 6.39361C318.38 5.89411 319.128 5.54446 319.876 5.29471C320.724 5.04495 321.622 4.94506 322.52 4.99501C323.817 4.84515 325.163 5.24476 326.161 6.09391ZM324.265 14.5355C324.814 14.1858 325.263 13.6364 325.512 13.037V11.4386H322.27C320.525 11.4386 319.627 12.038 319.627 13.2368C319.627 13.7862 319.876 14.2857 320.325 14.5854C320.874 14.9351 321.522 15.1349 322.171 15.0849C322.919 15.0849 323.617 14.8851 324.265 14.5355ZM331.897 16.3337C331.149 16.1339 330.451 15.7842 329.852 15.3347L330.75 13.6863C331.298 14.0859 331.947 14.3856 332.595 14.5854C333.294 14.7852 334.042 14.8851 334.79 14.8851C336.586 14.8851 337.533 14.3856 337.533 13.3367C337.533 12.987 337.384 12.6873 337.134 12.4875C336.885 12.2877 336.586 12.1379 336.237 12.038L334.64 11.7383C333.842 11.6384 333.094 11.4885 332.346 11.2388C331.797 11.039 331.249 10.7393 330.85 10.2897C330.401 9.74026 330.201 9.09091 330.251 8.39161C330.251 7.39261 330.7 6.39361 331.548 5.84416C332.595 5.19481 333.792 4.84516 335.039 4.8951C335.837 4.8951 336.586 4.99501 337.334 5.19481C337.982 5.34466 338.631 5.59441 339.229 5.94406L338.331 7.64236C337.334 6.99301 336.187 6.64336 334.99 6.69331C334.291 6.69331 333.593 6.79321 332.994 7.14286C332.595 7.39261 332.296 7.79221 332.296 8.29171C332.296 8.64136 332.446 8.99101 332.695 9.19081C332.994 9.39061 333.294 9.54046 333.643 9.64036C334.191 9.79021 334.74 9.94006 335.289 9.99001C336.187 9.99001 336.935 10.3397 337.533 10.5395C338.082 10.6893 338.581 11.039 338.98 11.4386C339.429 11.9381 339.628 12.6374 339.578 13.2867C339.578 14.2857 339.08 15.2348 338.282 15.7842C337.184 16.4336 335.937 16.7333 334.64 16.6833C333.693 16.6833 332.795 16.5834 331.897 16.3337ZM75.3178 41.8082H67.1874L65.5414 45.6044H63.2969L70.1802 30.3696H72.325L79.2582 45.6044H76.9638L75.3178 41.8082ZM74.5197 39.96L71.2277 32.4675L67.9855 39.96H74.5197ZM90.8302 35.2148C91.7779 36.2138 92.2269 37.5624 92.1271 38.961V45.6044H90.0322V39.2108C90.1319 38.3117 89.8327 37.3626 89.2341 36.6633C88.6356 36.0639 87.7876 35.7642 86.9397 35.8142C85.9421 35.8142 84.9944 36.1139 84.2961 36.8132C83.5977 37.5624 83.1987 38.6114 83.2985 39.6603V45.6044H81.2035V34.0659H83.1987V35.8142C83.5977 35.2148 84.1464 34.7652 84.7948 34.4156C85.5929 34.1159 86.391 33.966 87.2389 33.966C88.5358 33.8661 89.8825 34.3157 90.8302 35.2148ZM102.502 44.955C102.203 45.2547 101.804 45.4545 101.355 45.5544C100.906 45.6543 100.407 45.6543 99.9582 45.5544C99.0105 45.7043 98.0627 45.5045 97.2647 44.955C96.6162 44.2058 96.2671 43.2567 96.317 42.2577V35.7642H94.3717V34.0659H96.317V31.5185H98.4119V34.0659H101.704V35.7642H98.4119V42.008C98.4119 42.5075 98.5117 43.0569 98.8608 43.4565C99.21 43.8062 99.7088 44.006 100.208 43.956C100.806 43.956 101.405 43.8062 101.854 43.4066L102.502 44.955ZM106.492 44.955C105.595 44.5055 104.846 43.7562 104.348 42.8571C103.849 41.958 103.549 40.959 103.549 39.96C103.549 38.9111 103.799 37.8621 104.348 36.963C104.846 36.1139 105.595 35.4146 106.492 34.965C108.438 33.966 110.682 33.966 112.628 34.965C113.525 35.4645 114.274 36.1638 114.772 37.0629C115.271 37.962 115.521 39.011 115.521 40.0599C115.521 41.1089 115.271 42.1578 114.772 43.1069C114.274 44.006 113.525 44.7053 112.628 45.2048C110.682 46.2038 108.438 46.2038 106.492 45.2048V44.955ZM111.48 43.4066C112.079 43.0569 112.528 42.5574 112.877 41.958C113.226 41.3087 113.376 40.5594 113.376 39.8102C113.376 39.0609 113.226 38.3616 112.877 37.7123C112.578 37.1129 112.079 36.6134 111.48 36.2637C110.882 35.9141 110.183 35.7642 109.485 35.7642C108.787 35.7642 108.138 35.964 107.54 36.2637C106.941 36.6134 106.442 37.1129 106.143 37.7123C105.794 38.3616 105.595 39.0609 105.595 39.8102C105.595 40.5594 105.794 41.3087 106.143 41.958C106.492 42.5574 106.941 43.0569 107.54 43.4066C108.138 43.7063 108.787 43.9061 109.485 43.9061C110.183 43.9061 110.882 43.7562 111.53 43.4066H111.48ZM110.832 29.5704H113.475L109.735 32.3676H107.739L110.832 29.5704ZM128.09 35.2148C129.038 36.2138 129.487 37.5624 129.387 38.961V45.6044H127.292V39.2108C127.342 38.3117 127.093 37.3626 126.494 36.6633C125.846 36.0639 124.998 35.7642 124.15 35.8142C123.152 35.8142 122.204 36.1139 121.506 36.8132C120.808 37.5624 120.459 38.6114 120.508 39.6603V45.6044H118.414V34.0659H120.409V35.8142C120.858 35.2148 121.456 34.7153 122.154 34.4156C122.953 34.0659 123.85 33.9161 124.698 33.966C125.945 33.966 127.142 34.3656 128.09 35.2148ZM133.278 31.4685C133.028 31.2188 132.879 30.8691 132.879 30.4695C132.879 30.1199 133.028 29.7702 133.278 29.5205C133.527 29.2707 133.926 29.1209 134.275 29.1209C134.674 29.1209 135.023 29.2208 135.273 29.5205C135.522 29.7203 135.672 30.0699 135.672 30.4196C135.672 31.1688 135.123 31.7682 134.375 31.8182C134.375 31.8182 134.325 31.8182 134.275 31.8182C133.926 31.8182 133.527 31.7183 133.278 31.4685ZM133.278 34.0659H135.372V45.6044H133.278V34.0659ZM141.158 44.955C140.261 44.5055 139.512 43.7562 139.014 42.8571C138.515 41.958 138.216 40.959 138.216 39.96C138.216 38.9111 138.465 37.8621 139.014 36.963C139.512 36.1139 140.261 35.4146 141.158 34.965C142.106 34.4655 143.154 34.2158 144.251 34.2158C145.298 34.2158 146.346 34.4655 147.294 34.965C148.191 35.4645 148.94 36.1638 149.438 37.0629C149.987 37.962 150.237 39.011 150.237 40.0599C150.237 41.1089 149.987 42.1578 149.438 43.1069C148.94 44.006 148.191 44.7053 147.294 45.2048C146.346 45.7043 145.298 45.954 144.251 45.954C143.154 45.9041 142.106 45.5544 141.158 44.955ZM146.146 43.4066C146.695 43.0569 147.194 42.5574 147.493 41.958C147.842 41.3087 147.992 40.5594 147.992 39.8102C147.992 39.0609 147.842 38.3616 147.493 37.7123C147.194 37.1129 146.745 36.6134 146.146 36.2637C145.548 35.964 144.85 35.7642 144.151 35.7642C143.453 35.7642 142.755 35.964 142.156 36.2637C141.558 36.6134 141.059 37.1129 140.759 37.7123C140.41 38.3616 140.261 39.0609 140.261 39.8102C140.261 40.5594 140.41 41.3087 140.759 41.958C141.109 42.5574 141.558 43.0569 142.156 43.4066C142.755 43.7063 143.453 43.9061 144.151 43.9061C144.899 43.9061 145.598 43.7562 146.246 43.4066H146.146ZM169.59 45.6044L166.298 40.9091H161.31V45.5544H159.165V30.3696H165.101C166.747 30.2697 168.393 30.7692 169.739 31.7682C170.837 32.7672 171.485 34.1658 171.435 35.6643C171.435 36.7133 171.186 37.7622 170.587 38.6613C169.989 39.5105 169.091 40.1598 168.093 40.4595L171.685 45.4545L169.59 45.6044ZM168.442 38.2118C169.839 36.8631 169.839 34.6653 168.492 33.2667H168.442C167.495 32.5674 166.397 32.2677 165.3 32.3676H161.559V39.1109H165.3C166.348 39.1109 167.395 38.8112 168.293 38.2118H168.442ZM176.623 44.955C175.725 44.4555 175.027 43.7562 174.578 42.8571C174.029 42.008 173.73 41.009 173.68 39.96C173.68 38.9111 173.929 37.8621 174.478 36.963C174.977 36.1139 175.725 35.4146 176.623 34.965C177.521 34.3656 178.518 34.0659 179.566 33.966C180.613 33.966 181.66 34.2158 182.608 34.7153C183.506 35.2148 184.254 35.9141 184.753 36.8132C185.252 37.7123 185.501 38.7612 185.501 39.8102C185.501 40.8591 185.252 41.9081 184.753 42.8571C184.254 43.7562 183.506 44.4555 182.608 44.955C181.66 45.4545 180.613 45.7043 179.566 45.7043C178.518 45.7043 177.521 45.4545 176.623 44.955ZM181.611 43.4066C182.209 43.0569 182.658 42.5574 183.007 41.958C183.356 41.3586 183.556 40.6593 183.556 39.96C183.556 39.2108 183.406 38.5115 183.057 37.8621C182.758 37.2627 182.259 36.7632 181.66 36.4136C181.062 36.1139 180.413 35.9141 179.715 35.9141C179.017 35.9141 178.319 36.0639 177.72 36.4136C177.121 36.7632 176.623 37.2627 176.323 37.8621C175.974 38.5115 175.825 39.2108 175.825 39.96C175.825 40.7093 175.974 41.4585 176.323 42.1079C176.673 42.7073 177.121 43.2068 177.72 43.5564C178.319 43.9061 179.017 44.0559 179.715 44.0559C180.413 44.006 181.062 43.7562 181.66 43.4066H181.611ZM199.517 29.4206V45.6044H197.522V43.7562C197.073 44.4056 196.475 44.9051 195.776 45.2048C195.028 45.5544 194.23 45.7542 193.432 45.7043C192.385 45.7043 191.337 45.5045 190.439 45.005C189.541 44.5055 188.843 43.8062 188.344 42.9071C187.347 40.959 187.347 38.7113 188.344 36.7632C188.843 35.8641 189.541 35.1648 190.439 34.6653C191.387 34.1658 192.385 33.966 193.432 33.966C194.23 33.966 194.978 34.1159 195.726 34.4156C196.425 34.7153 197.023 35.2148 197.422 35.8142V29.4206H199.517ZM195.577 43.4066C196.175 43.0569 196.624 42.5574 196.973 41.958C197.323 41.3087 197.472 40.5594 197.472 39.8102C197.472 39.0609 197.323 38.3616 196.973 37.7123C196.674 37.1129 196.175 36.6134 195.577 36.2637C194.978 35.964 194.28 35.7642 193.582 35.7642C192.883 35.7642 192.185 35.964 191.586 36.2637C190.988 36.6134 190.539 37.1129 190.24 37.7123C189.791 38.3616 189.541 39.1608 189.541 39.96C189.541 40.7093 189.741 41.4585 190.09 42.1079C190.389 42.7073 190.888 43.2068 191.437 43.5564C192.035 43.8561 192.734 44.0559 193.432 44.0559C194.18 44.0559 194.879 43.8062 195.477 43.4066H195.577ZM206.999 34.4655C207.797 34.1159 208.645 33.966 209.493 33.966V35.964H208.994C207.997 35.964 207.049 36.2637 206.351 36.963C205.652 37.7622 205.303 38.8112 205.353 39.8601V45.6044H203.308V34.0659H205.303V36.014C205.652 35.3147 206.251 34.7652 206.999 34.4655ZM212.187 31.4685C211.937 31.2188 211.788 30.8192 211.788 30.4695C211.788 30.1199 211.937 29.7702 212.187 29.5205C212.436 29.2707 212.835 29.1209 213.184 29.1209C213.583 29.1209 213.932 29.2208 214.182 29.5205C214.481 29.7203 214.631 30.0699 214.631 30.4196C214.631 30.8192 214.481 31.1688 214.182 31.4186C213.932 31.7183 213.583 31.8681 213.184 31.8182C212.835 31.8182 212.436 31.7183 212.187 31.4685ZM212.187 34.0659H214.481V45.6044H212.386L212.187 34.0659ZM229.445 34.0659V44.0559C229.595 45.7043 229.046 47.3027 227.949 48.5515C226.702 49.6004 225.105 50.0999 223.459 50C222.412 50 221.364 49.8502 220.367 49.5504C219.469 49.3007 218.671 48.9011 217.973 48.3017L218.97 46.6533C219.519 47.1529 220.217 47.5525 220.965 47.7523C221.763 48.052 222.562 48.1519 223.409 48.1519C224.507 48.2518 225.554 47.9021 226.402 47.2028C227.101 46.4036 227.45 45.3546 227.35 44.3057V43.3067C226.851 43.9061 226.253 44.3556 225.554 44.6553C224.806 44.955 224.008 45.1049 223.21 45.1049C222.163 45.1049 221.115 44.9051 220.217 44.4056C219.319 43.956 218.621 43.2567 218.122 42.4076C217.125 40.6094 217.125 38.4116 218.122 36.6134C218.621 35.7642 219.319 35.1149 220.217 34.6653C221.115 34.1658 222.163 33.9161 223.21 33.966C224.008 33.966 224.856 34.1159 225.604 34.4156C226.352 34.7153 226.951 35.2148 227.45 35.8641V34.0659H229.445ZM225.455 42.8072C226.053 42.5075 226.552 42.0579 226.901 41.4585C227.25 40.8591 227.4 40.2098 227.4 39.5105C227.4 38.5115 227.001 37.5125 226.302 36.8132C224.656 35.4146 222.212 35.4146 220.566 36.8132C219.369 38.0619 219.12 39.96 219.968 41.4585C220.267 42.0579 220.766 42.5075 221.364 42.8072C222.013 43.1568 222.711 43.3067 223.459 43.3067C224.108 43.3067 224.706 43.1069 225.255 42.8072H225.455ZM243.96 34.0659V45.6044H241.965V43.8561C241.566 44.4555 240.967 44.955 240.319 45.2547C239.62 45.5544 238.822 45.7043 238.074 45.7043C236.727 45.8042 235.43 45.3546 234.433 44.4555C233.485 43.4565 232.986 42.1079 233.086 40.7093V34.0659H235.181V40.4595C235.181 41.3586 235.43 42.2577 235.979 43.007C236.628 43.6064 237.475 43.9061 238.323 43.8561C239.271 43.8561 240.219 43.5564 240.917 42.8571C241.615 42.0579 241.965 41.009 241.865 39.96V34.0659H243.96ZM258.325 40.5095H248.948C249.047 41.4585 249.546 42.3576 250.294 42.957C251.093 43.6064 252.09 43.956 253.138 43.9061C254.385 43.956 255.632 43.4565 256.479 42.5075L257.627 43.8561C257.078 44.4555 256.43 44.9051 255.681 45.2547C254.833 45.5544 253.986 45.7043 253.088 45.7043C251.94 45.7043 250.843 45.4545 249.846 44.955C248.948 44.5055 248.15 43.7562 247.651 42.8571C247.152 41.958 246.853 40.959 246.853 39.96C246.853 38.9111 247.102 37.8621 247.601 36.963C248.1 36.1139 248.848 35.4146 249.696 34.965C251.541 33.966 253.736 33.966 255.582 34.965C256.479 35.4645 257.178 36.1638 257.627 37.0629C258.125 38.012 258.375 39.0609 258.325 40.1598V40.5095ZM250.145 36.6134C249.447 37.2128 249.047 38.1119 248.948 39.011H256.33C256.23 38.1119 255.831 37.2627 255.183 36.6134C254.484 36.014 253.586 35.7143 252.639 35.7143C251.741 35.7143 250.843 36.014 250.145 36.6134ZM261.817 45.3546C261.068 45.1548 260.37 44.8052 259.772 44.3556L260.669 42.7073C261.218 43.1069 261.866 43.4066 262.515 43.6064C263.213 43.8062 263.961 43.9061 264.71 43.9061C266.505 43.9061 267.453 43.4066 267.453 42.3576C267.453 42.008 267.303 41.7083 267.054 41.5085C266.805 41.3087 266.505 41.1588 266.156 41.0589L264.36 40.7592C263.612 40.6593 262.864 40.5095 262.116 40.2597C261.517 40.0599 261.018 39.7602 260.57 39.3107C259.622 37.8621 260.021 35.9141 261.467 34.965C262.515 34.2657 263.712 33.966 264.959 34.016C265.707 33.966 266.505 33.966 267.253 34.016C268.002 34.1658 268.7 34.5155 269.348 34.965L268.451 36.6134C267.453 35.964 266.306 35.6144 265.158 35.6643C264.46 35.6643 263.762 35.7642 263.113 36.1139C262.714 36.3636 262.415 36.7632 262.415 37.2627C262.415 37.6124 262.565 37.962 262.814 38.1618C263.113 38.4116 263.413 38.5614 263.762 38.6613L265.408 39.011C266.156 39.1109 266.904 39.3107 267.652 39.5105C268.201 39.7103 268.7 40.01 269.099 40.4096C269.548 40.9091 269.747 41.5584 269.747 42.2577C269.747 43.2567 269.249 44.2058 268.401 44.7552C267.303 45.4046 266.056 45.7043 264.759 45.6544C263.762 45.6544 262.764 45.6044 261.817 45.3546ZM279.324 45.2547C278.376 44.955 277.529 44.5055 276.78 43.8561L277.578 42.1578C278.227 42.7073 279.025 43.1568 279.823 43.4066C280.721 43.7562 281.669 43.9061 282.616 43.9061C283.614 43.956 284.611 43.7562 285.459 43.2567C286.058 42.9071 286.357 42.2577 286.357 41.5584C286.357 41.1089 286.208 40.6094 285.858 40.3097C285.509 39.96 285.06 39.7103 284.611 39.5604C283.913 39.3107 283.215 39.1109 282.467 38.961C281.519 38.7612 280.621 38.4615 279.723 38.1119C279.025 37.8621 278.426 37.4126 277.928 36.8631C277.379 36.2138 277.13 35.3646 277.179 34.5155C277.179 33.7163 277.379 32.967 277.828 32.3177C278.327 31.6184 278.975 31.0689 279.773 30.7692C280.821 30.2697 281.918 29.97 283.065 29.97C283.963 29.97 284.861 30.1199 285.759 30.3197C286.557 30.5694 287.305 30.8691 288.003 31.3187L287.255 33.0669C286.607 32.6673 285.908 32.3676 285.21 32.1678C284.512 31.9181 283.813 31.8182 283.065 31.8182C282.117 31.7682 281.12 32.018 280.322 32.5175C279.673 32.9171 279.274 33.6663 279.324 34.4655C279.324 34.965 279.524 35.4146 279.873 35.7143C280.222 36.0639 280.671 36.3137 281.17 36.4635C281.868 36.7133 282.566 36.9131 283.265 37.0629C284.212 37.2627 285.11 37.5624 286.008 37.9121C286.706 38.1618 287.355 38.6114 287.804 39.1608C288.352 39.8102 288.602 40.6094 288.552 41.4585C288.552 42.2078 288.352 42.957 287.903 43.6064C287.405 44.3057 286.706 44.9051 285.908 45.2048C284.861 45.6044 283.763 45.8042 282.666 45.7542C281.519 45.7542 280.422 45.6044 279.324 45.2547ZM299.276 34.965C300.174 35.9141 300.673 37.1628 300.573 38.4615V45.4545H298.578V44.0559C298.228 44.6054 297.68 45.0549 297.081 45.3047C296.333 45.6044 295.585 45.7542 294.787 45.7043C293.739 45.8042 292.642 45.5045 291.744 44.955C290.996 44.3556 290.597 43.4066 290.597 42.4575C290.597 41.5085 290.946 40.5594 291.694 39.96C292.742 39.2607 293.989 38.961 295.236 39.0609H298.528V38.5614C298.578 37.7622 298.278 37.013 297.73 36.4635C297.081 35.964 296.283 35.7143 295.435 35.7642C294.737 35.7642 294.089 35.8641 293.44 36.1139C292.842 36.3137 292.293 36.6134 291.794 37.013L290.896 35.4146C291.545 34.9151 292.293 34.5654 293.041 34.3157C293.889 34.0659 294.787 33.966 295.685 33.966C296.981 33.8162 298.228 34.1658 299.276 34.965ZM297.231 43.4565C297.78 43.0569 298.228 42.5574 298.478 41.9081V40.4595H295.286C293.54 40.4595 292.642 41.0589 292.642 42.2577C292.642 42.8072 292.891 43.3067 293.34 43.6064C293.889 43.956 294.537 44.1558 295.186 44.1059C295.934 44.1059 296.632 43.956 297.281 43.6064V43.4565H297.231ZM322.27 35.2148C323.218 36.2138 323.667 37.5624 323.567 38.961V45.6044H321.472V39.2108C321.522 38.3117 321.273 37.4126 320.724 36.6633C320.126 36.0639 319.327 35.7642 318.479 35.8142C317.532 35.8142 316.634 36.1139 315.986 36.8132C315.287 37.6124 314.938 38.6114 315.038 39.6603V45.6044H312.943V39.2108C312.993 38.3117 312.743 37.4126 312.195 36.6633C311.596 36.0639 310.798 35.7642 310 35.8142C309.052 35.7642 308.105 36.1139 307.456 36.8132C306.758 37.6124 306.409 38.6114 306.508 39.6603V45.6044H304.214V34.0659H306.209V35.7642C306.658 35.1648 307.207 34.7153 307.905 34.4156C308.653 34.1159 309.401 33.966 310.199 33.966C311.047 33.966 311.846 34.1159 312.594 34.5155C313.292 34.8651 313.841 35.3646 314.19 36.0639C314.689 35.4146 315.287 34.8651 316.035 34.5155C316.833 34.1159 317.731 33.9161 318.629 33.966C319.976 33.8162 321.273 34.2657 322.27 35.2148ZM336.536 34.6653C337.384 35.1648 338.082 35.9141 338.581 36.7632C339.578 38.7113 339.578 40.959 338.581 42.9071C338.082 43.7562 337.384 44.5055 336.536 45.005C335.638 45.5045 334.591 45.7542 333.543 45.7043C332.745 45.7043 331.997 45.5544 331.249 45.2547C330.55 44.9051 329.952 44.4555 329.503 43.8561V49.9501H327.408V34.0659H329.403V35.8641C329.852 35.2647 330.451 34.7652 331.149 34.4156C331.897 34.1159 332.745 33.966 333.543 33.966C334.591 33.966 335.588 34.2158 336.536 34.6653ZM335.339 43.4066C335.937 43.0569 336.386 42.5574 336.735 41.958C337.084 41.3087 337.234 40.5594 337.234 39.8102C337.234 39.0609 337.084 38.3616 336.735 37.7123C336.436 37.1129 335.937 36.6134 335.339 36.2637C334.74 35.964 334.042 35.7642 333.344 35.7642C332.645 35.7642 331.997 35.964 331.398 36.3137C330.8 36.6134 330.301 37.1129 330.002 37.7123C329.652 38.3616 329.453 39.0609 329.453 39.8102C329.453 40.5594 329.652 41.3087 329.952 41.958C330.301 42.5574 330.75 43.0569 331.348 43.4066C331.947 43.7063 332.645 43.9061 333.344 43.9061C334.042 43.9061 334.74 43.7063 335.339 43.4066ZM350.003 34.965C350.901 35.9141 351.35 37.1628 351.25 38.4615V45.4545H349.105V44.0559C348.756 44.6054 348.208 45.0549 347.609 45.3047C346.861 45.6044 346.113 45.7542 345.315 45.7043C344.317 45.7542 343.27 45.5045 342.422 44.955C341.623 44.3556 341.224 43.4565 341.224 42.4575C341.224 41.5085 341.623 40.6094 342.322 39.96C343.369 39.2607 344.616 38.961 345.863 39.0609H349.105V38.5614C349.105 37.8122 348.856 37.013 348.357 36.4635C347.659 35.964 346.861 35.7143 346.013 35.7642C345.315 35.7642 344.666 35.8641 344.018 36.1139C343.419 36.3137 342.87 36.6134 342.372 37.013L341.524 35.4146C342.172 34.9151 342.87 34.5654 343.669 34.3157C344.516 34.0659 345.364 33.966 346.262 33.966C347.609 33.7662 348.956 34.1658 350.003 34.965ZM347.908 43.4565C348.457 43.1069 348.856 42.6573 349.105 42.0579V40.4595H345.913C344.117 40.4595 343.27 41.0589 343.27 42.2577C343.27 42.8072 343.469 43.3067 343.918 43.6064C344.467 43.956 345.165 44.1558 345.813 44.1059C346.562 44.1059 347.26 43.956 347.908 43.6064V43.4565ZM355.141 31.4685C354.891 31.2188 354.742 30.8192 354.742 30.4695C354.742 30.1199 354.891 29.7702 355.141 29.5205C355.44 29.2707 355.789 29.1209 356.188 29.1209C356.587 29.1209 356.936 29.2208 357.186 29.5205C357.435 29.7702 357.585 30.0699 357.585 30.4196C357.585 30.7692 357.435 31.1688 357.186 31.4186C356.936 31.7183 356.587 31.8681 356.188 31.8182C355.789 31.8182 355.44 31.7183 355.141 31.4685ZM355.141 34.0659H357.236V45.6044H355.141V34.0659ZM363.022 44.955C362.124 44.4555 361.376 43.7562 360.877 42.8571C360.378 41.958 360.129 40.959 360.129 39.96C360.129 38.9111 360.378 37.8621 360.877 36.963C361.426 36.1139 362.124 35.4146 363.022 34.965C363.969 34.4655 365.017 34.2158 366.114 34.2158C367.162 34.2158 368.159 34.4655 369.057 34.965C369.955 35.4645 370.703 36.1638 371.202 37.0629C371.701 37.962 371.95 39.011 371.95 40.0599C371.95 41.1089 371.701 42.1578 371.202 43.1069C370.653 43.9061 369.905 44.5055 369.057 44.955C368.109 45.4545 367.062 45.7043 365.965 45.7043C364.917 45.7043 363.92 45.4545 363.022 44.955ZM368.01 43.4066C368.608 43.0569 369.057 42.5574 369.406 41.958C369.755 41.3087 369.905 40.5594 369.905 39.8102C369.905 39.0609 369.755 38.3616 369.406 37.7123C369.107 37.1129 368.608 36.6134 368.01 36.2637C367.411 35.964 366.713 35.7642 366.014 35.7642C365.316 35.7642 364.618 35.964 364.019 36.2637C363.421 36.6134 362.972 37.1129 362.673 37.7123C362.323 38.3616 362.124 39.0609 362.124 39.8102C362.124 40.5594 362.323 41.3087 362.673 41.958C362.972 42.5574 363.471 43.0569 364.019 43.4066C364.618 43.7063 365.316 43.9061 366.014 43.9061C366.763 43.9061 367.461 43.7562 368.109 43.4066H368.01Z" fill="black"/>
<path d="M52.6989 90.177C53.2709 90.177 53.6826 90.0405 53.9339 89.7675C54.1852 89.4945 54.3109 89.1132 54.3109 88.6235C54.3109 88.4068 54.2784 88.2097 54.2134 88.032C54.1484 87.8543 54.0487 87.7027 53.9144 87.577C53.7844 87.447 53.6176 87.3473 53.4139 87.278C53.2146 87.2087 52.9762 87.174 52.6989 87.174H51.5549V90.177H52.6989ZM52.6989 85.5295C53.3662 85.5295 53.9382 85.6097 54.4149 85.77C54.8959 85.926 55.2902 86.1427 55.5979 86.42C55.9099 86.6973 56.1396 87.0245 56.2869 87.4015C56.4342 87.7785 56.5079 88.1858 56.5079 88.6235C56.5079 89.0958 56.4321 89.5292 56.2804 89.9235C56.1287 90.3178 55.8969 90.6558 55.5849 90.9375C55.2729 91.2192 54.8764 91.4402 54.3954 91.6005C53.9187 91.7565 53.3532 91.8345 52.6989 91.8345H51.5549V95H49.3579V85.5295H52.6989ZM60.229 88.1555C60.7403 88.1555 61.2061 88.2357 61.6265 88.396C62.0468 88.5563 62.4065 88.786 62.7055 89.085C63.0088 89.384 63.2428 89.748 63.4075 90.177C63.5765 90.6017 63.661 91.0805 63.661 91.6135C63.661 92.1508 63.5765 92.6362 63.4075 93.0695C63.2428 93.4985 63.0088 93.8647 62.7055 94.168C62.4065 94.467 62.0468 94.6988 61.6265 94.8635C61.2061 95.0238 60.7403 95.104 60.229 95.104C59.7133 95.104 59.2431 95.0238 58.8185 94.8635C58.3981 94.6988 58.0341 94.467 57.7265 94.168C57.4231 93.8647 57.187 93.4985 57.018 93.0695C56.8533 92.6362 56.771 92.1508 56.771 91.6135C56.771 91.0805 56.8533 90.6017 57.018 90.177C57.187 89.748 57.4231 89.384 57.7265 89.085C58.0341 88.786 58.3981 88.5563 58.8185 88.396C59.2431 88.2357 59.7133 88.1555 60.229 88.1555ZM60.229 93.609C60.6926 93.609 61.0328 93.4465 61.2495 93.1215C61.4705 92.7922 61.581 92.2938 61.581 91.6265C61.581 90.9592 61.4705 90.463 61.2495 90.138C61.0328 89.813 60.6926 89.6505 60.229 89.6505C59.7523 89.6505 59.4035 89.813 59.1825 90.138C58.9615 90.463 58.851 90.9592 58.851 91.6265C58.851 92.2938 58.9615 92.7922 59.1825 93.1215C59.4035 93.4465 59.7523 93.609 60.229 93.609ZM66.5607 89.2995C66.7687 88.9355 67.007 88.6495 67.2757 88.4415C67.5487 88.2335 67.8607 88.1295 68.2117 88.1295C68.515 88.1295 68.762 88.201 68.9527 88.344L68.8227 89.826C68.801 89.9213 68.7642 89.9863 68.7122 90.021C68.6645 90.0557 68.5973 90.073 68.5107 90.073C68.476 90.073 68.4305 90.0708 68.3742 90.0665C68.3178 90.0622 68.2593 90.0578 68.1987 90.0535C68.138 90.0448 68.0752 90.0383 68.0102 90.034C67.9495 90.0253 67.8932 90.021 67.8412 90.021C67.5465 90.021 67.3103 90.099 67.1327 90.255C66.9593 90.411 66.812 90.6277 66.6907 90.905V95H64.6757V88.2595H65.8717C65.9713 88.2595 66.0537 88.2682 66.1187 88.2855C66.188 88.3028 66.2443 88.331 66.2877 88.37C66.3353 88.4047 66.37 88.4523 66.3917 88.513C66.4177 88.5737 66.4393 88.6473 66.4567 88.734L66.5607 89.2995ZM72.051 95.104C71.7304 95.104 71.4465 95.0585 71.1995 94.9675C70.9569 94.8722 70.751 94.74 70.582 94.571C70.4174 94.3977 70.2917 94.1897 70.205 93.947C70.1184 93.7043 70.075 93.4335 70.075 93.1345V89.6505H69.503C69.399 89.6505 69.3102 89.618 69.2365 89.553C69.1629 89.4837 69.126 89.384 69.126 89.254V88.4675L70.1985 88.2595L70.595 86.615C70.647 86.407 70.7944 86.303 71.037 86.303H72.09V88.2725H73.7605V89.6505H72.09V92.998C72.09 93.154 72.1269 93.284 72.2005 93.388C72.2785 93.4877 72.389 93.5375 72.532 93.5375C72.6057 93.5375 72.6664 93.531 72.714 93.518C72.766 93.5007 72.8094 93.4833 72.844 93.466C72.883 93.4443 72.9177 93.427 72.948 93.414C72.9827 93.3967 73.0217 93.388 73.065 93.388C73.1257 93.388 73.1734 93.4032 73.208 93.4335C73.247 93.4595 73.286 93.5028 73.325 93.5635L73.936 94.519C73.676 94.714 73.3835 94.8613 73.0585 94.961C72.7335 95.0563 72.3977 95.104 72.051 95.104ZM80.6738 88.2595V95H79.4258C79.1745 95 79.0098 94.8873 78.9318 94.662L78.8148 94.272C78.6848 94.3977 78.5505 94.5125 78.4118 94.6165C78.2731 94.7162 78.1236 94.8028 77.9633 94.8765C77.8073 94.9458 77.6361 95 77.4498 95.039C77.2678 95.0823 77.0685 95.104 76.8518 95.104C76.4835 95.104 76.1563 95.0412 75.8703 94.9155C75.5886 94.7855 75.3503 94.6057 75.1553 94.376C74.9603 94.1463 74.813 93.8755 74.7133 93.5635C74.6136 93.2515 74.5638 92.9092 74.5638 92.5365V88.2595H76.5788V92.5365C76.5788 92.8702 76.6546 93.128 76.8063 93.31C76.958 93.492 77.1811 93.583 77.4758 93.583C77.6968 93.583 77.9026 93.5375 78.0933 93.4465C78.2883 93.3512 78.4768 93.2233 78.6588 93.063V88.2595H80.6738ZM84.6104 91.2755C84.944 91.2755 85.1845 91.1932 85.3319 91.0285C85.4835 90.8595 85.5594 90.6428 85.5594 90.3785C85.5594 90.1055 85.4835 89.891 85.3319 89.735C85.1845 89.579 84.944 89.501 84.6104 89.501C84.2767 89.501 84.034 89.579 83.8824 89.735C83.735 89.891 83.6614 90.1055 83.6614 90.3785C83.6614 90.5085 83.6787 90.6277 83.7134 90.736C83.7524 90.8443 83.8109 90.9397 83.8889 91.022C83.9669 91.1 84.0644 91.1628 84.1814 91.2105C84.3027 91.2538 84.4457 91.2755 84.6104 91.2755ZM86.1704 95.247C86.1704 95.0867 86.0989 94.9718 85.9559 94.9025C85.8129 94.8288 85.6265 94.7768 85.3969 94.7465C85.1672 94.7162 84.9094 94.6988 84.6234 94.6945C84.3417 94.6858 84.06 94.6685 83.7784 94.6425C83.6527 94.7292 83.5487 94.8267 83.4664 94.935C83.3884 95.039 83.3494 95.1582 83.3494 95.2925C83.3494 95.3878 83.3689 95.4745 83.4079 95.5525C83.4512 95.6305 83.5249 95.6977 83.6289 95.754C83.7329 95.8103 83.8715 95.8537 84.0449 95.884C84.2225 95.9187 84.4457 95.936 84.7144 95.936C85.0047 95.936 85.243 95.9187 85.4294 95.884C85.6157 95.8493 85.763 95.8017 85.8714 95.741C85.984 95.6803 86.062 95.6067 86.1054 95.52C86.1487 95.4377 86.1704 95.3467 86.1704 95.247ZM88.1594 88.4675V89.202C88.1594 89.3147 88.1269 89.4035 88.0619 89.4685C88.0012 89.5335 87.895 89.5833 87.7434 89.618L87.2559 89.7285C87.2819 89.8238 87.3014 89.9213 87.3144 90.021C87.3317 90.1207 87.3404 90.2247 87.3404 90.333C87.3404 90.671 87.2689 90.9743 87.1259 91.243C86.9872 91.5117 86.7944 91.7413 86.5474 91.932C86.3047 92.1183 86.0165 92.2635 85.6829 92.3675C85.3492 92.4672 84.9917 92.517 84.6104 92.517C84.5064 92.517 84.4045 92.5148 84.3049 92.5105C84.2052 92.5018 84.1077 92.4888 84.0124 92.4715C83.865 92.5625 83.7914 92.6643 83.7914 92.777C83.7914 92.8897 83.852 92.972 83.9734 93.024C84.0947 93.0717 84.255 93.1063 84.4544 93.128C84.6537 93.1453 84.879 93.1583 85.1304 93.167C85.386 93.1713 85.646 93.1865 85.9104 93.2125C86.1747 93.2342 86.4325 93.2732 86.6839 93.3295C86.9395 93.3858 87.167 93.4768 87.3664 93.6025C87.5657 93.7282 87.726 93.8972 87.8474 94.1095C87.9687 94.3175 88.0294 94.584 88.0294 94.909C88.0294 95.2123 87.9557 95.5092 87.8084 95.7995C87.661 96.0898 87.4444 96.3477 87.1584 96.573C86.8724 96.7983 86.5214 96.9782 86.1054 97.1125C85.6894 97.2512 85.2127 97.3205 84.6754 97.3205C84.1467 97.3205 83.6895 97.2707 83.3039 97.171C82.9225 97.0713 82.604 96.9392 82.3484 96.7745C82.097 96.6142 81.9107 96.4278 81.7894 96.2155C81.668 96.0032 81.6074 95.7822 81.6074 95.5525C81.6074 95.2535 81.694 95.0043 81.8674 94.805C82.0407 94.6057 82.2834 94.4453 82.5954 94.324C82.4307 94.2243 82.3007 94.0965 82.2054 93.9405C82.11 93.7845 82.0624 93.583 82.0624 93.336C82.0624 93.2363 82.0797 93.1323 82.1144 93.024C82.149 92.9113 82.2032 92.803 82.2769 92.699C82.3549 92.5907 82.4502 92.4888 82.5629 92.3935C82.6755 92.2982 82.8099 92.2137 82.9659 92.14C82.6149 91.9537 82.3375 91.7088 82.1339 91.4055C81.9302 91.0978 81.8284 90.7403 81.8284 90.333C81.8284 89.995 81.8999 89.6917 82.0429 89.423C82.1859 89.15 82.3809 88.9203 82.6279 88.734C82.8792 88.5433 83.1739 88.3982 83.5119 88.2985C83.8499 88.1945 84.216 88.1425 84.6104 88.1425C85.1824 88.1425 85.6894 88.2508 86.1314 88.4675H88.1594ZM95.0449 88.2595V95H93.7969C93.5455 95 93.3809 94.8873 93.3029 94.662L93.1859 94.272C93.0559 94.3977 92.9215 94.5125 92.7829 94.6165C92.6442 94.7162 92.4947 94.8028 92.3344 94.8765C92.1784 94.9458 92.0072 95 91.8209 95.039C91.6389 95.0823 91.4395 95.104 91.2229 95.104C90.8545 95.104 90.5274 95.0412 90.2414 94.9155C89.9597 94.7855 89.7214 94.6057 89.5264 94.376C89.3314 94.1463 89.184 93.8755 89.0844 93.5635C88.9847 93.2515 88.9349 92.9092 88.9349 92.5365V88.2595H90.9499V92.5365C90.9499 92.8702 91.0257 93.128 91.1774 93.31C91.329 93.492 91.5522 93.583 91.8469 93.583C92.0679 93.583 92.2737 93.5375 92.4644 93.4465C92.6594 93.3512 92.8479 93.2233 93.0299 93.063V88.2595H95.0449ZM100.606 90.8205C100.606 90.6602 100.585 90.5042 100.541 90.3525C100.502 90.2008 100.435 90.0665 100.34 89.9495C100.249 89.8282 100.128 89.7307 99.9759 89.657C99.8243 89.5833 99.6401 89.5465 99.4234 89.5465C99.0421 89.5465 98.7431 89.657 98.5264 89.878C98.3098 90.0947 98.1668 90.4088 98.0974 90.8205H100.606ZM98.0714 91.9905C98.1364 92.5538 98.3076 92.9633 98.5849 93.219C98.8623 93.4703 99.2198 93.596 99.6574 93.596C99.8914 93.596 100.093 93.5678 100.262 93.5115C100.431 93.4552 100.58 93.3923 100.71 93.323C100.845 93.2537 100.966 93.1908 101.074 93.1345C101.187 93.0782 101.304 93.05 101.425 93.05C101.586 93.05 101.707 93.1085 101.789 93.2255L102.374 93.947C102.166 94.1853 101.941 94.3803 101.698 94.532C101.46 94.6793 101.213 94.7963 100.957 94.883C100.706 94.9653 100.453 95.0217 100.197 95.052C99.9456 95.0867 99.7051 95.104 99.4754 95.104C99.0031 95.104 98.5589 95.0282 98.1429 94.8765C97.7313 94.7205 97.3694 94.4908 97.0574 94.1875C96.7498 93.8842 96.5049 93.5072 96.3229 93.0565C96.1453 92.6058 96.0564 92.0815 96.0564 91.4835C96.0564 91.0328 96.1323 90.606 96.2839 90.203C96.4399 89.8 96.6609 89.4468 96.9469 89.1435C97.2373 88.8402 97.5861 88.5997 97.9934 88.422C98.4051 88.2443 98.8688 88.1555 99.3844 88.1555C99.8308 88.1555 100.238 88.2248 100.606 88.3635C100.979 88.5022 101.298 88.7037 101.562 88.968C101.831 89.2323 102.039 89.5573 102.186 89.943C102.338 90.3243 102.413 90.7577 102.413 91.243C102.413 91.3947 102.407 91.5182 102.394 91.6135C102.381 91.7088 102.357 91.7847 102.322 91.841C102.288 91.8973 102.24 91.9363 102.179 91.958C102.123 91.9797 102.049 91.9905 101.958 91.9905H98.0714ZM107.705 89.735C107.653 89.8173 107.597 89.8758 107.536 89.9105C107.48 89.9452 107.406 89.9625 107.315 89.9625C107.22 89.9625 107.125 89.943 107.029 89.904C106.934 89.8607 106.83 89.8152 106.717 89.7675C106.609 89.7198 106.485 89.6765 106.347 89.6375C106.208 89.5942 106.05 89.5725 105.872 89.5725C105.617 89.5725 105.419 89.6223 105.281 89.722C105.146 89.8173 105.079 89.9517 105.079 90.125C105.079 90.2507 105.123 90.3547 105.209 90.437C105.3 90.5193 105.419 90.593 105.567 90.658C105.714 90.7187 105.881 90.7772 106.067 90.8335C106.254 90.8898 106.444 90.9527 106.639 91.022C106.834 91.0913 107.025 91.1737 107.211 91.269C107.398 91.36 107.564 91.4748 107.712 91.6135C107.859 91.7478 107.976 91.9125 108.063 92.1075C108.154 92.3025 108.199 92.5365 108.199 92.8095C108.199 93.1432 108.139 93.4508 108.017 93.7325C107.896 94.0142 107.714 94.2568 107.471 94.4605C107.233 94.6642 106.936 94.8223 106.581 94.935C106.23 95.0477 105.825 95.104 105.365 95.104C105.136 95.104 104.906 95.0823 104.676 95.039C104.447 94.9957 104.223 94.9372 104.007 94.8635C103.794 94.7898 103.597 94.7032 103.415 94.6035C103.233 94.4995 103.077 94.389 102.947 94.272L103.415 93.531C103.467 93.4443 103.532 93.3772 103.61 93.3295C103.693 93.2775 103.797 93.2515 103.922 93.2515C104.039 93.2515 104.143 93.2775 104.234 93.3295C104.33 93.3815 104.431 93.4378 104.54 93.4985C104.648 93.5592 104.774 93.6155 104.917 93.6675C105.064 93.7195 105.248 93.7455 105.469 93.7455C105.625 93.7455 105.757 93.7303 105.866 93.7C105.974 93.6653 106.061 93.6198 106.126 93.5635C106.191 93.5072 106.238 93.4443 106.269 93.375C106.299 93.3057 106.314 93.2342 106.314 93.1605C106.314 93.0262 106.269 92.9157 106.178 92.829C106.087 92.7423 105.968 92.6687 105.82 92.608C105.673 92.543 105.504 92.4845 105.313 92.4325C105.127 92.3762 104.936 92.3133 104.741 92.244C104.546 92.1747 104.353 92.0923 104.163 91.997C103.976 91.8973 103.81 91.7738 103.662 91.6265C103.515 91.4748 103.396 91.2907 103.305 91.074C103.214 90.8573 103.168 90.5952 103.168 90.2875C103.168 90.0015 103.222 89.7307 103.331 89.475C103.443 89.215 103.61 88.9875 103.831 88.7925C104.052 88.5975 104.33 88.4437 104.663 88.331C104.997 88.214 105.387 88.1555 105.833 88.1555C106.076 88.1555 106.31 88.1772 106.535 88.2205C106.765 88.2638 106.979 88.3245 107.179 88.4025C107.378 88.4805 107.56 88.5737 107.725 88.682C107.889 88.786 108.035 88.9008 108.16 89.0265L107.705 89.735ZM113.403 90.8205C113.403 90.6602 113.382 90.5042 113.338 90.3525C113.299 90.2008 113.232 90.0665 113.137 89.9495C113.046 89.8282 112.924 89.7307 112.773 89.657C112.621 89.5833 112.437 89.5465 112.22 89.5465C111.839 89.5465 111.54 89.657 111.323 89.878C111.107 90.0947 110.964 90.4088 110.894 90.8205H113.403ZM110.868 91.9905C110.933 92.5538 111.104 92.9633 111.382 93.219C111.659 93.4703 112.017 93.596 112.454 93.596C112.688 93.596 112.89 93.5678 113.059 93.5115C113.228 93.4552 113.377 93.3923 113.507 93.323C113.642 93.2537 113.763 93.1908 113.871 93.1345C113.984 93.0782 114.101 93.05 114.222 93.05C114.383 93.05 114.504 93.1085 114.586 93.2255L115.171 93.947C114.963 94.1853 114.738 94.3803 114.495 94.532C114.257 94.6793 114.01 94.7963 113.754 94.883C113.503 94.9653 113.249 95.0217 112.994 95.052C112.742 95.0867 112.502 95.104 112.272 95.104C111.8 95.104 111.356 95.0282 110.94 94.8765C110.528 94.7205 110.166 94.4908 109.854 94.1875C109.547 93.8842 109.302 93.5072 109.12 93.0565C108.942 92.6058 108.853 92.0815 108.853 91.4835C108.853 91.0328 108.929 90.606 109.081 90.203C109.237 89.8 109.458 89.4468 109.744 89.1435C110.034 88.8402 110.383 88.5997 110.79 88.422C111.202 88.2443 111.666 88.1555 112.181 88.1555C112.628 88.1555 113.035 88.2248 113.403 88.3635C113.776 88.5022 114.094 88.7037 114.359 88.968C114.627 89.2323 114.835 89.5573 114.983 89.943C115.134 90.3243 115.21 90.7577 115.21 91.243C115.21 91.3947 115.204 91.5182 115.191 91.6135C115.178 91.7088 115.154 91.7847 115.119 91.841C115.085 91.8973 115.037 91.9363 114.976 91.958C114.92 91.9797 114.846 91.9905 114.755 91.9905H110.868ZM123.205 93.3425C123.496 93.3425 123.732 93.3057 123.914 93.232C124.1 93.1583 124.245 93.063 124.349 92.946C124.453 92.829 124.525 92.6968 124.564 92.5495C124.603 92.4022 124.622 92.2527 124.622 92.101C124.622 91.9277 124.599 91.7717 124.551 91.633C124.508 91.4943 124.43 91.3773 124.317 91.282C124.209 91.1867 124.063 91.113 123.881 91.061C123.699 91.009 123.47 90.983 123.192 90.983H121.658V93.3425H123.205ZM121.658 87.174V89.514H122.802C123.045 89.514 123.264 89.4967 123.459 89.462C123.654 89.4273 123.819 89.3667 123.953 89.28C124.092 89.1933 124.196 89.0742 124.265 88.9225C124.339 88.7708 124.375 88.5802 124.375 88.3505C124.375 88.1252 124.347 87.9388 124.291 87.7915C124.235 87.6398 124.148 87.5185 124.031 87.4275C123.914 87.3365 123.764 87.2715 123.582 87.2325C123.405 87.1935 123.192 87.174 122.945 87.174H121.658ZM122.945 85.5295C123.6 85.5295 124.157 85.5902 124.616 85.7115C125.075 85.8328 125.45 86.004 125.74 86.225C126.031 86.446 126.241 86.7147 126.371 87.031C126.505 87.3473 126.572 87.7005 126.572 88.0905C126.572 88.3028 126.542 88.5087 126.481 88.708C126.421 88.903 126.325 89.0872 126.195 89.2605C126.065 89.4295 125.899 89.5855 125.695 89.7285C125.491 89.8715 125.246 89.995 124.96 90.099C125.584 90.2507 126.046 90.4955 126.345 90.8335C126.644 91.1715 126.793 91.6092 126.793 92.1465C126.793 92.5495 126.715 92.9243 126.559 93.271C126.403 93.6177 126.174 93.921 125.87 94.181C125.571 94.4367 125.201 94.6382 124.759 94.7855C124.317 94.9285 123.812 95 123.244 95H119.461V85.5295H122.945ZM129.85 85.2695V95H127.835V85.2695H129.85ZM137.257 88.2595V95H136.009C135.757 95 135.593 94.8873 135.515 94.662L135.398 94.272C135.268 94.3977 135.133 94.5125 134.995 94.6165C134.856 94.7162 134.707 94.8028 134.546 94.8765C134.39 94.9458 134.219 95 134.033 95.039C133.851 95.0823 133.651 95.104 133.435 95.104C133.066 95.104 132.739 95.0412 132.453 94.9155C132.172 94.7855 131.933 94.6057 131.738 94.376C131.543 94.1463 131.396 93.8755 131.296 93.5635C131.197 93.2515 131.147 92.9092 131.147 92.5365V88.2595H133.162V92.5365C133.162 92.8702 133.238 93.128 133.389 93.31C133.541 93.492 133.764 93.583 134.059 93.583C134.28 93.583 134.486 93.5375 134.676 93.4465C134.871 93.3512 135.06 93.2233 135.242 93.063V88.2595H137.257ZM142.818 90.8205C142.818 90.6602 142.797 90.5042 142.753 90.3525C142.714 90.2008 142.647 90.0665 142.552 89.9495C142.461 89.8282 142.34 89.7307 142.188 89.657C142.036 89.5833 141.852 89.5465 141.635 89.5465C141.254 89.5465 140.955 89.657 140.738 89.878C140.522 90.0947 140.379 90.4088 140.309 90.8205H142.818ZM140.283 91.9905C140.348 92.5538 140.52 92.9633 140.797 93.219C141.074 93.4703 141.432 93.596 141.869 93.596C142.103 93.596 142.305 93.5678 142.474 93.5115C142.643 93.4552 142.792 93.3923 142.922 93.323C143.057 93.2537 143.178 93.1908 143.286 93.1345C143.399 93.0782 143.516 93.05 143.637 93.05C143.798 93.05 143.919 93.1085 144.001 93.2255L144.586 93.947C144.378 94.1853 144.153 94.3803 143.91 94.532C143.672 94.6793 143.425 94.7963 143.169 94.883C142.918 94.9653 142.665 95.0217 142.409 95.052C142.158 95.0867 141.917 95.104 141.687 95.104C141.215 95.104 140.771 95.0282 140.355 94.8765C139.943 94.7205 139.581 94.4908 139.269 94.1875C138.962 93.8842 138.717 93.5072 138.535 93.0565C138.357 92.6058 138.268 92.0815 138.268 91.4835C138.268 91.0328 138.344 90.606 138.496 90.203C138.652 89.8 138.873 89.4468 139.159 89.1435C139.449 88.8402 139.798 88.5997 140.205 88.422C140.617 88.2443 141.081 88.1555 141.596 88.1555C142.043 88.1555 142.45 88.2248 142.818 88.3635C143.191 88.5022 143.51 88.7037 143.774 88.968C144.043 89.2323 144.251 89.5573 144.398 89.943C144.55 90.3243 144.625 90.7577 144.625 91.243C144.625 91.3947 144.619 91.5182 144.606 91.6135C144.593 91.7088 144.569 91.7847 144.534 91.841C144.5 91.8973 144.452 91.9363 144.391 91.958C144.335 91.9797 144.261 91.9905 144.17 91.9905H140.283ZM154.109 87.4535C154.044 87.5575 153.975 87.6355 153.901 87.6875C153.832 87.7395 153.741 87.7655 153.628 87.7655C153.528 87.7655 153.42 87.7352 153.303 87.6745C153.19 87.6095 153.06 87.538 152.913 87.46C152.77 87.382 152.605 87.3127 152.419 87.252C152.233 87.187 152.02 87.1545 151.782 87.1545C151.37 87.1545 151.063 87.2433 150.859 87.421C150.66 87.5943 150.56 87.8305 150.56 88.1295C150.56 88.3202 150.621 88.4783 150.742 88.604C150.863 88.7297 151.021 88.838 151.216 88.929C151.416 89.02 151.641 89.1045 151.892 89.1825C152.148 89.2562 152.408 89.3407 152.672 89.436C152.937 89.527 153.195 89.6353 153.446 89.761C153.702 89.8867 153.927 90.047 154.122 90.242C154.321 90.437 154.482 90.6753 154.603 90.957C154.724 91.2343 154.785 91.5702 154.785 91.9645C154.785 92.4022 154.709 92.8117 154.557 93.193C154.406 93.5743 154.185 93.908 153.894 94.194C153.608 94.4757 153.253 94.6988 152.828 94.8635C152.408 95.0238 151.929 95.104 151.392 95.104C151.097 95.104 150.796 95.0737 150.488 95.013C150.185 94.9523 149.89 94.8678 149.604 94.7595C149.318 94.6468 149.05 94.5147 148.798 94.363C148.547 94.2113 148.328 94.0423 148.142 93.856L148.792 92.829C148.844 92.7553 148.911 92.6947 148.993 92.647C149.08 92.595 149.173 92.569 149.273 92.569C149.403 92.569 149.533 92.6102 149.663 92.6925C149.797 92.7748 149.947 92.8658 150.111 92.9655C150.28 93.0652 150.473 93.1562 150.69 93.2385C150.907 93.3208 151.162 93.362 151.457 93.362C151.856 93.362 152.165 93.2753 152.386 93.102C152.607 92.9243 152.718 92.6448 152.718 92.2635C152.718 92.0425 152.657 91.8627 152.536 91.724C152.415 91.5853 152.254 91.4705 152.055 91.3795C151.86 91.2885 151.637 91.2083 151.385 91.139C151.134 91.0697 150.876 90.9938 150.612 90.9115C150.348 90.8248 150.09 90.7208 149.838 90.5995C149.587 90.4738 149.362 90.3113 149.162 90.112C148.967 89.9083 148.809 89.657 148.688 89.358C148.567 89.0547 148.506 88.682 148.506 88.24C148.506 87.8847 148.577 87.538 148.72 87.2C148.863 86.862 149.074 86.5608 149.351 86.2965C149.628 86.0322 149.968 85.822 150.371 85.666C150.774 85.5057 151.236 85.4255 151.756 85.4255C152.046 85.4255 152.328 85.4493 152.601 85.497C152.878 85.5403 153.14 85.6075 153.387 85.6985C153.634 85.7852 153.864 85.8913 154.076 86.017C154.293 86.1383 154.486 86.277 154.655 86.433L154.109 87.4535ZM160.794 89.8585C160.733 89.9322 160.675 89.9907 160.618 90.034C160.562 90.0773 160.482 90.099 160.378 90.099C160.278 90.099 160.187 90.0752 160.105 90.0275C160.027 89.9798 159.938 89.9278 159.838 89.8715C159.739 89.8108 159.622 89.7567 159.487 89.709C159.353 89.6613 159.186 89.6375 158.987 89.6375C158.74 89.6375 158.525 89.683 158.343 89.774C158.166 89.865 158.018 89.995 157.901 90.164C157.784 90.333 157.698 90.541 157.641 90.788C157.585 91.0307 157.557 91.3058 157.557 91.6135C157.557 92.2592 157.68 92.7553 157.927 93.102C158.179 93.4487 158.523 93.622 158.961 93.622C159.195 93.622 159.379 93.5938 159.513 93.5375C159.652 93.4768 159.769 93.4118 159.864 93.3425C159.96 93.2688 160.046 93.2017 160.124 93.141C160.207 93.0803 160.308 93.05 160.43 93.05C160.59 93.05 160.711 93.1085 160.794 93.2255L161.379 93.947C161.171 94.1853 160.952 94.3803 160.722 94.532C160.493 94.6793 160.256 94.7963 160.014 94.883C159.775 94.9653 159.535 95.0217 159.292 95.052C159.05 95.0867 158.813 95.104 158.584 95.104C158.172 95.104 157.778 95.026 157.401 94.87C157.028 94.714 156.699 94.4887 156.413 94.194C156.131 93.895 155.906 93.5288 155.737 93.0955C155.572 92.6622 155.49 92.1682 155.49 91.6135C155.49 91.1282 155.561 90.6753 155.704 90.255C155.852 89.8303 156.066 89.4642 156.348 89.1565C156.634 88.8445 156.985 88.5997 157.401 88.422C157.821 88.2443 158.306 88.1555 158.857 88.1555C159.385 88.1555 159.849 88.24 160.248 88.409C160.646 88.578 161.006 88.825 161.327 89.15L160.794 89.8585ZM164.178 88.851C164.421 88.643 164.683 88.4762 164.964 88.3505C165.25 88.2205 165.591 88.1555 165.985 88.1555C166.353 88.1555 166.678 88.2205 166.96 88.3505C167.246 88.4762 167.486 88.6538 167.681 88.8835C167.876 89.1088 168.024 89.3797 168.123 89.696C168.223 90.008 168.273 90.3482 168.273 90.7165V95H166.258V90.7165C166.258 90.3872 166.182 90.1315 166.03 89.9495C165.879 89.7632 165.656 89.67 165.361 89.67C165.14 89.67 164.932 89.7177 164.737 89.813C164.546 89.904 164.36 90.0297 164.178 90.19V95H162.163V85.2695H164.178V88.851ZM172.684 88.1555C173.195 88.1555 173.661 88.2357 174.082 88.396C174.502 88.5563 174.862 88.786 175.161 89.085C175.464 89.384 175.698 89.748 175.863 90.177C176.032 90.6017 176.116 91.0805 176.116 91.6135C176.116 92.1508 176.032 92.6362 175.863 93.0695C175.698 93.4985 175.464 93.8647 175.161 94.168C174.862 94.467 174.502 94.6988 174.082 94.8635C173.661 95.0238 173.195 95.104 172.684 95.104C172.168 95.104 171.698 95.0238 171.274 94.8635C170.853 94.6988 170.489 94.467 170.182 94.168C169.878 93.8647 169.642 93.4985 169.473 93.0695C169.308 92.6362 169.226 92.1508 169.226 91.6135C169.226 91.0805 169.308 90.6017 169.473 90.177C169.642 89.748 169.878 89.384 170.182 89.085C170.489 88.786 170.853 88.5563 171.274 88.396C171.698 88.2357 172.168 88.1555 172.684 88.1555ZM172.684 93.609C173.148 93.609 173.488 93.4465 173.705 93.1215C173.926 92.7922 174.036 92.2938 174.036 91.6265C174.036 90.9592 173.926 90.463 173.705 90.138C173.488 89.813 173.148 89.6505 172.684 89.6505C172.207 89.6505 171.859 89.813 171.638 90.138C171.417 90.463 171.306 90.9592 171.306 91.6265C171.306 92.2938 171.417 92.7922 171.638 93.1215C171.859 93.4465 172.207 93.609 172.684 93.609ZM180.238 88.1555C180.749 88.1555 181.215 88.2357 181.635 88.396C182.056 88.5563 182.415 88.786 182.714 89.085C183.018 89.384 183.252 89.748 183.416 90.177C183.585 90.6017 183.67 91.0805 183.67 91.6135C183.67 92.1508 183.585 92.6362 183.416 93.0695C183.252 93.4985 183.018 93.8647 182.714 94.168C182.415 94.467 182.056 94.6988 181.635 94.8635C181.215 95.0238 180.749 95.104 180.238 95.104C179.722 95.104 179.252 95.0238 178.827 94.8635C178.407 94.6988 178.043 94.467 177.735 94.168C177.432 93.8647 177.196 93.4985 177.027 93.0695C176.862 92.6362 176.78 92.1508 176.78 91.6135C176.78 91.0805 176.862 90.6017 177.027 90.177C177.196 89.748 177.432 89.384 177.735 89.085C178.043 88.786 178.407 88.5563 178.827 88.396C179.252 88.2357 179.722 88.1555 180.238 88.1555ZM180.238 93.609C180.701 93.609 181.042 93.4465 181.258 93.1215C181.479 92.7922 181.59 92.2938 181.59 91.6265C181.59 90.9592 181.479 90.463 181.258 90.138C181.042 89.813 180.701 89.6505 180.238 89.6505C179.761 89.6505 179.412 89.813 179.191 90.138C178.97 90.463 178.86 90.9592 178.86 91.6265C178.86 92.2938 178.97 92.7922 179.191 93.1215C179.412 93.4465 179.761 93.609 180.238 93.609ZM186.699 85.2695V95H184.684V85.2695H186.699ZM194.548 92.257C194.145 92.2743 193.813 92.309 193.553 92.361C193.293 92.413 193.087 92.478 192.936 92.556C192.784 92.634 192.678 92.7228 192.617 92.8225C192.561 92.9222 192.533 93.0305 192.533 93.1475C192.533 93.3772 192.596 93.5397 192.721 93.635C192.847 93.726 193.031 93.7715 193.274 93.7715C193.534 93.7715 193.761 93.726 193.956 93.635C194.151 93.544 194.348 93.3967 194.548 93.193V92.257ZM190.921 89.1955C191.328 88.8358 191.779 88.5693 192.273 88.396C192.771 88.2183 193.304 88.1295 193.872 88.1295C194.279 88.1295 194.645 88.1967 194.97 88.331C195.3 88.461 195.577 88.6452 195.802 88.8835C196.032 89.1175 196.207 89.397 196.329 89.722C196.45 90.047 196.511 90.4023 196.511 90.788V95H195.588C195.397 95 195.252 94.974 195.152 94.922C195.057 94.87 194.977 94.7617 194.912 94.597L194.769 94.2265C194.6 94.3695 194.437 94.4952 194.281 94.6035C194.125 94.7118 193.963 94.805 193.794 94.883C193.629 94.9567 193.451 95.0108 193.261 95.0455C193.074 95.0845 192.866 95.104 192.637 95.104C192.329 95.104 192.05 95.065 191.798 94.987C191.547 94.9047 191.332 94.7855 191.155 94.6295C190.981 94.4735 190.847 94.2807 190.752 94.051C190.656 93.817 190.609 93.5483 190.609 93.245C190.609 93.0023 190.669 92.7575 190.791 92.5105C190.912 92.2592 191.122 92.0317 191.421 91.828C191.72 91.62 192.123 91.4467 192.63 91.308C193.137 91.1693 193.776 91.0913 194.548 91.074V90.788C194.548 90.3937 194.465 90.1098 194.301 89.9365C194.14 89.7588 193.911 89.67 193.612 89.67C193.373 89.67 193.178 89.696 193.027 89.748C192.875 89.8 192.739 89.8585 192.617 89.9235C192.5 89.9885 192.385 90.047 192.273 90.099C192.16 90.151 192.026 90.177 191.87 90.177C191.731 90.177 191.614 90.1423 191.519 90.073C191.423 90.0037 191.345 89.9213 191.285 89.826L190.921 89.1955ZM200.109 95.104C199.788 95.104 199.504 95.0585 199.257 94.9675C199.014 94.8722 198.809 94.74 198.64 94.571C198.475 94.3977 198.349 94.1897 198.263 93.947C198.176 93.7043 198.133 93.4335 198.133 93.1345V89.6505H197.561C197.457 89.6505 197.368 89.618 197.294 89.553C197.22 89.4837 197.184 89.384 197.184 89.254V88.4675L198.256 88.2595L198.653 86.615C198.705 86.407 198.852 86.303 199.095 86.303H200.148V88.2725H202.637L203.04 86.615C203.092 86.407 203.239 86.303 203.482 86.303H204.535V88.2725H206.206V89.6505H204.535V92.998C204.535 93.154 204.572 93.284 204.646 93.388C204.724 93.4877 204.834 93.5375 204.977 93.5375C205.051 93.5375 205.111 93.531 205.159 93.518C205.211 93.5007 205.254 93.4833 205.289 93.466C205.328 93.4443 205.363 93.427 205.393 93.414C205.428 93.3967 205.467 93.388 205.51 93.388C205.571 93.388 205.618 93.4032 205.653 93.4335C205.692 93.4595 205.731 93.5028 205.77 93.5635L206.381 94.519C206.121 94.714 205.829 94.8613 205.504 94.961C205.179 95.0563 204.843 95.104 204.496 95.104C204.175 95.104 203.892 95.0585 203.645 94.9675C203.402 94.8722 203.196 94.74 203.027 94.571C202.862 94.3977 202.737 94.1897 202.65 93.947C202.563 93.7043 202.52 93.4335 202.52 93.1345V89.6505H200.148V92.998C200.148 93.154 200.184 93.284 200.258 93.388C200.336 93.4877 200.447 93.5375 200.59 93.5375C200.663 93.5375 200.724 93.531 200.772 93.518C200.824 93.5007 200.867 93.4833 200.902 93.466C200.941 93.4443 200.975 93.427 201.006 93.414C201.04 93.3967 201.079 93.388 201.123 93.388C201.183 93.388 201.231 93.4032 201.266 93.4335C201.305 93.4595 201.344 93.5028 201.383 93.5635L201.994 94.519C201.734 94.714 201.441 94.8613 201.116 94.961C200.791 95.0563 200.455 95.104 200.109 95.104ZM208.964 89.2995C209.172 88.9355 209.41 88.6495 209.679 88.4415C209.952 88.2335 210.264 88.1295 210.615 88.1295C210.918 88.1295 211.165 88.201 211.356 88.344L211.226 89.826C211.204 89.9213 211.167 89.9863 211.115 90.021C211.068 90.0557 211.001 90.073 210.914 90.073C210.879 90.073 210.834 90.0708 210.777 90.0665C210.721 90.0622 210.663 90.0578 210.602 90.0535C210.541 90.0448 210.478 90.0383 210.413 90.034C210.353 90.0253 210.296 90.021 210.244 90.021C209.95 90.021 209.714 90.099 209.536 90.255C209.363 90.411 209.215 90.6277 209.094 90.905V95H207.079V88.2595H208.275C208.375 88.2595 208.457 88.2682 208.522 88.2855C208.591 88.3028 208.648 88.331 208.691 88.37C208.739 88.4047 208.773 88.4523 208.795 88.513C208.821 88.5737 208.843 88.6473 208.86 88.734L208.964 89.2995ZM214.103 88.2595V95H212.088V88.2595H214.103ZM214.311 86.4135C214.311 86.5738 214.279 86.7255 214.214 86.8685C214.149 87.0072 214.06 87.1307 213.947 87.239C213.835 87.343 213.703 87.4275 213.551 87.4925C213.404 87.5532 213.245 87.5835 213.076 87.5835C212.912 87.5835 212.758 87.5532 212.615 87.4925C212.472 87.4275 212.344 87.343 212.231 87.239C212.123 87.1307 212.036 87.0072 211.971 86.8685C211.911 86.7255 211.88 86.5738 211.88 86.4135C211.88 86.2488 211.911 86.095 211.971 85.952C212.036 85.809 212.123 85.6833 212.231 85.575C212.344 85.4667 212.472 85.3822 212.615 85.3215C212.758 85.2608 212.912 85.2305 213.076 85.2305C213.245 85.2305 213.404 85.2608 213.551 85.3215C213.703 85.3822 213.835 85.4667 213.947 85.575C214.06 85.6833 214.149 85.809 214.214 85.952C214.279 86.095 214.311 86.2488 214.311 86.4135ZM217.524 93.167C217.675 93.3317 217.84 93.4487 218.018 93.518C218.195 93.5873 218.375 93.622 218.557 93.622C218.748 93.622 218.923 93.5873 219.084 93.518C219.244 93.4443 219.381 93.3273 219.493 93.167C219.61 93.0023 219.701 92.7878 219.766 92.5235C219.831 92.2548 219.864 91.9255 219.864 91.5355C219.864 91.1975 219.838 90.9115 219.786 90.6775C219.738 90.4392 219.664 90.2463 219.565 90.099C219.469 89.9473 219.348 89.839 219.201 89.774C219.058 89.7047 218.893 89.67 218.707 89.67C218.46 89.67 218.245 89.7242 218.063 89.8325C217.881 89.9408 217.701 90.099 217.524 90.307V93.167ZM217.524 88.9745C217.784 88.7275 218.068 88.5303 218.375 88.383C218.687 88.2313 219.034 88.1555 219.415 88.1555C219.797 88.1555 220.143 88.2335 220.455 88.3895C220.767 88.5455 221.034 88.7687 221.255 89.059C221.476 89.345 221.645 89.6917 221.762 90.099C221.883 90.5063 221.944 90.9613 221.944 91.464C221.944 92.01 221.874 92.5062 221.736 92.9525C221.597 93.3988 221.4 93.7823 221.144 94.103C220.893 94.4193 220.592 94.6663 220.241 94.844C219.89 95.0173 219.502 95.104 219.077 95.104C218.874 95.104 218.692 95.0845 218.531 95.0455C218.371 95.0065 218.224 94.9523 218.089 94.883C217.955 94.8093 217.831 94.7227 217.719 94.623C217.61 94.5233 217.504 94.415 217.4 94.298L217.329 94.636C217.294 94.7747 217.238 94.87 217.16 94.922C217.082 94.974 216.978 95 216.848 95H215.509V85.2695H217.524V88.9745ZM229.019 88.2595V95H227.771C227.519 95 227.355 94.8873 227.277 94.662L227.16 94.272C227.03 94.3977 226.895 94.5125 226.757 94.6165C226.618 94.7162 226.468 94.8028 226.308 94.8765C226.152 94.9458 225.981 95 225.795 95.039C225.613 95.0823 225.413 95.104 225.197 95.104C224.828 95.104 224.501 95.0412 224.215 94.9155C223.933 94.7855 223.695 94.6057 223.5 94.376C223.305 94.1463 223.158 93.8755 223.058 93.5635C222.958 93.2515 222.909 92.9092 222.909 92.5365V88.2595H224.924V92.5365C224.924 92.8702 224.999 93.128 225.151 93.31C225.303 93.492 225.526 93.583 225.821 93.583C226.042 93.583 226.247 93.5375 226.438 93.4465C226.633 93.3512 226.822 93.2233 227.004 93.063V88.2595H229.019ZM237.674 95H235.659V89.6505H232.838V92.998C232.838 93.154 232.875 93.284 232.949 93.388C233.027 93.4877 233.137 93.5375 233.28 93.5375C233.354 93.5375 233.414 93.531 233.462 93.518C233.514 93.5007 233.557 93.4833 233.592 93.466C233.631 93.4443 233.666 93.427 233.696 93.414C233.731 93.3967 233.77 93.388 233.813 93.388C233.874 93.388 233.921 93.4032 233.956 93.4335C233.995 93.4595 234.034 93.5028 234.073 93.5635L234.684 94.519C234.424 94.714 234.132 94.8613 233.807 94.961C233.482 95.0563 233.146 95.104 232.799 95.104C232.478 95.104 232.195 95.0585 231.948 94.9675C231.705 94.8722 231.499 94.74 231.33 94.571C231.165 94.3977 231.04 94.1897 230.953 93.947C230.866 93.7043 230.823 93.4335 230.823 93.1345V89.6505H230.251C230.147 89.6505 230.058 89.618 229.985 89.553C229.911 89.4837 229.874 89.384 229.874 89.254V88.4675L230.947 88.253L231.343 86.615C231.395 86.407 231.542 86.303 231.785 86.303H232.838V88.2725H237.674V95ZM237.954 86.407C237.954 86.5673 237.921 86.719 237.856 86.862C237.791 87.005 237.702 87.1307 237.59 87.239C237.477 87.343 237.345 87.4253 237.193 87.486C237.046 87.5467 236.888 87.577 236.719 87.577C236.554 87.577 236.4 87.5467 236.257 87.486C236.114 87.4253 235.986 87.343 235.874 87.239C235.765 87.1307 235.679 87.005 235.614 86.862C235.553 86.719 235.523 86.5673 235.523 86.407C235.523 86.2467 235.553 86.095 235.614 85.952C235.679 85.8047 235.765 85.679 235.874 85.575C235.986 85.4667 236.114 85.3822 236.257 85.3215C236.4 85.2565 236.554 85.224 236.719 85.224C236.888 85.224 237.046 85.2565 237.193 85.3215C237.345 85.3822 237.477 85.4667 237.59 85.575C237.702 85.679 237.791 85.8047 237.856 85.952C237.921 86.095 237.954 86.2467 237.954 86.407ZM242.191 88.1555C242.702 88.1555 243.168 88.2357 243.588 88.396C244.009 88.5563 244.368 88.786 244.667 89.085C244.971 89.384 245.205 89.748 245.369 90.177C245.538 90.6017 245.623 91.0805 245.623 91.6135C245.623 92.1508 245.538 92.6362 245.369 93.0695C245.205 93.4985 244.971 93.8647 244.667 94.168C244.368 94.467 244.009 94.6988 243.588 94.8635C243.168 95.0238 242.702 95.104 242.191 95.104C241.675 95.104 241.205 95.0238 240.78 94.8635C240.36 94.6988 239.996 94.467 239.688 94.168C239.385 93.8647 239.149 93.4985 238.98 93.0695C238.815 92.6362 238.733 92.1508 238.733 91.6135C238.733 91.0805 238.815 90.6017 238.98 90.177C239.149 89.748 239.385 89.384 239.688 89.085C239.996 88.786 240.36 88.5563 240.78 88.396C241.205 88.2357 241.675 88.1555 242.191 88.1555ZM242.191 93.609C242.655 93.609 242.995 93.4465 243.211 93.1215C243.432 92.7922 243.543 92.2938 243.543 91.6265C243.543 90.9592 243.432 90.463 243.211 90.138C242.995 89.813 242.655 89.6505 242.191 89.6505C241.714 89.6505 241.365 89.813 241.144 90.138C240.923 90.463 240.813 90.9592 240.813 91.6265C240.813 92.2938 240.923 92.7922 241.144 93.1215C241.365 93.4465 241.714 93.609 242.191 93.609ZM248.497 88.9875C248.627 88.8662 248.761 88.7535 248.9 88.6495C249.038 88.5455 249.186 88.4588 249.342 88.3895C249.502 88.3158 249.673 88.2595 249.855 88.2205C250.041 88.1772 250.243 88.1555 250.46 88.1555C250.828 88.1555 251.153 88.2205 251.435 88.3505C251.721 88.4762 251.961 88.6538 252.156 88.8835C252.351 89.1088 252.498 89.3797 252.598 89.696C252.698 90.008 252.748 90.3482 252.748 90.7165V95H250.733V90.7165C250.733 90.3872 250.657 90.1315 250.505 89.9495C250.353 89.7632 250.13 89.67 249.836 89.67C249.615 89.67 249.407 89.7177 249.212 89.813C249.021 89.904 248.835 90.0297 248.653 90.19V95H246.638V88.2595H247.886C248.137 88.2595 248.302 88.3722 248.38 88.5975L248.497 88.9875ZM254.065 96.6055C253.969 96.5275 253.922 96.4322 253.922 96.3195C253.922 96.2762 253.937 96.2285 253.967 96.1765C253.997 96.1288 254.034 96.0855 254.078 96.0465C254.13 95.9945 254.19 95.9295 254.26 95.8515C254.329 95.7778 254.398 95.6955 254.468 95.6045C254.537 95.5135 254.6 95.4138 254.656 95.3055C254.717 95.1972 254.762 95.0823 254.793 94.961C254.645 94.948 254.511 94.9112 254.39 94.8505C254.268 94.7898 254.164 94.7118 254.078 94.6165C253.991 94.5168 253.924 94.4042 253.876 94.2785C253.828 94.1485 253.805 94.0077 253.805 93.856C253.805 93.7173 253.831 93.5895 253.883 93.4725C253.935 93.3512 254.008 93.2472 254.104 93.1605C254.203 93.0695 254.318 92.998 254.448 92.946C254.582 92.894 254.732 92.868 254.897 92.868C255.092 92.868 255.261 92.9027 255.404 92.972C255.547 93.037 255.666 93.128 255.761 93.245C255.856 93.3577 255.926 93.4898 255.969 93.6415C256.017 93.7888 256.041 93.9448 256.041 94.1095C256.041 94.3262 256.006 94.558 255.937 94.805C255.867 95.0477 255.763 95.2925 255.625 95.5395C255.49 95.7865 255.321 96.0292 255.118 96.2675C254.914 96.5058 254.68 96.7225 254.416 96.9175L254.065 96.6055ZM264.467 89.735C264.415 89.8173 264.359 89.8758 264.298 89.9105C264.242 89.9452 264.168 89.9625 264.077 89.9625C263.982 89.9625 263.886 89.943 263.791 89.904C263.696 89.8607 263.592 89.8152 263.479 89.7675C263.371 89.7198 263.247 89.6765 263.108 89.6375C262.97 89.5942 262.812 89.5725 262.634 89.5725C262.378 89.5725 262.181 89.6223 262.042 89.722C261.908 89.8173 261.841 89.9517 261.841 90.125C261.841 90.2507 261.884 90.3547 261.971 90.437C262.062 90.5193 262.181 90.593 262.328 90.658C262.476 90.7187 262.643 90.7772 262.829 90.8335C263.015 90.8898 263.206 90.9527 263.401 91.022C263.596 91.0913 263.787 91.1737 263.973 91.269C264.159 91.36 264.326 91.4748 264.473 91.6135C264.621 91.7478 264.738 91.9125 264.824 92.1075C264.915 92.3025 264.961 92.5365 264.961 92.8095C264.961 93.1432 264.9 93.4508 264.779 93.7325C264.658 94.0142 264.476 94.2568 264.233 94.4605C263.995 94.6642 263.698 94.8223 263.342 94.935C262.991 95.0477 262.586 95.104 262.127 95.104C261.897 95.104 261.668 95.0823 261.438 95.039C261.208 94.9957 260.985 94.9372 260.768 94.8635C260.556 94.7898 260.359 94.7032 260.177 94.6035C259.995 94.4995 259.839 94.389 259.709 94.272L260.177 93.531C260.229 93.4443 260.294 93.3772 260.372 93.3295C260.454 93.2775 260.558 93.2515 260.684 93.2515C260.801 93.2515 260.905 93.2775 260.996 93.3295C261.091 93.3815 261.193 93.4378 261.301 93.4985C261.41 93.5592 261.535 93.6155 261.678 93.6675C261.826 93.7195 262.01 93.7455 262.231 93.7455C262.387 93.7455 262.519 93.7303 262.627 93.7C262.736 93.6653 262.822 93.6198 262.887 93.5635C262.952 93.5072 263 93.4443 263.03 93.375C263.061 93.3057 263.076 93.2342 263.076 93.1605C263.076 93.0262 263.03 92.9157 262.939 92.829C262.848 92.7423 262.729 92.6687 262.582 92.608C262.435 92.543 262.266 92.4845 262.075 92.4325C261.889 92.3762 261.698 92.3133 261.503 92.244C261.308 92.1747 261.115 92.0923 260.924 91.997C260.738 91.8973 260.571 91.7738 260.424 91.6265C260.277 91.4748 260.157 91.2907 260.066 91.074C259.975 90.8573 259.93 90.5952 259.93 90.2875C259.93 90.0015 259.984 89.7307 260.092 89.475C260.205 89.215 260.372 88.9875 260.593 88.7925C260.814 88.5975 261.091 88.4437 261.425 88.331C261.759 88.214 262.149 88.1555 262.595 88.1555C262.838 88.1555 263.072 88.1772 263.297 88.2205C263.527 88.2638 263.741 88.3245 263.94 88.4025C264.14 88.4805 264.322 88.5737 264.486 88.682C264.651 88.786 264.796 88.9008 264.922 89.0265L264.467 89.735ZM268.033 88.2595V95H266.018V88.2595H268.033ZM268.241 86.4135C268.241 86.5738 268.209 86.7255 268.144 86.8685C268.079 87.0072 267.99 87.1307 267.877 87.239C267.764 87.343 267.632 87.4275 267.481 87.4925C267.333 87.5532 267.175 87.5835 267.006 87.5835C266.841 87.5835 266.688 87.5532 266.545 87.4925C266.402 87.4275 266.274 87.343 266.161 87.239C266.053 87.1307 265.966 87.0072 265.901 86.8685C265.84 86.7255 265.81 86.5738 265.81 86.4135C265.81 86.2488 265.84 86.095 265.901 85.952C265.966 85.809 266.053 85.6833 266.161 85.575C266.274 85.4667 266.402 85.3822 266.545 85.3215C266.688 85.2608 266.841 85.2305 267.006 85.2305C267.175 85.2305 267.333 85.2608 267.481 85.3215C267.632 85.3822 267.764 85.4667 267.877 85.575C267.99 85.6833 268.079 85.809 268.144 85.952C268.209 86.095 268.241 86.2488 268.241 86.4135ZM271.297 88.9875C271.427 88.8662 271.562 88.7535 271.7 88.6495C271.839 88.5455 271.986 88.4588 272.142 88.3895C272.303 88.3158 272.474 88.2595 272.656 88.2205C272.842 88.1772 273.044 88.1555 273.26 88.1555C273.629 88.1555 273.954 88.2205 274.235 88.3505C274.521 88.4762 274.762 88.6538 274.957 88.8835C275.152 89.1088 275.299 89.3797 275.399 89.696C275.499 90.008 275.548 90.3482 275.548 90.7165V95H273.533V90.7165C273.533 90.3872 273.458 90.1315 273.306 89.9495C273.154 89.7632 272.931 89.67 272.636 89.67C272.415 89.67 272.207 89.7177 272.012 89.813C271.822 89.904 271.635 90.0297 271.453 90.19V95H269.438V88.2595H270.686C270.938 88.2595 271.102 88.3722 271.18 88.5975L271.297 88.9875ZM281.805 89.8585C281.745 89.9322 281.686 89.9907 281.63 90.034C281.574 90.0773 281.493 90.099 281.389 90.099C281.29 90.099 281.199 90.0752 281.116 90.0275C281.038 89.9798 280.95 89.9278 280.85 89.8715C280.75 89.8108 280.633 89.7567 280.499 89.709C280.365 89.6613 280.198 89.6375 279.998 89.6375C279.751 89.6375 279.537 89.683 279.355 89.774C279.177 89.865 279.03 89.995 278.913 90.164C278.796 90.333 278.709 90.541 278.653 90.788C278.597 91.0307 278.568 91.3058 278.568 91.6135C278.568 92.2592 278.692 92.7553 278.939 93.102C279.19 93.4487 279.535 93.622 279.972 93.622C280.206 93.622 280.391 93.5938 280.525 93.5375C280.664 93.4768 280.781 93.4118 280.876 93.3425C280.971 93.2688 281.058 93.2017 281.136 93.141C281.218 93.0803 281.32 93.05 281.441 93.05C281.602 93.05 281.723 93.1085 281.805 93.2255L282.39 93.947C282.182 94.1853 281.964 94.3803 281.734 94.532C281.504 94.6793 281.268 94.7963 281.025 94.883C280.787 94.9653 280.547 95.0217 280.304 95.052C280.061 95.0867 279.825 95.104 279.595 95.104C279.184 95.104 278.789 95.026 278.412 94.87C278.04 94.714 277.71 94.4887 277.424 94.194C277.143 93.895 276.917 93.5288 276.748 93.0955C276.584 92.6622 276.501 92.1682 276.501 91.6135C276.501 91.1282 276.573 90.6753 276.716 90.255C276.863 89.8303 277.078 89.4642 277.359 89.1565C277.645 88.8445 277.996 88.5997 278.412 88.422C278.833 88.2443 279.318 88.1555 279.868 88.1555C280.397 88.1555 280.861 88.24 281.259 88.409C281.658 88.578 282.018 88.825 282.338 89.15L281.805 89.8585ZM287.253 90.8205C287.253 90.6602 287.231 90.5042 287.188 90.3525C287.149 90.2008 287.082 90.0665 286.986 89.9495C286.895 89.8282 286.774 89.7307 286.622 89.657C286.471 89.5833 286.287 89.5465 286.07 89.5465C285.689 89.5465 285.39 89.657 285.173 89.878C284.956 90.0947 284.813 90.4088 284.744 90.8205H287.253ZM284.718 91.9905C284.783 92.5538 284.954 92.9633 285.231 93.219C285.509 93.4703 285.866 93.596 286.304 93.596C286.538 93.596 286.739 93.5678 286.908 93.5115C287.077 93.4552 287.227 93.3923 287.357 93.323C287.491 93.2537 287.613 93.1908 287.721 93.1345C287.834 93.0782 287.951 93.05 288.072 93.05C288.232 93.05 288.354 93.1085 288.436 93.2255L289.021 93.947C288.813 94.1853 288.588 94.3803 288.345 94.532C288.107 94.6793 287.86 94.7963 287.604 94.883C287.353 94.9653 287.099 95.0217 286.843 95.052C286.592 95.0867 286.352 95.104 286.122 95.104C285.65 95.104 285.205 95.0282 284.789 94.8765C284.378 94.7205 284.016 94.4908 283.704 94.1875C283.396 93.8842 283.151 93.5072 282.969 93.0565C282.792 92.6058 282.703 92.0815 282.703 91.4835C282.703 91.0328 282.779 90.606 282.93 90.203C283.086 89.8 283.307 89.4468 283.593 89.1435C283.884 88.8402 284.233 88.5997 284.64 88.422C285.052 88.2443 285.515 88.1555 286.031 88.1555C286.477 88.1555 286.885 88.2248 287.253 88.3635C287.626 88.5022 287.944 88.7037 288.208 88.968C288.477 89.2323 288.685 89.5573 288.832 89.943C288.984 90.3243 289.06 90.7577 289.06 91.243C289.06 91.3947 289.053 91.5182 289.04 91.6135C289.027 91.7088 289.004 91.7847 288.969 91.841C288.934 91.8973 288.887 91.9363 288.826 91.958C288.77 91.9797 288.696 91.9905 288.605 91.9905H284.718ZM298.739 93.18C298.955 93.18 299.126 93.2407 299.252 93.362C299.378 93.479 299.441 93.635 299.441 93.83V95H292.785V94.35C292.785 94.2243 292.811 94.09 292.863 93.947C292.915 93.804 293.006 93.674 293.136 93.557L295.866 90.8075C296.1 90.5735 296.303 90.3503 296.477 90.138C296.65 89.9257 296.793 89.7177 296.906 89.514C297.018 89.306 297.103 89.1002 297.159 88.8965C297.215 88.6885 297.244 88.4697 297.244 88.24C297.244 87.863 297.153 87.5748 296.971 87.3755C296.793 87.1718 296.52 87.07 296.152 87.07C295.853 87.07 295.599 87.1502 295.391 87.3105C295.187 87.4665 295.047 87.6615 294.969 87.8955C294.878 88.1338 294.758 88.292 294.611 88.37C294.464 88.448 294.254 88.4653 293.981 88.422L292.915 88.2335C292.984 87.7612 293.116 87.3495 293.311 86.9985C293.51 86.6475 293.755 86.355 294.046 86.121C294.34 85.887 294.676 85.7137 295.053 85.601C295.43 85.484 295.835 85.4255 296.269 85.4255C296.737 85.4255 297.157 85.4948 297.53 85.6335C297.907 85.7678 298.227 85.9563 298.492 86.199C298.756 86.4417 298.957 86.732 299.096 87.07C299.239 87.4037 299.311 87.772 299.311 88.175C299.311 88.5217 299.261 88.8423 299.161 89.137C299.066 89.4317 298.934 89.7133 298.765 89.982C298.596 90.2463 298.398 90.5042 298.173 90.7555C297.952 91.0025 297.716 91.2538 297.465 91.5095L295.612 93.4075C295.85 93.3338 296.087 93.2775 296.321 93.2385C296.555 93.1995 296.771 93.18 296.971 93.18H298.739ZM307.216 90.2615C307.216 91.0892 307.127 91.8063 306.949 92.413C306.771 93.0197 306.524 93.5223 306.208 93.921C305.896 94.3197 305.523 94.6165 305.09 94.8115C304.661 95.0065 304.195 95.104 303.693 95.104C303.19 95.104 302.724 95.0065 302.295 94.8115C301.87 94.6165 301.502 94.3197 301.19 93.921C300.878 93.5223 300.633 93.0197 300.456 92.413C300.282 91.8063 300.196 91.0892 300.196 90.2615C300.196 89.4338 300.282 88.7167 300.456 88.11C300.633 87.5033 300.878 87.0007 301.19 86.602C301.502 86.2033 301.87 85.9087 302.295 85.718C302.724 85.523 303.19 85.4255 303.693 85.4255C304.195 85.4255 304.661 85.523 305.09 85.718C305.523 85.9087 305.896 86.2033 306.208 86.602C306.524 87.0007 306.771 87.5033 306.949 88.11C307.127 88.7167 307.216 89.4338 307.216 90.2615ZM305.136 90.2615C305.136 89.6072 305.094 89.072 305.012 88.656C304.93 88.2357 304.819 87.9063 304.681 87.668C304.546 87.4297 304.392 87.2672 304.219 87.1805C304.046 87.0895 303.87 87.044 303.693 87.044C303.515 87.044 303.339 87.0895 303.166 87.1805C302.997 87.2672 302.845 87.4297 302.711 87.668C302.581 87.9063 302.475 88.2357 302.393 88.656C302.315 89.072 302.276 89.6072 302.276 90.2615C302.276 90.9202 302.315 91.4575 302.393 91.8735C302.475 92.2895 302.581 92.6188 302.711 92.8615C302.845 93.0998 302.997 93.2645 303.166 93.3555C303.339 93.4422 303.515 93.4855 303.693 93.4855C303.87 93.4855 304.046 93.4422 304.219 93.3555C304.392 93.2645 304.546 93.0998 304.681 92.8615C304.819 92.6188 304.93 92.2895 305.012 91.8735C305.094 91.4575 305.136 90.9202 305.136 90.2615ZM313.821 93.18C314.037 93.18 314.208 93.2407 314.334 93.362C314.46 93.479 314.523 93.635 314.523 93.83V95H307.867V94.35C307.867 94.2243 307.893 94.09 307.945 93.947C307.997 93.804 308.088 93.674 308.218 93.557L310.948 90.8075C311.182 90.5735 311.385 90.3503 311.559 90.138C311.732 89.9257 311.875 89.7177 311.988 89.514C312.1 89.306 312.185 89.1002 312.241 88.8965C312.297 88.6885 312.326 88.4697 312.326 88.24C312.326 87.863 312.235 87.5748 312.053 87.3755C311.875 87.1718 311.602 87.07 311.234 87.07C310.935 87.07 310.681 87.1502 310.473 87.3105C310.269 87.4665 310.129 87.6615 310.051 87.8955C309.96 88.1338 309.84 88.292 309.693 88.37C309.546 88.448 309.336 88.4653 309.063 88.422L307.997 88.2335C308.066 87.7612 308.198 87.3495 308.393 86.9985C308.592 86.6475 308.837 86.355 309.128 86.121C309.422 85.887 309.758 85.7137 310.135 85.601C310.512 85.484 310.917 85.4255 311.351 85.4255C311.819 85.4255 312.239 85.4948 312.612 85.6335C312.989 85.7678 313.309 85.9563 313.574 86.199C313.838 86.4417 314.039 86.732 314.178 87.07C314.321 87.4037 314.393 87.772 314.393 88.175C314.393 88.5217 314.343 88.8423 314.243 89.137C314.148 89.4317 314.016 89.7133 313.847 89.982C313.678 90.2463 313.48 90.5042 313.255 90.7555C313.034 91.0025 312.798 91.2538 312.547 91.5095L310.694 93.4075C310.932 93.3338 311.169 93.2775 311.403 93.2385C311.637 93.1995 311.853 93.18 312.053 93.18H313.821ZM321.849 93.544V95H316.454V93.544H318.274V88.7665C318.274 88.6452 318.276 88.5238 318.281 88.4025C318.285 88.2768 318.291 88.1512 318.3 88.0255L317.221 88.9225C317.126 88.9962 317.03 89.0417 316.935 89.059C316.844 89.072 316.757 89.072 316.675 89.059C316.593 89.0417 316.519 89.0135 316.454 88.9745C316.389 88.9312 316.341 88.8878 316.311 88.8445L315.674 87.9995L318.625 85.523H320.289V93.544H321.849Z" fill="black" fill-opacity="0.32"/>
</svg>
