<svg width="45" height="44" viewBox="0 0 45 44" fill="none" xmlns="http://www.w3.org/2000/svg">
<g filter="url(#filter0_d_631_40)">
<path d="M41.0001 17.9927C41.0001 27.9363 32.7743 36 22.6456 36C12.5169 36 4.27612 27.9363 4.27612 17.9927C4.27612 8.04896 12.5019 0 22.6306 0C32.7593 0 40.9851 8.06365 40.9851 17.9927" fill="#061743"/>
<path fill-rule="evenodd" clip-rule="evenodd" d="M24.2187 14.0855V12.4258C24.2187 11.6326 24.7731 11.4417 25.1627 11.4417H27.53V7.88721H24.2487C20.6078 7.88721 19.7987 10.531 19.7987 12.2348V14.1149H17.686V18.2715H19.8137V28.6412H24.0539V18.2715H27.1854L27.3203 16.6412L27.575 14.1296H24.2038L24.2187 14.0855Z" fill="white"/>
</g>
<defs>
<filter id="filter0_d_631_40" x="0.276123" y="0" width="44.7239" height="44" filterUnits="userSpaceOnUse" color-interpolation-filters="sRGB">
<feFlood flood-opacity="0" result="BackgroundImageFix"/>
<feColorMatrix in="SourceAlpha" type="matrix" values="0 0 0 0 0 0 0 0 0 0 0 0 0 0 0 0 0 0 127 0" result="hardAlpha"/>
<feOffset dy="4"/>
<feGaussianBlur stdDeviation="2"/>
<feComposite in2="hardAlpha" operator="out"/>
<feColorMatrix type="matrix" values="0 0 0 0 0 0 0 0 0 0 0 0 0 0 0 0 0 0 0.25 0"/>
<feBlend mode="normal" in2="BackgroundImageFix" result="effect1_dropShadow_631_40"/>
<feBlend mode="normal" in="SourceGraphic" in2="effect1_dropShadow_631_40" result="shape"/>
</filter>
</defs>
</svg>
