<svg width="37" height="36" viewBox="0 0 37 36" fill="none" xmlns="http://www.w3.org/2000/svg">
<path d="M36.724 17.9927C36.724 27.9363 28.4981 36 18.3695 36C8.24079 36 0 27.9363 0 17.9927C0 8.04896 8.22581 0 18.3545 0C28.4832 0 36.709 8.06365 36.709 17.9927" fill="#061743"/>
<path d="M30.4987 12.499C30.224 11.5162 29.4107 10.7416 28.376 10.4775C26.504 10 19 10 19 10C19 10 11.496 10 9.624 10.4775C8.592 10.7416 7.77867 11.5162 7.50133 12.499C7 14.2819 7 18 7 18C7 18 7 21.7181 7.50133 23.501C7.776 24.4838 8.58933 25.2584 9.624 25.5225C11.496 26 19 26 19 26C19 26 26.504 26 28.376 25.5225C29.408 25.2584 30.2213 24.4864 30.4987 23.501C31 21.7181 31 18 31 18C31 18 31 14.2819 30.4987 12.499ZM16.6 21.4286V14.5714L22.8347 18L16.6 21.4286Z" fill="white"/>
</svg>
