<svg width="30" height="12" viewBox="0 0 30 12" fill="none" xmlns="http://www.w3.org/2000/svg">
<path d="M30.0001 11.6028L28.5143 9.99361C29.0332 9.26959 29.3245 8.33835 29.3245 7.28174C29.3245 4.74896 27.66 2.94531 25.2367 2.94531C22.8134 2.94531 21.1514 4.74896 21.1514 7.28174C21.1514 9.79918 22.7987 11.6028 25.2367 11.6028C25.976 11.6028 26.6418 11.4365 27.2121 11.1346L27.2978 11.0784L27.7824 11.6054H30.0001V11.6028ZM25.2392 9.54846C24.0985 9.54846 23.4009 8.35626 23.4009 7.26383C23.4009 6.17141 24.0985 4.99456 25.2392 4.99456C26.3798 4.99456 27.0775 6.16885 27.0775 7.26383C27.0775 7.59131 27.0138 7.92645 26.8963 8.23601L26.8792 8.21811H24.6615L25.7924 9.44356C25.6235 9.51264 25.4374 9.54846 25.2392 9.54846Z" fill="white" fill-opacity="0.35"/>
<path d="M10.9048 0.145508H8.68457V11.3503H10.9048V0.145508Z" fill="white" fill-opacity="0.35"/>
<path d="M12.0576 3.42645V11.3486H14.2777V3.18848H12.0576V3.42645Z" fill="white" fill-opacity="0.35"/>
<path d="M13.1644 0C12.4765 0 11.9185 0.583224 11.9185 1.30202C11.9185 2.02082 12.4765 2.60405 13.1644 2.60405C13.8522 2.60405 14.4103 2.02082 14.4103 1.30202C14.4103 0.583224 13.8522 0 13.1644 0Z" fill="white" fill-opacity="0.35"/>
<path d="M6.66038 4.02438C6.51352 3.88366 6.35686 3.75573 6.18796 3.64315C5.80856 3.38728 5.39244 3.19027 4.95429 3.08281C4.62139 3.00093 4.26646 2.95999 3.8944 2.95999C3.87237 2.95999 3.85034 2.95999 3.82831 2.95999C3.30938 2.96767 2.8027 3.1263 2.37189 3.42566C2.27153 3.49475 2.21768 3.5408 2.21768 3.5408V3.22353V0.145508H0V7.27639V11.6209H2.21768V11.3293V11.012C2.21768 11.012 2.26908 11.058 2.37189 11.1271C2.80514 11.4239 3.31183 11.5851 3.82831 11.5928C3.85034 11.5928 3.87237 11.5928 3.8944 11.5928C4.26646 11.5928 4.62139 11.5493 4.95429 11.47C5.39488 11.3625 5.80856 11.1655 6.18796 10.9096C6.35441 10.7971 6.51352 10.6691 6.66038 10.5284C7.24785 9.96039 7.67865 9.22862 7.85979 8.41498C7.94057 8.05677 7.97973 7.67554 7.98218 7.27895C7.98218 6.8798 7.94057 6.50113 7.85979 6.14292C7.67865 5.32416 7.24785 4.5924 6.66038 4.02438ZM3.8944 9.53821C2.76108 9.53821 2.06592 8.36125 2.05857 7.27383C2.06837 6.18642 2.76353 5.00945 3.8944 5.00945C5.02772 5.00945 5.72289 6.18642 5.73023 7.27383C5.72289 8.36125 5.02772 9.53821 3.8944 9.53821Z" fill="white" fill-opacity="0.35"/>
<path d="M20.0769 7.28444C20.001 7.20769 19.8884 7.11302 19.8174 7.06441C19.5653 6.89299 19.017 6.67807 18.4687 6.47339C17.82 6.23033 17.4553 6.06402 17.4553 5.68024C17.4553 5.26065 17.8053 5.06876 18.1333 5.06876C18.6009 5.06876 18.968 5.22738 19.3572 5.60861L20.5934 4.21165C19.9349 3.46967 19.2324 2.9375 18.055 2.9375C17.847 2.9375 17.6487 2.95285 17.4553 2.98099C15.9548 3.2087 14.9341 4.77197 15.3967 6.2815C15.5044 6.63202 15.8202 7.16675 16.2437 7.48401C16.4835 7.66311 16.7626 7.79359 17.0441 7.91384C17.093 7.93431 17.4039 8.05712 17.4504 8.07503C18.0966 8.32321 18.4638 8.48439 18.4638 8.86817C18.4638 9.28777 18.1138 9.47966 17.7858 9.47966C17.2962 9.47966 16.9192 9.30824 16.5129 8.8912L15.1201 10.4212C15.8349 11.1785 16.8238 11.6084 17.8665 11.6084C18.0746 11.6084 18.2729 11.593 18.4662 11.5649C19.9667 11.3372 21.127 9.77389 20.6644 8.26436C20.5567 7.9164 20.3706 7.57867 20.0769 7.28444Z" fill="white" fill-opacity="0.35"/>
</svg>
