<svg width="40" height="57" viewBox="0 0 40 57" fill="none" xmlns="http://www.w3.org/2000/svg">
<path d="M3.845 41.9H5.483L8.187 47.776H8.213L10.93 41.9H12.568V51H10.865V45.462H10.839L8.746 49.726H7.654L5.574 45.462H5.548V51H3.845V41.9ZM14.2552 41.9H20.8332V43.395H16.0232V45.696H20.4562V47.165H16.0232V49.505H20.8332V51H14.2552V41.9ZM22.1389 41.9H23.7249L27.7809 48.075H27.8069V41.9H29.5099V51H27.9239L23.8679 44.838H23.8419V51H22.1389V41.9ZM31.2034 49.44V41.9H32.9714V48.829L33.6344 49.492H36.1824L36.8454 48.829V41.9H38.6134V49.44L37.0534 51H32.7634L31.2034 49.44Z" fill="white"/>
<path d="M0 2H39.5" stroke="#00B5AD" stroke-width="3"/>
<path d="M0 24H39.5" stroke="#00B5AD" stroke-width="3"/>
<path d="M19 13H38.75" stroke="#00B5AD" stroke-width="3"/>
</svg>
