<svg width="137" height="136" viewBox="0 0 137 136" fill="none" xmlns="http://www.w3.org/2000/svg">
<path d="M68.5001 132.859C104.645 132.859 133.946 103.795 133.946 67.944C133.946 32.0926 104.645 3.0293 68.5001 3.0293C32.3553 3.0293 3.0542 32.0926 3.0542 67.944C3.0542 103.795 32.3553 132.859 68.5001 132.859Z" stroke="#00BBB4" stroke-width="5" stroke-miterlimit="10"/>
<path d="M101.76 69.1807H99.1773V67.757C99.1782 67.0311 98.9342 66.3257 98.4842 65.7532C98.0343 65.1808 97.4042 64.774 96.6942 64.5978L92.9382 63.6677C92.6611 63.1409 92.2444 62.699 91.733 62.3896C91.2217 62.0802 90.635 61.9148 90.036 61.9114H87.16C86.9019 61.0495 86.4547 60.255 85.8506 59.5847C85.2466 58.9144 84.5005 58.385 83.6658 58.0344C82.8312 57.6837 81.9287 57.5206 81.023 57.5567C80.1173 57.5927 79.2308 57.8271 78.4272 58.2429L76.2794 53.0936C77.6637 52.0825 78.6676 50.6415 79.1318 48.9997C79.5959 47.3578 79.4936 45.6092 78.8411 44.0316L72.6647 29.2383C73.4742 28.4792 73.9866 27.4603 74.111 26.3622C74.2353 25.2641 73.9636 24.1578 73.3441 23.2395C72.7245 22.3211 71.7972 21.65 70.7264 21.3452C69.6555 21.0403 68.5105 21.1214 67.4942 21.5741L47.1894 29.919C46.1786 30.3378 45.345 31.0905 44.8299 32.0494C44.3148 33.0083 44.15 34.1144 44.3634 35.1801C44.5768 36.2458 45.1553 37.2055 46.0007 37.8964C46.8462 38.5873 47.9065 38.9668 49.0019 38.9706V38.9706L55.173 53.7535C55.834 55.326 57.0063 56.634 58.5034 57.4692C60.0005 58.3045 61.7362 58.6189 63.4343 58.3624L64.9168 61.9062H48.1533L44.8949 59.5108C44.8092 59.4475 44.718 59.3919 44.6225 59.3445C44.1232 59.0936 43.5671 58.9752 43.008 59.0007C42.449 59.0262 41.9061 59.1947 41.4322 59.49C40.9554 59.7808 40.561 60.1871 40.2861 60.6706C40.0112 61.1542 39.8647 61.6992 39.8606 62.2543V70.9786C39.86 71.5338 40.0028 72.0799 40.2753 72.565C40.5478 73.05 40.9408 73.4578 41.4172 73.7495C41.8935 74.0411 42.4371 74.207 42.9963 74.2314C43.5556 74.2557 44.1118 74.1376 44.612 73.8884C44.7041 73.8397 44.7932 73.7859 44.8792 73.7273L48.1376 71.3267H55.9955V72.5634C55.9837 72.7051 55.9436 72.8431 55.8774 72.9692C55.8112 73.0954 55.7204 73.2072 55.6102 73.2981C55.5 73.3891 55.3726 73.4573 55.2354 73.4989C55.0983 73.5405 54.9542 73.5545 54.8116 73.5402C53.5689 73.5711 52.3868 74.0791 51.5143 74.9572C50.6417 75.8353 50.1467 77.015 50.1335 78.2479V81.1577C50.1373 82.3894 50.6266 83.5707 51.4968 84.4494C52.367 85.3281 53.5491 85.8344 54.7906 85.8602L52.9728 96.7719H52.5485C51.6823 96.7754 50.8525 97.117 50.2383 97.7228L48.1429 99.8013C47.8378 100.103 47.5959 100.462 47.4314 100.857C47.2668 101.252 47.1828 101.676 47.1842 102.103V105.86C47.1855 106.722 47.5315 107.549 48.1462 108.158C48.7609 108.768 49.5942 109.111 50.4635 109.113H76.8399C77.7092 109.111 78.5425 108.768 79.1572 108.158C79.7719 107.549 80.1179 106.722 80.1193 105.86V102.399C80.12 101.795 79.9507 101.203 79.6305 100.689C79.3103 100.174 78.8519 99.7592 78.3067 99.4895L73.5605 97.1305C73.2993 97.0066 73.0228 96.9175 72.7381 96.8655L74.6292 85.5276C75.3828 85.2123 76.0268 84.6851 76.482 84.0111C76.9372 83.3371 77.1837 82.5457 77.1909 81.7345V80.5757C77.1909 80.4379 77.2461 80.3058 77.3443 80.2083C77.4426 80.1109 77.5758 80.0561 77.7148 80.0561H79.4173V89.8923C79.4172 90.3683 79.6053 90.8254 79.9412 91.1654L87.2752 98.4399C87.6221 98.747 88.0743 98.9106 88.5391 98.8971C89.0038 98.8836 89.4457 98.6939 89.7738 98.3672C90.1019 98.0404 90.2913 97.6014 90.303 97.1404C90.3148 96.6793 90.1479 96.2314 89.8369 95.8886L83.0267 89.1337V80.0509H90.0045C90.6035 80.0475 91.1903 79.8822 91.7016 79.5727C92.213 79.2633 92.6296 78.8214 92.9067 78.2946L96.6628 77.3645C97.3732 77.1891 98.0038 76.7826 98.4539 76.2099C98.904 75.6372 99.1477 74.9315 99.1459 74.2053V72.7816H101.729C102.193 72.7568 102.63 72.5563 102.95 72.2214C103.27 71.8865 103.449 71.4426 103.449 70.9811C103.449 70.5197 103.27 70.0758 102.95 69.7409C102.63 69.406 102.193 69.2055 101.729 69.1807H101.76ZM45.7069 68.6195L43.4752 70.2615V62.987L45.7069 64.6237V68.6195ZM55.9641 67.7258H49.3372V65.5123H55.9641V67.7258ZM47.9857 34.689C47.8728 34.4182 47.8729 34.1141 47.9858 33.8433C48.0987 33.5725 48.3154 33.3571 48.5881 33.2445L68.893 24.9308C69.0238 24.8755 69.1646 24.8472 69.3068 24.8477C69.5653 24.8437 69.8172 24.9294 70.0189 25.0899C70.2206 25.2504 70.3595 25.4757 70.4117 25.727C70.4638 25.9782 70.4259 26.2396 70.3046 26.4661C70.1832 26.6926 69.986 26.87 69.7469 26.9677L49.442 35.3126C49.3054 35.3687 49.1587 35.3971 49.0108 35.396C48.8629 35.3949 48.7167 35.3644 48.5809 35.3063C48.4451 35.2481 48.3224 35.1635 48.2202 35.0575C48.1179 34.9515 48.0382 34.8262 47.9857 34.689V34.689ZM63.8115 54.5589C62.8235 54.9483 61.7209 54.9372 60.7411 54.528C59.7613 54.1189 58.9826 53.3444 58.5729 52.3713L52.4961 37.9314L69.464 30.9635L75.4884 45.4138C75.8976 46.3978 75.8962 47.5027 75.4846 48.4857C75.0731 49.4688 74.285 50.2496 73.2934 50.6566L63.8115 54.5589ZM75.6717 61.0592C75.535 61.3378 75.4194 61.6261 75.3259 61.9218H68.8563L66.8813 57.1985L73.0053 54.6836L75.6717 61.0592ZM76.4942 102.628V105.527H50.825V102.264L52.6899 100.409H72.0256L76.4942 102.628ZM56.6399 96.8083L58.4576 85.8965H70.8993L69.0763 96.8083H56.6399ZM79.4278 76.4604H77.7252C76.6246 76.4686 75.5714 76.9059 74.7932 77.6778C74.0149 78.4498 73.574 79.4944 73.5658 80.5861V81.7449C73.5658 81.8827 73.5106 82.0148 73.4123 82.1123C73.3141 82.2097 73.1808 82.2645 73.0419 82.2645H54.8692C54.5742 82.2645 54.2911 82.1486 54.082 81.9421C53.8729 81.7357 53.7548 81.4555 53.7534 81.1629V78.2531C53.7559 77.9643 53.8705 77.6875 54.0734 77.4804C54.2764 77.2733 54.552 77.1518 54.843 77.1411C55.4582 77.1549 56.07 77.0479 56.6433 76.8263C57.2166 76.6047 57.7401 76.2728 58.1836 75.8498C58.6272 75.4267 58.982 74.9209 59.2277 74.3613C59.4734 73.8018 59.6052 73.1996 59.6154 72.5893V65.5123H75.3312C75.6297 66.4708 76.1593 67.3427 76.874 68.0525C77.5887 68.7623 78.4671 69.2887 79.433 69.586L79.4278 76.4604ZM81.2403 66.2865C80.7295 66.2865 80.2302 66.1362 79.8055 65.8548C79.3808 65.5733 79.0498 65.1732 78.8543 64.7051C78.6588 64.237 78.6077 63.722 78.7074 63.2251C78.807 62.7281 79.053 62.2717 79.4142 61.9134C79.7754 61.5552 80.2355 61.3112 80.7365 61.2124C81.2375 61.1135 81.7567 61.1642 82.2286 61.3581C82.7006 61.552 83.1039 61.8804 83.3877 62.3016C83.6715 62.7229 83.823 63.2182 83.823 63.7248C83.8202 64.4024 83.5469 65.0513 83.0628 65.5295C82.5788 66.0076 81.9235 66.2761 81.2403 66.2761V66.2865ZM89.685 76.4604H83.0843V69.586C84.0503 69.2887 84.9287 68.7623 85.6434 68.0525C86.3581 67.3427 86.8876 66.4708 87.1861 65.5123H89.7112L89.685 76.4604ZM95.547 73.9455L93.3153 74.4963V67.4764L95.547 68.0272V73.9455Z" fill="#A4A2A0"/>
<path d="M59.4582 39.4071C59.2574 38.9901 58.9029 38.6655 58.4678 38.5002C58.0328 38.335 57.5503 38.3417 57.1201 38.5191C56.6899 38.6964 56.3448 39.0308 56.156 39.4533C55.9672 39.8757 55.9491 40.354 56.1055 40.7893L60.5897 51.5296C60.7113 51.8239 60.909 52.0812 61.1628 52.2755C61.4167 52.4698 61.7177 52.5943 62.0355 52.6364C62.114 52.6415 62.1928 52.6415 62.2713 52.6364C62.5713 52.6376 62.8669 52.565 63.1315 52.425C63.3962 52.285 63.6218 52.0821 63.7879 51.8344C63.9541 51.5866 64.0556 51.3019 64.0835 51.0057C64.1114 50.7094 64.0647 50.411 63.9477 50.137L59.4582 39.4071Z" fill="#A4A2A0"/>
</svg>
