<svg width="137" height="168" viewBox="0 0 137 168" fill="none" xmlns="http://www.w3.org/2000/svg">
<path d="M68.4996 132.859C104.644 132.859 133.946 103.795 133.946 67.944C133.946 32.0926 104.644 3.0293 68.4996 3.0293C32.3548 3.0293 3.05371 32.0926 3.05371 67.944C3.05371 103.795 32.3548 132.859 68.4996 132.859Z" stroke="#00BBB4" stroke-width="5" stroke-miterlimit="10"/>
<path d="M102.273 63.7508C102.081 62.1718 101.773 60.6088 101.351 59.0744H101.44C102.253 59.0777 103.042 59.3441 103.688 59.833C103.978 60.0453 104.328 60.16 104.688 60.1603C105.095 60.1621 105.488 60.0161 105.793 59.7499C106.098 59.4837 106.294 59.1158 106.344 58.7158C106.512 57.4927 106.345 56.2472 105.862 55.1097C105.318 53.8435 104.412 52.7634 103.256 52.0032C102.099 51.243 100.743 50.8363 99.3554 50.8334C98.8803 50.8352 98.4064 50.8839 97.941 50.9788C97.2383 49.7851 96.4633 48.6346 95.6203 47.5338C96.0815 47.335 96.579 47.2325 97.0819 47.2325C97.418 47.2318 97.7527 47.2755 98.0772 47.3624C98.2157 47.3982 98.3584 47.4156 98.5015 47.4143C98.7573 47.4149 99.0097 47.3571 99.2393 47.2454C99.4688 47.1337 99.6694 46.971 99.8254 46.7701C99.9814 46.5691 100.089 46.3352 100.139 46.0865C100.189 45.8378 100.181 45.581 100.115 45.3359C99.7296 43.8468 98.8549 42.5276 97.6292 41.5866C96.4035 40.6456 94.8967 40.1366 93.3467 40.1398C91.9497 40.1381 90.5832 40.5448 89.4178 41.3089C88.1521 40.3299 86.8181 39.4409 85.426 38.6485C86.0091 38.0442 86.7805 37.6525 87.6157 37.5366C87.9045 37.4956 88.1774 37.3801 88.4071 37.2016C88.6368 37.0232 88.8152 36.788 88.9244 36.5197C89.0337 36.2514 89.07 35.9593 89.0297 35.6727C88.9894 35.3861 88.874 35.115 88.6949 34.8866C87.9424 33.9036 86.936 33.1405 85.7822 32.6782C84.9509 32.3396 84.0616 32.1631 83.1629 32.1586C81.9949 32.1644 80.8466 32.4574 79.8208 33.0115C78.795 33.5656 77.9238 34.3634 77.2852 35.3334C75.9218 34.9788 74.538 34.7064 73.1415 34.5176C73.4539 33.7411 74.0227 33.0926 74.7549 32.6782C75.0071 32.5322 75.2163 32.3232 75.3617 32.0721C75.5071 31.8209 75.5836 31.5363 75.5836 31.2467C75.5836 30.9571 75.5071 30.6725 75.3617 30.4213C75.2163 30.1702 75.0071 29.9612 74.7549 29.8152C73.7857 29.2459 72.6927 28.9162 71.568 28.8538C70.4433 28.7914 69.32 28.9981 68.2928 29.4566C67.2656 29.9151 66.3647 30.6119 65.6659 31.4882C64.9671 32.3645 64.491 33.3946 64.2777 34.4917C62.6859 34.6829 61.1102 34.9885 59.563 35.4062C59.5494 34.5706 59.8187 33.7546 60.3278 33.0887C60.5011 32.8554 60.6105 32.5815 60.6454 32.2937C60.6803 32.006 60.6395 31.7142 60.5269 31.4467C60.4123 31.1801 60.2291 30.948 59.9956 30.7738C59.762 30.5996 59.4863 30.4894 59.1963 30.4543C58.8853 30.4147 58.5721 30.3956 58.2586 30.3971C57.3332 30.3886 56.4156 30.5653 55.5607 30.9167C54.0611 31.5491 52.8279 32.6761 52.0699 34.1069C51.3119 35.5377 51.0757 37.1843 51.4012 38.768C50.2047 39.4578 49.0518 40.2196 47.949 41.0491C47.614 40.2817 47.553 39.4238 47.7761 38.6173C47.841 38.3723 47.8483 38.1159 47.7977 37.8676C47.747 37.6193 47.6396 37.3859 47.4838 37.1852C47.328 36.9845 47.1279 36.8219 46.8989 36.7099C46.6699 36.5978 46.418 36.5393 46.1626 36.5389C46.0178 36.5379 45.8734 36.5554 45.7331 36.5909C44.5289 36.898 43.4292 37.5187 42.548 38.3887C41.3951 39.5338 40.6779 41.0397 40.5184 42.6503C40.3589 44.2608 40.767 45.8764 41.6732 47.2221C40.685 48.4797 39.787 49.8045 38.9857 51.1867C38.3797 50.6045 37.987 49.8383 37.8699 49.0095C37.8267 48.7204 37.7069 48.4479 37.5229 48.2197C37.3388 47.9915 37.0971 47.8158 36.8222 47.7105C36.6239 47.632 36.4123 47.5915 36.1988 47.591C35.8289 47.5921 35.4697 47.7145 35.1773 47.9391C34.1861 48.6867 33.4154 49.6844 32.9456 50.8282C32.3507 52.3188 32.2894 53.9667 32.7718 55.4968C33.2542 57.0269 34.2512 58.3466 35.5964 59.2354C35.2363 60.5872 34.9616 61.9599 34.7739 63.3455C33.991 63.0356 33.3372 62.4714 32.9194 61.7451C32.7722 61.495 32.5615 61.2875 32.3083 61.1433C32.0551 60.9991 31.7682 60.9232 31.4762 60.9232C31.1842 60.9232 30.8973 60.9991 30.6441 61.1433C30.3909 61.2875 30.1802 61.495 30.033 61.7451C29.459 62.7065 29.1266 63.7907 29.0637 64.9062C29.0008 66.0217 29.2093 67.1359 29.6715 68.1548C30.1337 69.1737 30.8362 70.0673 31.7196 70.7604C32.6031 71.4536 33.6417 71.9258 34.7477 72.1373C34.9405 73.7162 35.2486 75.2792 35.6697 76.8138H35.5807C34.7662 76.8127 33.9748 76.5462 33.3281 76.0552C33.0408 75.842 32.6915 75.7271 32.3327 75.7278C32.1081 75.7293 31.8858 75.7734 31.6779 75.8577C31.4088 75.9687 31.1736 76.1474 30.9953 76.3761C30.8171 76.6048 30.7021 76.8757 30.6616 77.1619C30.4939 78.3851 30.6604 79.6305 31.1435 80.768C31.6884 82.0329 32.5951 83.1115 33.7515 83.8707C34.9078 84.6298 36.2632 85.0361 37.6499 85.0392C38.1252 85.0398 38.5992 84.9911 39.0643 84.8937C39.7681 86.0947 40.5449 87.252 41.3903 88.3595C40.9287 88.5565 40.4312 88.6573 39.9287 88.6557C39.5926 88.656 39.2579 88.6123 38.9333 88.5258C38.6513 88.4544 38.3555 88.4566 38.0746 88.5322C37.7937 88.6077 37.5373 88.7541 37.3303 88.9571C37.1235 89.162 36.9745 89.4172 36.8982 89.6971C36.8219 89.977 36.821 90.2719 36.8956 90.5523C37.2794 92.0422 38.1536 93.3625 39.3796 94.3037C40.6057 95.245 42.1134 95.7534 43.6638 95.7484C45.0586 95.7465 46.4217 95.3361 47.5823 94.5688C48.8506 95.5484 50.1862 96.4391 51.5793 97.2344C50.9945 97.8355 50.2236 98.2251 49.3896 98.3412C49.1008 98.3822 48.8279 98.4977 48.5982 98.6761C48.3686 98.8546 48.1902 99.0897 48.0809 99.3581C47.9717 99.6264 47.9353 99.9185 47.9756 100.205C48.0159 100.492 48.1314 100.763 48.3105 100.991C48.9581 101.839 49.7954 102.525 50.7564 102.997C51.7173 103.469 52.7756 103.712 53.8477 103.709C55.0122 103.711 56.1592 103.427 57.1865 102.884C58.2139 102.34 59.0897 101.552 59.7359 100.591C61.0987 100.948 62.4826 101.221 63.8796 101.407C63.5653 102.182 62.997 102.83 62.2661 103.246C62.0126 103.391 61.8021 103.6 61.6557 103.851C61.5093 104.103 61.4322 104.388 61.4322 104.678C61.4322 104.968 61.5093 105.253 61.6557 105.504C61.8021 105.756 62.0126 105.964 62.2661 106.109C63.2354 106.679 64.3284 107.008 65.4531 107.071C66.5777 107.133 67.701 106.926 68.7282 106.468C69.7554 106.009 70.6564 105.313 71.3552 104.436C72.054 103.56 72.5301 102.53 72.7433 101.433C74.3347 101.242 75.9103 100.938 77.4581 100.524C77.4764 101.359 77.2086 102.176 76.6985 102.841C76.5215 103.072 76.4087 103.344 76.3715 103.632C76.3343 103.919 76.3739 104.211 76.4865 104.478C76.599 104.746 76.7804 104.979 77.0125 105.155C77.2447 105.331 77.5194 105.443 77.809 105.481C78.1217 105.522 78.4366 105.543 78.752 105.543C79.6758 105.553 80.5919 105.376 81.4446 105.023C82.9518 104.397 84.1932 103.272 84.9574 101.839C85.7216 100.406 85.9613 98.7552 85.6355 97.1669C86.8453 96.47 88.0105 95.6995 89.1244 94.8598C89.457 95.6297 89.5179 96.4883 89.2973 97.2968C89.2314 97.5419 89.2232 97.7987 89.2734 98.0474C89.3236 98.2961 89.4309 98.53 89.5869 98.731C89.7429 98.9319 89.9435 99.0946 90.1731 99.2063C90.4026 99.318 90.6551 99.3758 90.9108 99.3752C91.0539 99.3765 91.1966 99.3591 91.3351 99.3233C92.5423 99.0196 93.6445 98.3985 94.5254 97.5254C95.6736 96.383 96.388 94.8819 96.5474 93.2766C96.7069 91.6713 96.3016 90.0607 95.4003 88.7181C96.3885 87.4605 97.2865 86.1357 98.0877 84.7534C98.6937 85.3336 99.0865 86.0981 99.2035 86.9254C99.2602 87.3184 99.4576 87.6781 99.7596 87.9385C100.062 88.199 100.448 88.3429 100.848 88.3439C101.227 88.3493 101.596 88.2286 101.896 88.001C102.787 87.3205 103.5 86.437 103.974 85.4254C104.448 84.4137 104.669 83.3036 104.619 82.1892C104.568 81.0747 104.248 79.9888 103.685 79.0232C103.121 78.0577 102.332 77.241 101.383 76.6423C101.74 75.2882 102.014 73.9139 102.205 72.527C102.987 72.8387 103.64 73.4025 104.06 74.1274C104.207 74.3776 104.418 74.5851 104.671 74.7293C104.924 74.8735 105.211 74.9494 105.503 74.9494C105.795 74.9494 106.082 74.8735 106.335 74.7293C106.588 74.5851 106.799 74.3776 106.946 74.1274C107.519 73.1658 107.85 72.0818 107.913 70.9667C107.975 69.8515 107.766 68.7378 107.304 67.7193C106.842 66.7009 106.14 65.8074 105.257 65.114C104.375 64.4207 103.337 63.9479 102.231 63.7352L102.273 63.7508ZM100.875 68.9469H100.738C100.323 68.9532 99.9242 69.1125 99.6202 69.3938C99.3162 69.6751 99.1285 70.0585 99.0935 70.4694C98.912 72.668 98.4905 74.8406 97.8362 76.9489C97.7112 77.351 97.7451 77.7851 97.9309 78.1634C98.1167 78.5416 98.4406 78.8356 98.8368 78.9858L98.994 79.0377C99.787 79.3811 100.435 79.987 100.828 80.7518C101.221 81.5165 101.333 82.3928 101.147 83.231C100.385 82.1923 99.3454 81.3859 98.1453 80.9031L98.0301 80.8616H97.9829C97.7975 80.7908 97.6002 80.7555 97.4015 80.7576C97.0927 80.7568 96.7897 80.8409 96.5261 81.0005C96.2626 81.1601 96.0488 81.389 95.9084 81.6618C94.8281 83.7925 93.5007 85.7909 91.9533 87.6165C91.6807 87.9351 91.5399 88.3444 91.5593 88.7619C91.5788 89.1794 91.757 89.574 92.0581 89.8664L92.2047 89.9963C92.7939 90.6189 93.1489 91.4237 93.21 92.2755C93.271 93.1272 93.0344 93.9738 92.54 94.6728C92.2434 93.4229 91.6033 92.2789 90.6908 91.3681L90.6017 91.2901C90.4463 91.1338 90.2612 91.0097 90.0571 90.925C89.8529 90.8402 89.6339 90.7966 89.4126 90.7965C89.018 90.7972 88.6361 90.9351 88.3334 91.1862C86.6368 92.6146 84.7869 93.8535 82.8172 94.8806C82.4413 95.0774 82.1551 95.4089 82.0169 95.8075C81.8787 96.2062 81.8989 96.6421 82.0733 97.0266C82.0966 97.0766 82.1228 97.1252 82.1518 97.1721C82.4712 97.9721 82.4995 98.8575 82.2318 99.6759C81.9641 100.494 81.4171 101.195 80.685 101.656C80.884 100.386 80.7244 99.0856 80.224 97.8995L80.1874 97.8216L80.1507 97.7541C80.0186 97.4642 79.805 97.2184 79.5355 97.0461C79.2661 96.8737 78.9522 96.7821 78.6315 96.7824C78.4535 96.7816 78.2765 96.8097 78.1077 96.8655C75.8249 97.6085 73.4616 98.0812 71.067 98.2737C70.6451 98.3103 70.2526 98.5035 69.9681 98.8146C69.6835 99.1257 69.5278 99.5319 69.5321 99.952C69.5321 99.9936 69.5321 100.066 69.5321 100.129C69.5176 100.997 69.1941 101.831 68.6189 102.486C68.0437 103.14 67.2538 103.571 66.3889 103.704C67.0725 102.602 67.4351 101.334 67.4366 100.04C67.4366 100.04 67.4366 99.9624 67.4366 99.9052C67.4304 99.4937 67.2706 99.0991 66.988 98.7977C66.7055 98.4964 66.3203 98.3096 65.907 98.2737C63.6882 98.0968 61.4958 97.6786 59.3691 97.0266C59.2093 96.9792 59.0435 96.9547 58.8767 96.9538C58.5398 96.9504 58.2097 97.0476 57.9293 97.233C57.649 97.4184 57.4315 97.6833 57.3051 97.9931L57.258 98.149C56.8774 99.0212 56.1716 99.7137 55.2883 100.082C54.5746 100.385 53.7829 100.458 53.0252 100.29C54.0701 99.5317 54.8825 98.501 55.3721 97.3124C55.3721 97.3124 55.3721 97.2448 55.414 97.1929C55.5614 96.8104 55.5622 96.3877 55.4165 96.0046C55.2707 95.6216 54.9884 95.3049 54.623 95.1144C52.4777 94.0373 50.4664 92.7154 48.63 91.1758C48.3093 90.9042 47.8964 90.7638 47.4751 90.7831C47.0539 90.8024 46.6558 90.98 46.3617 91.2797L46.2307 91.4252C45.6031 92.0096 44.7916 92.3617 43.9329 92.4223C43.0742 92.4828 42.2207 92.2482 41.516 91.7578C42.7756 91.4622 43.9286 90.8275 44.8477 89.9235L44.9263 89.8352C45.2252 89.5416 45.4019 89.1473 45.4213 88.7305C45.4407 88.3138 45.3014 87.905 45.0311 87.5853C43.591 85.9025 42.342 84.0676 41.3064 82.1138C41.1645 81.8472 40.9519 81.6241 40.6916 81.4685C40.4313 81.3128 40.1331 81.2305 39.8292 81.2305C39.5928 81.2322 39.3593 81.2817 39.1429 81.376L38.9962 81.4539C38.5594 81.6257 38.0936 81.7139 37.6237 81.7137C37.1444 81.712 36.6699 81.6203 36.225 81.4435C35.5071 81.1548 34.8975 80.6518 34.4805 80.0042C34.8274 80.055 35.1776 80.081 35.5282 80.0821C36.4571 80.0913 37.3782 79.9145 38.2366 79.5625L38.3099 79.5262L38.3833 79.4898C38.7588 79.3217 39.0582 79.0215 39.2237 78.6472C39.3891 78.273 39.4089 77.8512 39.2791 77.4633C38.5325 75.1985 38.0561 72.8546 37.8594 70.4798C37.823 70.0667 37.6327 69.6818 37.3257 69.4003C37.0186 69.1189 36.6169 68.9609 36.1988 68.9573H36.1412H35.9892C35.123 68.9356 34.2914 68.6158 33.6367 68.0527C32.9821 67.4896 32.5452 66.7183 32.4008 65.8708C33.5037 66.5448 34.7725 66.9043 36.0678 66.9101H36.2093C36.6236 66.9038 37.0208 66.7451 37.3238 66.4647C37.6268 66.1844 37.8139 65.8023 37.8489 65.3928C38.0273 63.1921 38.4489 61.0175 39.1062 58.9081C39.2312 58.506 39.1974 58.0718 39.0116 57.6936C38.8258 57.3154 38.5019 57.0214 38.1057 56.8712L37.9485 56.8244C37.1538 56.4817 36.5042 55.8752 36.1113 55.109C35.7184 54.3429 35.6067 53.4649 35.7954 52.626C36.5643 53.6668 37.6087 54.4761 38.8129 54.9642H38.8757H38.9543C39.1415 55.0359 39.3404 55.0729 39.541 55.0734C39.8505 55.0743 40.1541 54.9897 40.4178 54.8291C40.6815 54.6685 40.8949 54.4382 41.034 54.164C42.12 52.0361 43.4527 50.0412 45.0049 48.2197C45.2775 47.9011 45.4183 47.4918 45.3989 47.0743C45.3794 46.6568 45.2012 46.2622 44.9001 45.9698L44.7535 45.8399C44.1616 45.2188 43.8048 44.4136 43.7437 43.5611C43.6825 42.7086 43.9209 41.8614 44.4182 41.1634C44.7148 42.4133 45.3549 43.5573 46.2674 44.4681C46.2955 44.4958 46.3253 44.5219 46.3565 44.5461C46.5097 44.7071 46.6938 44.836 46.898 44.9252C47.1023 45.0145 47.3225 45.0622 47.5456 45.0657C47.9585 45.0807 48.3627 44.9458 48.6824 44.6864C50.3803 43.2597 52.23 42.0209 54.1986 40.992C54.5745 40.7952 54.8604 40.4634 54.9977 40.0645C55.135 39.6655 55.1134 39.2296 54.9373 38.846C54.917 38.7972 54.8924 38.7503 54.864 38.7057C54.5446 37.9057 54.5163 37.0203 54.784 36.2018C55.0517 35.3834 55.5987 34.6831 56.3308 34.2215C56.1363 35.4907 56.2976 36.7886 56.797 37.973L56.8337 38.051L56.8704 38.1237C57.0035 38.4127 57.2173 38.6579 57.4866 38.8301C57.7558 39.0023 58.0692 39.0943 58.3895 39.0954C58.5673 39.0935 58.7439 39.0655 58.9134 39.0123C61.1959 38.2676 63.5592 37.7932 65.9541 37.5989C66.3755 37.5635 66.7679 37.3714 67.0526 37.0611C67.3373 36.7508 67.4931 36.3453 67.489 35.9258C67.489 35.879 67.489 35.8063 67.489 35.7439C67.5109 34.8847 67.8333 34.0598 68.401 33.4105C68.9687 32.7611 69.7463 32.3278 70.6007 32.1846C69.921 33.2784 69.5585 34.537 69.553 35.8219C69.553 35.8219 69.553 35.905 69.553 35.9569C69.5592 36.3685 69.719 36.7631 70.0016 37.0644C70.2842 37.3658 70.6693 37.5526 71.0827 37.5885C73.301 37.7681 75.4932 38.1862 77.6205 38.8356C77.7811 38.8879 77.9491 38.9143 78.1181 38.9135C78.4587 38.9146 78.7915 38.8127 79.0722 38.6215C79.353 38.4303 79.5684 38.1588 79.6897 37.8431C79.6897 37.8068 79.7211 37.7444 79.7369 37.6872C80.0298 37.0275 80.5094 36.4663 81.1175 36.0715C81.7256 35.6768 82.4361 35.4655 83.1629 35.4633C83.4343 35.4616 83.7051 35.4912 83.9697 35.5517C82.9225 36.3073 82.1095 37.3387 81.6228 38.529C81.6066 38.5681 81.5926 38.608 81.5809 38.6485C81.4311 39.0307 81.4291 39.4544 81.5751 39.838C81.7211 40.2216 82.0049 40.5382 82.3719 40.727C84.5073 41.8127 86.5079 43.1415 88.3334 44.6864C88.6541 44.958 89.067 45.0984 89.4883 45.0791C89.9095 45.0598 90.3076 44.8822 90.6017 44.5825L90.7327 44.437C91.3603 43.8526 92.1718 43.5005 93.0305 43.4399C93.8892 43.3793 94.7427 43.614 95.4474 44.1044C94.1882 44.4009 93.0355 45.0355 92.1157 45.9386L92.0371 46.027C91.7371 46.32 91.5597 46.7144 91.5403 47.1316C91.5209 47.5487 91.6609 47.9577 91.9323 48.2769C93.3712 49.9606 94.6202 51.7953 95.657 53.7484C95.798 54.0157 96.0104 54.2394 96.2709 54.3952C96.5314 54.551 96.8301 54.6328 97.1343 54.6317C97.3706 54.63 97.6041 54.5805 97.8205 54.4862L97.9672 54.4135C98.4033 54.2386 98.8693 54.1487 99.3397 54.1485C99.9666 54.1526 100.583 54.3121 101.131 54.6125C101.68 54.9129 102.145 55.3446 102.483 55.8684C102.136 55.8205 101.786 55.7962 101.435 55.7956C100.448 55.7963 99.4713 55.9961 98.5644 56.3828C98.1817 56.5464 97.8748 56.8463 97.7041 57.2234C97.5334 57.6005 97.5114 58.0273 97.6424 58.4196C98.3932 60.6837 98.8715 63.0278 99.0673 65.4032C99.1026 65.8168 99.2926 66.2023 99.5998 66.484C99.9071 66.7657 100.31 66.9232 100.728 66.9256H100.938C101.803 66.9494 102.634 67.2698 103.288 67.8326C103.942 68.3953 104.38 69.1655 104.526 70.0121C103.424 69.3361 102.155 68.9747 100.859 68.9677L100.875 68.9469Z" fill="#A4A2A0"/>
<path d="M68.4997 56.9232C66.3022 56.9232 64.154 57.5696 62.3268 58.7806C60.4996 59.9916 59.0754 61.7128 58.2345 63.7266C57.3935 65.7404 57.1734 67.9564 57.6022 70.0942C58.0309 72.232 59.0891 74.1958 60.643 75.7371C62.1969 77.2784 64.1768 78.328 66.3321 78.7533C68.4874 79.1785 70.7215 78.9603 72.7518 78.1261C74.7821 77.292 76.5174 75.8794 77.7383 74.067C78.9592 72.2546 79.6108 70.1238 79.6108 67.9441C79.6081 65.022 78.4365 62.2204 76.3534 60.1542C74.2703 58.088 71.4457 56.926 68.4997 56.9232ZM68.4997 75.6551C66.9622 75.6551 65.4592 75.2029 64.1807 74.3556C62.9023 73.5083 61.9058 72.304 61.3174 70.895C60.729 69.486 60.5751 67.9356 60.8751 66.4398C61.175 64.944 61.9154 63.57 63.0026 62.4916C64.0899 61.4132 65.4751 60.6788 66.9831 60.3813C68.4911 60.0838 70.0542 60.2365 71.4748 60.8201C72.8953 61.4037 74.1095 62.3921 74.9637 63.6601C75.8179 64.9282 76.2738 66.419 76.2738 67.9441C76.2725 69.9888 75.4529 71.9493 73.9953 73.3951C72.5377 74.8409 70.5611 75.6537 68.4997 75.6551Z" fill="#A4A2A0"/>
<path d="M68.5 50.2358C64.9677 50.2358 61.5148 51.2748 58.5779 53.2215C55.6409 55.1681 53.352 57.9348 52.0005 61.1719C50.649 64.4089 50.2956 67.9707 50.9851 71.4069C51.6746 74.8432 53.376 77.9994 55.8741 80.4765C58.3721 82.9535 61.5547 84.6402 65.0192 85.3231C68.4838 86.006 72.0746 85.6544 75.3377 84.3129C78.6009 82.9714 81.3896 80.7003 83.3513 77.7866C85.3129 74.873 86.3595 71.4477 86.3584 67.9441C86.3529 63.2484 84.4694 58.7466 81.1213 55.4267C77.7733 52.1068 73.2342 50.24 68.5 50.2358ZM68.5 82.3477C65.6291 82.3425 62.8241 81.4934 60.4395 79.9076C58.0549 78.3218 56.1977 76.0705 55.1027 73.4381C54.0076 70.8058 53.7238 67.9105 54.287 65.1182C54.8503 62.3259 56.2354 59.7619 58.2673 57.7501C60.2992 55.7383 62.8867 54.3691 65.7028 53.8154C68.519 53.2618 71.4374 53.5485 74.0893 54.6395C76.7412 55.7304 79.0076 57.5765 80.6021 59.9446C82.1966 62.3127 83.0476 65.0965 83.0476 67.9441C83.0434 71.7674 81.5086 75.4325 78.7805 78.1336C76.0525 80.8346 72.3546 82.3504 68.5 82.3477Z" fill="#A4A2A0"/>
<path d="M52.9889 49.1966C52.9945 48.9757 52.9554 48.7559 52.8739 48.5503C52.7923 48.3447 52.67 48.1573 52.5142 47.9994C52.3584 47.8415 52.1722 47.7161 51.9667 47.6308C51.7612 47.5455 51.5406 47.5019 51.3178 47.5027C50.8886 47.5022 50.4757 47.666 50.1653 47.96C47.1929 50.7674 44.8339 54.1507 43.2346 57.9001C43.0871 58.2997 43.1003 58.7404 43.2714 59.1307C43.4424 59.521 43.7583 59.8311 44.1536 59.9967C44.5488 60.1623 44.9931 60.1708 45.3945 60.0204C45.7959 59.87 46.1236 59.5722 46.3097 59.1887C47.7252 55.8559 49.8189 52.8487 52.4598 50.3554C52.6213 50.2068 52.7512 50.0278 52.8421 49.8289C52.9329 49.6299 52.9829 49.415 52.9889 49.1966Z" fill="#A4A2A0"/>
<path d="M43.622 61.0905C43.4801 61.0533 43.334 61.0341 43.1872 61.0333C42.8206 61.0345 42.4646 61.1551 42.174 61.3767C41.8834 61.5983 41.6743 61.9085 41.579 62.2596C40.9376 64.6333 40.5962 67.0769 40.5627 69.5341C40.5596 69.7511 40.5996 69.9666 40.6804 70.1682C40.7613 70.3699 40.8814 70.5538 41.0339 70.7094C41.1864 70.865 41.3683 70.9893 41.5692 71.0751C41.7702 71.161 41.9862 71.2068 42.2049 71.2099C42.4237 71.2129 42.641 71.1732 42.8443 71.093C43.0476 71.0128 43.2329 70.8937 43.3898 70.7424C43.5467 70.5912 43.672 70.4107 43.7586 70.2114C43.8452 70.0121 43.8913 69.7979 43.8944 69.5809C43.9276 67.3972 44.2338 65.2259 44.8059 63.117C44.9195 62.6925 44.8586 62.2407 44.6366 61.8608C44.4146 61.4809 44.0497 61.2038 43.622 61.0905Z" fill="#A4A2A0"/>
<path d="M45.6126 165.786L43.4019 168H37.4718L34.8525 165.459V157.442L37.4352 154.901H43.25L45.4607 157.114L43.8891 158.637L42.1813 156.943H38.5196L37.1785 158.268V164.617L38.5196 165.942H42.3752L44.083 164.248L45.6126 165.786Z" fill="white"/>
<path d="M59.9611 157.442V165.444L57.3784 168H51.2493L48.6719 165.459V157.442L51.2493 154.901H57.3784L59.9611 157.442ZM57.6718 164.617V158.283L56.3307 156.958H52.297L50.9611 158.283V164.633L52.297 165.958H56.3307L57.6718 164.617Z" fill="white"/>
<path d="M72.8012 168L69.9514 162.882H66.2844V168H63.9951V154.916H72.6074L74.7028 156.995V160.746L72.6074 162.861H72.4502L75.3577 167.979L72.8012 168ZM66.2844 160.845H71.523L72.4136 159.956V157.821L71.523 156.958H66.2844V160.845Z" fill="white"/>
<path d="M88.7363 156.958H84.4145V168H82.1252V156.958H77.8086V154.916H88.7259L88.7363 156.958Z" fill="white"/>
<path d="M94.4367 156.958V160.398H101.441V162.419H94.4367V165.958H102.431V168H92.1475V154.916H102.431V156.958H94.4367Z" fill="white"/>
</svg>
