<svg width="137" height="172" viewBox="0 0 137 172" fill="none" xmlns="http://www.w3.org/2000/svg">
<path d="M68.4996 133.967C104.644 133.967 133.946 104.661 133.946 68.5108C133.946 32.3603 104.644 3.05457 68.4996 3.05457C32.3548 3.05457 3.05371 32.3603 3.05371 68.5108C3.05371 104.661 32.3548 133.967 68.4996 133.967Z" stroke="#00BBB4" stroke-width="5" stroke-miterlimit="10"/>
<path d="M21.1327 172L19.2101 169.38H14.4954L11.918 166.818V158.755L14.4954 156.193H20.6246L23.2019 158.755V166.823L21.3789 168.626L23.8777 171.984L21.1327 172ZM15.5483 167.342H19.582L20.9179 166.006V159.604L19.582 158.267H15.5483L14.2073 159.604V166.006L15.5483 167.342Z" fill="white"/>
<path d="M37.6917 156.208V166.839L35.1142 169.401H29.6452L27.0625 166.839V156.208H29.3675V166.006L30.7086 167.342H34.0822L35.5176 165.907V156.208H37.6917Z" fill="white"/>
<path d="M45.9897 158.267V167.342H48.4151V169.401H41.2959V167.342H43.7004V158.267H41.2959V156.208H48.4151V158.267H45.9897Z" fill="white"/>
<path d="M63.094 156.208V169.401H61.2133L54.3665 159.897V169.401H52.1768V156.208H54.2722L60.8886 165.383V156.208H63.094Z" fill="white"/>
<path d="M75.7558 166.451H69.899L68.7727 169.401H66.4258L71.743 156.208H74.0113L79.3442 169.401H76.882L75.7558 166.451ZM74.9438 164.413L72.8483 158.828L70.7162 164.413H74.9438Z" fill="white"/>
<path d="M93.3987 161.736V169.401H91.6543L91.5024 167.693L89.7737 169.401H84.7132L82.1357 166.839V158.755L84.7132 156.193H90.8423L92.9901 158.367L91.4185 159.897L89.7737 158.252H85.7399L84.3989 159.588V165.99L85.7399 167.326H89.2498L91.0937 165.487V163.779H87.7358V161.72L93.3987 161.736Z" fill="white"/>
<path d="M99.6643 158.267V161.736H106.663V163.774H99.6643V167.342H107.632V169.401H97.375V156.208H107.632V158.267H99.6643Z" fill="white"/>
<path d="M124.736 169.401H122.447V160.264L118.57 167.457H117.444L113.583 160.327V169.427H111.394V156.208H113.709L118.089 164.377L122.473 156.208H124.762L124.736 169.401Z" fill="white"/>
<path d="M57.1323 36.1521C56.7341 36.5493 56.5099 37.0882 56.5089 37.6506V64.2145C56.5114 64.7781 56.7353 65.3182 57.1323 65.7182L63.3871 71.9741V72.3933C63.3882 72.9556 63.6124 73.4946 64.0106 73.8917L66.8289 76.7158C67.226 77.114 67.7649 77.3382 68.3272 77.3393C68.8894 77.3382 69.4283 77.114 69.8254 76.7158L73.3353 73.2106C73.7189 72.8267 73.9412 72.3106 73.9568 71.7681C73.9724 71.2255 73.78 70.6976 73.4191 70.2923C71.4153 68.0437 70.3576 65.1078 70.467 62.0977C70.5763 59.0877 71.8442 56.2363 74.0058 54.1391C74.2082 53.9401 74.369 53.7028 74.4787 53.441C74.5884 53.1793 74.645 52.8983 74.6449 52.6144V40.4223C74.6456 40.1432 74.5913 39.8667 74.4849 39.6086C74.3786 39.3506 74.2224 39.116 74.0254 38.9184C73.8283 38.7208 73.5941 38.564 73.3364 38.4571C73.0786 38.3501 72.8023 38.295 72.5233 38.295H67.6933V23.9285C67.6968 23.6489 67.6443 23.3714 67.5389 23.1123C67.4336 22.8533 67.2774 22.618 67.0797 22.4202C66.882 22.2225 66.6467 22.0663 66.3877 21.9609C66.1287 21.8555 65.8512 21.803 65.5716 21.8066H58.62C58.3409 21.8059 58.0645 21.8603 57.8065 21.9666C57.5485 22.0729 57.314 22.2291 57.1164 22.4262C56.9188 22.6233 56.7621 22.8575 56.6551 23.1153C56.5482 23.3731 56.4932 23.6494 56.4932 23.9285V33.2862C56.4996 33.8328 56.7168 34.3558 57.0993 34.7463C57.4819 35.1367 58.0004 35.3644 58.5467 35.3819V35.5077C58.01 35.5332 57.5037 35.7639 57.1323 36.1521ZM60.7574 26.0453H63.4186V40.4223C63.4254 40.976 63.6483 41.5051 64.0398 41.8967C64.4313 42.2882 64.9604 42.5112 65.514 42.518H70.344V51.7604C67.9097 54.4136 66.4462 57.8136 66.1922 61.4056C65.9382 64.9976 66.9087 68.5697 68.9453 71.5392L68.2695 72.2151L67.6095 71.5183V71.0991C67.6092 70.535 67.385 69.9942 66.9861 69.5954L60.7312 63.3395V39.7621C61.2787 39.7498 61.7996 39.5235 62.1825 39.1318C62.5653 38.7401 62.7796 38.2141 62.7795 37.6663V33.2862C62.7865 32.7339 62.5753 32.2011 62.1917 31.8038C61.8082 31.4064 61.2833 31.1766 60.7312 31.1642L60.7574 26.0453Z" fill="#A4A2A0"/>
<path d="M91.2514 84.7426V68.7885C91.2445 68.2303 91.018 67.6973 90.6208 67.305C90.2237 66.9127 89.6879 66.6927 89.1297 66.6927H87.0343C86.472 66.6938 85.9331 66.9181 85.5361 67.3162L68.5158 84.3339L51.5061 67.3162C51.1074 66.9173 50.5666 66.693 50.0026 66.6927H47.9072C47.3485 66.6927 46.8122 66.9125 46.4143 67.3046C46.0163 67.6968 45.7885 68.2298 45.7803 68.7885V82.1648C45.7805 82.7289 46.0048 83.2698 46.4037 83.6685L52.1662 89.4319L46.4037 95.1952C46.0056 95.5924 45.7813 96.1313 45.7803 96.6937V110.07C45.7803 110.349 45.8354 110.625 45.9423 110.883C46.0493 111.141 46.206 111.375 46.4036 111.572C46.6011 111.769 46.8356 111.926 47.0936 112.032C47.3516 112.138 47.6281 112.193 47.9072 112.192H57.1324C57.6963 112.192 58.2372 111.967 58.6358 111.568L68.4897 101.713L78.3487 111.568C78.7458 111.967 79.2847 112.191 79.8469 112.192H89.1245C89.4041 112.195 89.6816 112.143 89.9406 112.038C90.1996 111.932 90.4349 111.776 90.6326 111.578C90.8303 111.381 90.9865 111.145 91.0919 110.886C91.1972 110.627 91.2497 110.35 91.2462 110.07V94.1107C91.2473 93.5473 91.025 93.0066 90.628 92.607L87.4429 89.4266L90.628 86.2411C90.8263 86.0453 90.9836 85.8119 91.0906 85.5546C91.1977 85.2973 91.2523 85.0213 91.2514 84.7426ZM87.0081 83.8624L84.1845 86.6812C83.4603 87.4113 83.0539 88.3981 83.0539 89.4266C83.0539 90.4551 83.4603 91.442 84.1845 92.1721L87.0081 94.9909V107.932H80.7218L71.2295 98.4384C70.5008 97.7115 69.5136 97.3033 68.4844 97.3033C67.4553 97.3033 66.4681 97.7115 65.7394 98.4384L56.2575 107.932H49.9712V97.5635L55.3617 92.1721C56.0885 91.4433 56.4967 90.456 56.4967 89.4266C56.4967 88.3973 56.0885 87.41 55.3617 86.6812L49.9712 81.2898V71.7802L65.7342 87.5509C66.4626 88.2762 67.4487 88.6835 68.4766 88.6835C69.5045 88.6835 70.4905 88.2762 71.219 87.5509L86.9924 71.7802L87.0081 83.8624Z" fill="#A4A2A0"/>
<path d="M78.0237 69.1604C78.5338 69.1601 79.0231 68.9587 79.3857 68.5998L84.5719 63.4076C84.9057 63.0419 85.0855 62.5615 85.074 62.0665C85.0625 61.5715 84.8605 61.1 84.5101 60.7502C84.1597 60.4005 83.6879 60.1994 83.193 60.1888C82.698 60.1782 82.2181 60.359 81.8531 60.6935L76.6669 65.8806C76.3991 66.1495 76.2169 66.4916 76.1431 66.8639C76.0694 67.2362 76.1074 67.622 76.2525 67.9727C76.3975 68.3234 76.6431 68.6233 76.9583 68.8347C77.2735 69.0461 77.6442 69.1594 78.0237 69.1604Z" fill="#A4A2A0"/>
</svg>
