<svg width="137" height="137" viewBox="0 0 137 137" fill="none" xmlns="http://www.w3.org/2000/svg">
<path d="M68.5001 134.441C104.645 134.441 133.946 105.031 133.946 68.753C133.946 32.4747 104.645 3.06543 68.5001 3.06543C32.3553 3.06543 3.0542 32.4747 3.0542 68.753C3.0542 105.031 32.3553 134.441 68.5001 134.441Z" stroke="#00BBB4" stroke-width="5" stroke-miterlimit="10"/>
<path d="M100.335 93.7124H40.615C40.0496 93.7124 39.5072 93.9379 39.1074 94.3392C38.7075 94.7405 38.4829 95.2848 38.4829 95.8524V104.843C38.4829 105.411 38.7075 105.955 39.1074 106.357C39.5072 106.758 40.0496 106.983 40.615 106.983C41.1805 106.983 41.7228 106.758 42.1227 106.357C42.5225 105.955 42.7471 105.411 42.7471 104.843V98.0081H98.203V104.843C98.203 105.411 98.4276 105.955 98.8275 106.357C99.2273 106.758 99.7696 106.983 100.335 106.983C100.901 106.983 101.443 106.758 101.843 106.357C102.243 105.955 102.467 105.411 102.467 104.843V95.8524C102.467 95.5714 102.412 95.2931 102.305 95.0335C102.198 94.7738 102.041 94.5379 101.843 94.3392C101.645 94.1405 101.41 93.9828 101.151 93.8753C100.892 93.7678 100.615 93.7124 100.335 93.7124V93.7124Z" fill="#A4A2A0"/>
<path d="M49.0489 78.7799C48.8506 78.9786 48.6933 79.2147 48.5859 79.4745C48.4786 79.7343 48.4233 80.0129 48.4233 80.2941C48.4233 80.5754 48.4786 80.854 48.5859 81.1138C48.6933 81.3736 48.8506 81.6097 49.0489 81.8084L59.5733 92.3717C59.7714 92.5705 60.0066 92.7283 60.2655 92.8359C60.5243 92.9435 60.8018 92.9989 61.082 92.9989C61.3622 92.9989 61.6396 92.9435 61.8985 92.8359C62.1574 92.7283 62.3926 92.5705 62.5907 92.3717C62.7888 92.1728 62.946 91.9367 63.0532 91.6769C63.1605 91.4171 63.2156 91.1386 63.2156 90.8574C63.2156 90.5761 63.1605 90.2977 63.0532 90.0378C62.946 89.778 62.7888 89.5419 62.5907 89.3431L52.0663 78.7799C51.8683 78.5808 51.6331 78.4229 51.3743 78.3152C51.1154 78.2074 50.8379 78.152 50.5576 78.152C50.2774 78.152 49.9999 78.2074 49.741 78.3152C49.4821 78.4229 49.2469 78.5808 49.0489 78.7799V78.7799Z" fill="#A4A2A0"/>
<path d="M86.3898 82.2659L80.6274 88.0497C80.2272 88.4513 80.0024 88.996 80.0024 89.5639C80.0024 90.1319 80.2272 90.6766 80.6274 91.0782C81.0275 91.4798 81.5702 91.7055 82.1361 91.7055C82.702 91.7055 83.2447 91.4798 83.6448 91.0782L89.4073 85.2945C89.6054 85.0956 89.7626 84.8596 89.8698 84.5997C89.977 84.3399 90.0322 84.0614 90.0322 83.7802C90.0322 83.499 89.977 83.2205 89.8698 82.9607C89.7626 82.7009 89.6054 82.4648 89.4073 82.2659C89.2091 82.0671 88.9739 81.9093 88.7151 81.8017C88.4562 81.6941 88.1787 81.6387 87.8986 81.6387C87.6184 81.6387 87.3409 81.6941 87.082 81.8017C86.8232 81.9093 86.588 82.0671 86.3898 82.2659Z" fill="#A4A2A0"/>
<path d="M43.0196 72.7069C42.8213 72.9057 42.664 73.1417 42.5566 73.4016C42.4493 73.6614 42.394 73.9399 42.394 74.2212C42.394 74.5025 42.4493 74.781 42.5566 75.0409C42.664 75.3007 42.8213 75.5368 43.0196 75.7355L43.6378 76.3612C43.8359 76.5601 44.0711 76.7178 44.33 76.8254C44.5888 76.9331 44.8663 76.9884 45.1465 76.9884C45.4267 76.9884 45.7041 76.9331 45.963 76.8254C46.2219 76.7178 46.4571 76.5601 46.6552 76.3612C46.8533 76.1624 47.0105 75.9263 47.1177 75.6665C47.2249 75.4066 47.2801 75.1282 47.2801 74.8469C47.2801 74.5657 47.2249 74.2872 47.1177 74.0274C47.0105 73.7676 46.8533 73.5315 46.6552 73.3326L46.037 72.7122C45.6371 72.3108 45.095 72.0849 44.5294 72.0839C43.9638 72.0829 43.4209 72.3069 43.0196 72.7069V72.7069Z" fill="#A4A2A0"/>
<path d="M54.8273 59.8827C54.8266 60.2293 54.9111 60.5706 55.0735 60.8765V60.8765L59.6154 69.4206C59.7968 69.7633 60.0677 70.05 60.3989 70.25C60.7302 70.4501 61.1094 70.556 61.496 70.5564H64.0577V83.6013C64.0577 84.1689 64.2824 84.7132 64.6822 85.1145C65.0821 85.5158 65.6244 85.7413 66.1898 85.7413H68.3272V89.5954C68.3272 90.1629 68.5518 90.7073 68.9517 91.1086C69.3515 91.5099 69.8938 91.7354 70.4593 91.7354C71.0248 91.7354 71.5671 91.5099 71.9669 91.1086C72.3668 90.7073 72.5914 90.1629 72.5914 89.5954V85.7045H74.7235C75.289 85.7045 75.8313 85.479 76.2312 85.0777C76.631 84.6764 76.8556 84.1321 76.8556 83.5645V70.5774H79.4173C79.8041 70.5776 80.1835 70.4719 80.5149 70.2718C80.8463 70.0717 81.117 69.7847 81.298 69.4417L85.8399 60.8975L85.8818 60.8029C86.0206 60.5181 86.0923 60.205 86.0913 59.888V42.4684H91.9219C92.4878 42.467 93.0301 42.2404 93.4298 41.8382C93.8295 41.436 94.054 40.8912 94.054 40.3232V36.0432C94.054 35.4756 93.8294 34.9313 93.4295 34.53C93.0297 34.1287 92.4873 33.9032 91.9219 33.9032C91.3564 33.9032 90.8141 34.1287 90.4142 34.53C90.0144 34.9313 89.7898 35.4756 89.7898 36.0432V38.1832H31.7879C31.24 38.2104 30.7236 38.448 30.3454 38.8469C29.9673 39.2457 29.7563 39.7752 29.7563 40.3258C29.7563 40.8764 29.9673 41.4059 30.3454 41.8047C30.7236 42.2035 31.24 42.4411 31.7879 42.4684H54.8378L54.8273 59.8827ZM72.6019 81.4403H68.3377V70.5879H72.6019V81.4403ZM78.1443 66.3079H62.79L60.5112 62.0437H80.4179L78.1443 66.3079ZM59.0915 42.4684H81.848V57.7164H59.0915V42.4684Z" fill="#A4A2A0"/>
</svg>
