<svg width="137" height="168" viewBox="0 0 137 168" fill="none" xmlns="http://www.w3.org/2000/svg">
<path d="M68.4996 132.859C104.644 132.859 133.946 103.795 133.946 67.944C133.946 32.0926 104.644 3.0293 68.4996 3.0293C32.3548 3.0293 3.05371 32.0926 3.05371 67.944C3.05371 103.795 32.3548 132.859 68.4996 132.859Z" stroke="#00BBB4" stroke-width="5" stroke-miterlimit="10"/>
<path d="M100.335 92.6099H40.6145C40.0491 92.6099 39.5068 92.8327 39.1069 93.2293C38.7071 93.6259 38.4824 94.1638 38.4824 94.7247V103.61C38.4824 104.171 38.7071 104.709 39.1069 105.105C39.5068 105.502 40.0491 105.725 40.6145 105.725C41.18 105.725 41.7223 105.502 42.1222 105.105C42.522 104.709 42.7466 104.171 42.7466 103.61V96.8551H98.2025V103.61C98.2025 104.171 98.4271 104.709 98.827 105.105C99.2268 105.502 99.7692 105.725 100.335 105.725C100.9 105.725 101.442 105.502 101.842 105.105C102.242 104.709 102.467 104.171 102.467 103.61V94.7247C102.467 94.447 102.412 94.172 102.304 93.9154C102.197 93.6588 102.04 93.4257 101.842 93.2293C101.644 93.0329 101.409 92.8771 101.151 92.7708C100.892 92.6646 100.615 92.6099 100.335 92.6099Z" fill="#A4A2A0"/>
<path d="M49.0494 77.853C48.8511 78.0495 48.6938 78.2827 48.5864 78.5395C48.4791 78.7963 48.4238 79.0715 48.4238 79.3495C48.4238 79.6275 48.4791 79.9027 48.5864 80.1595C48.6938 80.4163 48.8511 80.6496 49.0494 80.846L59.5738 91.2849C59.7719 91.4814 60.0071 91.6373 60.266 91.7437C60.5248 91.85 60.8023 91.9048 61.0825 91.9048C61.3627 91.9048 61.6401 91.85 61.899 91.7437C62.1579 91.6373 62.3931 91.4814 62.5912 91.2849C62.7893 91.0884 62.9465 90.8551 63.0537 90.5983C63.1609 90.3416 63.2161 90.0664 63.2161 89.7885C63.2161 89.5105 63.1609 89.2353 63.0537 88.9786C62.9465 88.7218 62.7893 88.4885 62.5912 88.292L52.0668 77.853C51.8688 77.6563 51.6336 77.5003 51.3748 77.3938C51.1159 77.2873 50.8384 77.2325 50.5581 77.2325C50.2779 77.2325 50.0004 77.2873 49.7415 77.3938C49.4826 77.5003 49.2474 77.6563 49.0494 77.853Z" fill="#A4A2A0"/>
<path d="M86.3903 81.2981L80.6279 87.0138C80.2277 87.4107 80.0029 87.949 80.0029 88.5102C80.0029 89.0715 80.2277 89.6098 80.6279 90.0067C81.028 90.4036 81.5707 90.6266 82.1366 90.6266C82.7025 90.6266 83.2452 90.4036 83.6453 90.0067L89.4078 84.291C89.6059 84.0945 89.7631 83.8612 89.8703 83.6044C89.9775 83.3477 90.0327 83.0725 90.0327 82.7946C90.0327 82.5166 89.9775 82.2414 89.8703 81.9847C89.7631 81.7279 89.6059 81.4946 89.4078 81.2981C89.2096 81.1016 88.9744 80.9457 88.7156 80.8393C88.4567 80.733 88.1792 80.6782 87.899 80.6782C87.6188 80.6782 87.3414 80.733 87.0825 80.8393C86.8237 80.9457 86.5885 81.1016 86.3903 81.2981Z" fill="#A4A2A0"/>
<path d="M43.0191 71.8516C42.8208 72.048 42.6635 72.2813 42.5561 72.5381C42.4488 72.7948 42.3936 73.0701 42.3936 73.3481C42.3936 73.626 42.4488 73.9013 42.5561 74.1581C42.6635 74.4148 42.8208 74.6481 43.0191 74.8445L43.6373 75.4629C43.8354 75.6594 44.0706 75.8153 44.3295 75.9216C44.5883 76.028 44.8658 76.0827 45.146 76.0827C45.4262 76.0827 45.7036 76.028 45.9625 75.9216C46.2214 75.8153 46.4566 75.6594 46.6547 75.4629C46.8528 75.2663 47.01 75.033 47.1172 74.7763C47.2245 74.5195 47.2796 74.2443 47.2796 73.9664C47.2796 73.6885 47.2245 73.4133 47.1172 73.1565C47.01 72.8997 46.8528 72.6664 46.6547 72.4699L46.0366 71.8568C45.6366 71.4601 45.0945 71.2368 44.5289 71.2358C43.9633 71.2349 43.4204 71.4563 43.0191 71.8516Z" fill="#A4A2A0"/>
<path d="M54.8268 59.1783C54.8261 59.5208 54.9106 59.8581 55.073 60.1603L59.6149 68.604C59.7963 68.9426 60.0672 69.2259 60.3984 69.4236C60.7297 69.6213 61.1089 69.726 61.4956 69.7263H64.0572V82.6178C64.0572 83.1787 64.2819 83.7166 64.6817 84.1132C65.0816 84.5098 65.6239 84.7327 66.1894 84.7327H68.3267V88.5414C68.3267 89.1023 68.5513 89.6402 68.9512 90.0368C69.351 90.4334 69.8933 90.6562 70.4588 90.6562C71.0243 90.6562 71.5666 90.4334 71.9664 90.0368C72.3663 89.6402 72.5909 89.1023 72.5909 88.5414V84.6963H74.723C75.2885 84.6963 75.8308 84.4735 76.2307 84.0769C76.6305 83.6803 76.8552 83.1423 76.8552 82.5815V69.7471H79.4168C79.8036 69.7473 80.183 69.6429 80.5144 69.4452C80.8458 69.2474 81.1165 68.9638 81.2975 68.6248L85.8394 60.1811L85.8813 60.0876C86.0201 59.8062 86.0918 59.4968 86.0908 59.1835V41.9688H91.9214C92.4873 41.9674 93.0296 41.7435 93.4293 41.3461C93.829 40.9486 94.0535 40.4102 94.0535 39.8488V35.6192C94.0535 35.0583 93.8289 34.5204 93.429 34.1238C93.0292 33.7272 92.4869 33.5044 91.9214 33.5044C91.3559 33.5044 90.8136 33.7272 90.4138 34.1238C90.0139 34.5204 89.7893 35.0583 89.7893 35.6192V37.734H31.7874C31.2396 37.7609 30.7231 37.9958 30.3449 38.3899C29.9668 38.7841 29.7559 39.3073 29.7559 39.8514C29.7559 40.3955 29.9668 40.9188 30.3449 41.3129C30.7231 41.7071 31.2396 41.9419 31.7874 41.9688H54.8373L54.8268 59.1783ZM72.6014 80.4822H68.3372V69.7575H72.6014V80.4822ZM78.1439 65.5279H62.7895L60.5107 61.3139H80.4174L78.1439 65.5279ZM59.091 41.9688H81.8475V57.0375H59.091V41.9688Z" fill="#A4A2A0"/>
<path d="M44.3393 165.958V168H34.7998V154.916H37.0891V165.958H44.3393Z" fill="white"/>
<path d="M56.1522 165.075H50.2902L49.1639 168H46.8223L52.1342 154.916H54.4025L59.7197 168H57.2576L56.1522 165.075ZM55.356 163.053L53.2238 157.514L51.0865 163.053H55.356Z" fill="white"/>
<path d="M73.2722 162.534V165.823L71.0825 168H64.3142L62.2188 165.922L63.7903 164.404L65.4195 166H70.0347L71.0248 165.017V163.365L70.1971 162.575L64.5342 162.191L62.5593 160.227V157.109L64.749 154.932H71.0353L73.0522 156.953L71.5068 158.481L69.9352 156.958H65.8072L64.8171 157.94V159.442L65.6081 160.227L71.2553 160.596L73.2722 162.534Z" fill="white"/>
<path d="M79.2444 156.958V160.398H86.2431V162.419H79.2444V165.958H87.2123V168H76.9551V154.916H87.2123V156.958H79.2444Z" fill="white"/>
<path d="M99.7798 168L96.9143 162.882H93.2473V168H90.958V154.916H99.586L101.681 156.995V160.746L99.586 162.861H99.4288L102.341 167.979L99.7798 168ZM93.2473 160.845H98.4859L99.3817 159.956V157.821L98.4859 156.958H93.2473V160.845Z" fill="white"/>
</svg>
