<svg width="137" height="137" viewBox="0 0 137 137" fill="none" xmlns="http://www.w3.org/2000/svg">
<path d="M68.4459 133.912C104.591 133.912 133.892 104.607 133.892 68.4562C133.892 32.3057 104.591 3 68.4459 3C32.3011 3 3 32.3057 3 68.4562C3 104.607 32.3011 133.912 68.4459 133.912Z" stroke="#00BBB4" stroke-width="5" stroke-miterlimit="10"/>
<path d="M57.0781 36.0976C56.6799 36.4947 56.4557 37.0337 56.4547 37.596V64.1599C56.4572 64.7236 56.6811 65.2636 57.0781 65.6637L63.3329 71.9195V72.3387C63.334 72.9011 63.5582 73.44 63.9564 73.8372L66.7747 76.6612C67.1718 77.0594 67.7107 77.2837 68.273 77.2847C68.8352 77.2837 69.3741 77.0594 69.7712 76.6612L73.2811 73.156C73.6647 72.7721 73.887 72.2561 73.9026 71.7135C73.9182 71.171 73.7258 70.643 73.3649 70.2377C71.3611 67.9891 70.3034 65.0532 70.4128 62.0432C70.5221 59.0331 71.79 56.1817 73.9516 54.0845C74.154 53.8855 74.3148 53.6483 74.4245 53.3865C74.5342 53.1247 74.5908 52.8437 74.5907 52.5598V40.3677C74.5914 40.0886 74.5371 39.8121 74.4307 39.554C74.3244 39.296 74.1682 39.0614 73.9712 38.8638C73.7741 38.6662 73.5399 38.5095 73.2822 38.4025C73.0244 38.2955 72.7481 38.2405 72.4691 38.2405H67.6391V23.874C67.6426 23.5943 67.5901 23.3168 67.4847 23.0578C67.3794 22.7987 67.2232 22.5634 67.0255 22.3657C66.8278 22.1679 66.5925 22.0118 66.3335 21.9064C66.0745 21.801 65.797 21.7485 65.5174 21.752H58.5658C58.2867 21.7513 58.0103 21.8057 57.7523 21.912C57.4943 22.0183 57.2598 22.1745 57.0622 22.3717C56.8646 22.5688 56.7079 22.8029 56.6009 23.0607C56.494 23.3185 56.439 23.5949 56.439 23.874V33.2316C56.4454 33.7782 56.6626 34.3013 57.0451 34.6917C57.4277 35.0821 57.9462 35.3099 58.4925 35.3274V35.4531C57.9558 35.4786 57.4495 35.7093 57.0781 36.0976ZM60.7032 25.9907H63.3644V40.3677C63.3712 40.9214 63.5941 41.4505 63.9856 41.8421C64.3771 42.2337 64.9062 42.4567 65.4598 42.4635H70.2898V51.7058C67.8555 54.3591 66.392 57.759 66.138 61.351C65.884 64.943 66.8545 68.5152 68.8911 71.4847L68.2153 72.1606L67.5553 71.4637V71.0446C67.555 70.4805 67.3308 69.9396 66.9319 69.5408L60.677 63.285V39.7075C61.2245 39.6952 61.7454 39.469 62.1283 39.0773C62.5111 38.6856 62.7254 38.1595 62.7253 37.6118V33.2316C62.7323 32.6793 62.5211 32.1466 62.1375 31.7492C61.754 31.3519 61.2291 31.122 60.677 31.1096L60.7032 25.9907Z" fill="#A4A2A0"/>
<path d="M91.1972 84.688V68.734C91.1903 68.1757 90.9638 67.6427 90.5666 67.2504C90.1695 66.8581 89.6337 66.6381 89.0755 66.6382H86.9801C86.4178 66.6392 85.8789 66.8635 85.4819 67.2617L68.4616 84.2793L51.4519 67.2617C51.0532 66.8627 50.5124 66.6384 49.9484 66.6382H47.853C47.2943 66.6381 46.758 66.8579 46.3601 67.2501C45.9621 67.6422 45.7343 68.1752 45.7261 68.734V82.1102C45.7263 82.6743 45.9506 83.2152 46.3495 83.6139L52.112 89.3773L46.3495 95.1407C45.9514 95.5378 45.7271 96.0768 45.7261 96.6392V110.015C45.7261 110.295 45.7812 110.571 45.8881 110.829C45.9951 111.086 46.1518 111.321 46.3494 111.518C46.5469 111.715 46.7814 111.871 47.0394 111.977C47.2974 112.084 47.5739 112.138 47.853 112.137H57.0782C57.6421 112.137 58.183 111.913 58.5816 111.514L68.4355 101.659L78.2945 111.514C78.6916 111.912 79.2305 112.136 79.7927 112.137H89.0703C89.3499 112.141 89.6274 112.088 89.8864 111.983C90.1454 111.878 90.3807 111.721 90.5784 111.524C90.7761 111.326 90.9323 111.091 91.0377 110.832C91.143 110.573 91.1955 110.295 91.192 110.015V94.0561C91.1931 93.4928 90.9708 92.952 90.5738 92.5524L87.3887 89.3721L90.5738 86.1865C90.7721 85.9907 90.9294 85.7574 91.0364 85.5001C91.1435 85.2428 91.1981 84.9667 91.1972 84.688ZM86.9539 83.8078L84.1303 86.6266C83.4061 87.3567 82.9997 88.3436 82.9997 89.3721C82.9997 90.4006 83.4061 91.3874 84.1303 92.1175L86.9539 94.9363V107.878H80.6676L71.1753 98.3839C70.4466 97.657 69.4594 97.2487 68.4302 97.2487C67.4011 97.2487 66.4139 97.657 65.6852 98.3839L56.2033 107.878H49.917V97.5089L55.3075 92.1175C56.0343 91.3887 56.4425 90.4014 56.4425 89.3721C56.4425 88.3427 56.0343 87.3554 55.3075 86.6266L49.917 81.2352V71.7257L65.68 87.4964C66.4084 88.2217 67.3945 88.6289 68.4224 88.6289C69.4503 88.6289 70.4363 88.2217 71.1648 87.4964L86.9382 71.7257L86.9539 83.8078Z" fill="#A4A2A0"/>
<path d="M77.9695 69.1059C78.4796 69.1055 78.9689 68.9041 79.3315 68.5453L84.5177 63.353C84.8515 62.9873 85.0313 62.5069 85.0198 62.0119C85.0083 61.5169 84.8063 61.0455 84.4559 60.6957C84.1055 60.3459 83.6337 60.1448 83.1388 60.1342C82.6438 60.1237 82.1639 60.3045 81.7989 60.639L76.6127 65.826C76.3449 66.0949 76.1627 66.437 76.0889 66.8093C76.0152 67.1816 76.0532 67.5674 76.1983 67.9181C76.3433 68.2688 76.5889 68.5688 76.9041 68.7801C77.2193 68.9915 77.59 69.1048 77.9695 69.1059Z" fill="#A4A2A0"/>
</svg>
