<svg width="137" height="168" viewBox="0 0 137 168" fill="none" xmlns="http://www.w3.org/2000/svg">
<path d="M68.4996 132.859C104.644 132.859 133.946 103.795 133.946 67.944C133.946 32.0926 104.644 3.0293 68.4996 3.0293C32.3548 3.0293 3.05371 32.0926 3.05371 67.944C3.05371 103.795 32.3548 132.859 68.4996 132.859Z" stroke="#00BBB4" stroke-width="5" stroke-miterlimit="10"/>
<path d="M32.4216 157.015V160.975L30.3262 163.053H24.0031V167.979H21.7139V154.916H30.3262L32.4216 157.015ZM30.1323 160.169V157.821L29.2417 156.958H24.0031V161.079H29.2417L30.1323 160.169Z" fill="white"/>
<path d="M40.1801 156.958V165.958H42.6003V168H35.4863V165.958H37.8908V156.958H35.4863V154.916H42.6003V156.958H40.1801Z" fill="white"/>
<path d="M57.2786 154.916V168H55.3979L48.5563 158.574V168H46.3613V154.916H48.4568L55.0679 164.015V154.916H57.2786Z" fill="white"/>
<path d="M71.6116 156.958H67.2845V168H65.0005V156.958H60.6943V154.916H71.6116V156.958Z" fill="white"/>
<path d="M85.4735 154.916V165.459L82.8961 168H77.427L74.8496 165.459V154.916H77.1389V164.633L78.4747 165.958H81.8484L83.2838 164.534V154.916H85.4735Z" fill="white"/>
<path d="M98.4862 168L95.6155 162.882H91.9484V168H89.6592V154.916H98.2767L100.372 156.995V160.746L98.2767 162.861H98.1195L101.032 167.979L98.4862 168ZM91.9903 160.845H97.2289L98.1247 159.956V157.821L97.2289 156.958H91.9903V160.845Z" fill="white"/>
<path d="M112.798 165.075H106.941L105.815 168H103.468L108.78 154.916H111.053L116.386 168H113.919L112.798 165.075ZM112.001 163.053L109.869 157.514L107.737 163.053H112.001Z" fill="white"/>
<path d="M101.76 69.1807H99.1771V67.757C99.1779 67.0311 98.934 66.3257 98.484 65.7532C98.034 65.1808 97.4039 64.774 96.694 64.5978L92.9379 63.6677C92.6608 63.1409 92.2441 62.699 91.7328 62.3896C91.2214 62.0802 90.6347 61.9148 90.0357 61.9114H87.1597C86.9016 61.0495 86.4545 60.255 85.8504 59.5847C85.2463 58.9144 84.5002 58.385 83.6656 58.0344C82.8309 57.6837 81.9284 57.5206 81.0227 57.5567C80.117 57.5927 79.2306 57.8271 78.427 58.2429L76.2791 53.0936C77.6634 52.0825 78.6674 50.6415 79.1315 48.9997C79.5957 47.3578 79.4933 45.6092 78.8408 44.0316L72.6645 29.2383C73.474 28.4792 73.9864 27.4603 74.1107 26.3622C74.2351 25.2641 73.9634 24.1578 73.3438 23.2395C72.7243 22.3211 71.7969 21.65 70.7261 21.3452C69.6553 21.0403 68.5103 21.1214 67.494 21.5741L47.1892 29.919C46.1784 30.3378 45.3448 31.0905 44.8297 32.0494C44.3146 33.0083 44.1498 34.1144 44.3632 35.1801C44.5766 36.2458 45.155 37.2055 46.0005 37.8964C46.8459 38.5873 47.9063 38.9668 49.0017 38.9706L55.1728 53.7535C55.8337 55.326 57.0061 56.634 58.5032 57.4692C60.0003 58.3045 61.736 58.6189 63.4341 58.3624L64.9166 61.9062H48.153L44.8946 59.5108C44.809 59.4475 44.7178 59.3919 44.6222 59.3445C44.123 59.0936 43.5669 58.9752 43.0078 59.0007C42.4487 59.0262 41.9058 59.1947 41.4319 59.49C40.9552 59.7808 40.5608 60.187 40.2859 60.6706C40.0109 61.1542 39.8645 61.6992 39.8604 62.2543V70.9786C39.8598 71.5338 40.0026 72.0799 40.2751 72.565C40.5475 73.05 40.9406 73.4578 41.4169 73.7495C41.8932 74.0411 42.4369 74.207 42.9961 74.2314C43.5553 74.2557 44.1116 74.1376 44.6118 73.8884C44.7038 73.8397 44.793 73.7859 44.8789 73.7273L48.1374 71.3267H55.9953V72.5634C55.9835 72.7051 55.9433 72.8431 55.8772 72.9692C55.811 73.0954 55.7202 73.2072 55.6099 73.2981C55.4997 73.3891 55.3723 73.4573 55.2352 73.4989C55.0981 73.5405 54.954 73.5545 54.8114 73.5402C53.5687 73.5711 52.3866 74.0791 51.514 74.9572C50.6414 75.8353 50.1464 77.015 50.1332 78.2479V81.1577C50.1371 82.3894 50.6264 83.5707 51.4966 84.4494C52.3668 85.3281 53.5489 85.8344 54.7904 85.8602L52.9726 96.7719H52.5482C51.6821 96.7754 50.8522 97.117 50.2381 97.7228L48.1426 99.8013C47.8375 100.103 47.5957 100.462 47.4311 100.857C47.2666 101.252 47.1826 101.676 47.1839 102.103V105.86C47.1853 106.722 47.5312 107.549 48.1459 108.158C48.7606 108.768 49.594 109.111 50.4633 109.113H76.8396C77.709 109.111 78.5423 108.768 79.157 108.158C79.7717 107.549 80.1176 106.722 80.119 105.86V102.399C80.1197 101.795 79.9505 101.203 79.6303 100.689C79.3101 100.174 78.8516 99.7592 78.3065 99.4895L73.5603 97.1305C73.2991 97.0066 73.0226 96.9175 72.7378 96.8655L74.629 85.5276C75.3825 85.2123 76.0266 84.6851 76.4818 84.0111C76.937 83.3371 77.1834 82.5457 77.1907 81.7345V80.5757C77.1907 80.4379 77.2458 80.3058 77.3441 80.2083C77.4423 80.1109 77.5756 80.0561 77.7145 80.0561H79.4171V89.8923C79.417 90.3683 79.6051 90.8254 79.9409 91.1654L87.275 98.4399C87.6218 98.747 88.0741 98.9106 88.5388 98.8971C89.0036 98.8836 89.4454 98.6939 89.7735 98.3672C90.1016 98.0404 90.291 97.6014 90.3028 97.1404C90.3145 96.6793 90.1477 96.2314 89.8367 95.8886L83.0265 89.1337V80.0509H90.0043C90.6033 80.0475 91.19 79.8822 91.7014 79.5727C92.2127 79.2633 92.6293 78.8214 92.9065 78.2946L96.6626 77.3645C97.373 77.1891 98.0036 76.7826 98.4537 76.2099C98.9038 75.6372 99.1474 74.9315 99.1457 74.2053V72.7816H101.728C102.193 72.7568 102.63 72.5563 102.95 72.2214C103.27 71.8865 103.449 71.4426 103.449 70.9811C103.449 70.5197 103.27 70.0758 102.95 69.7409C102.63 69.406 102.193 69.2055 101.728 69.1807H101.76ZM45.7067 68.6195L43.475 70.2615V62.987L45.7067 64.6237V68.6195ZM55.9638 67.7258H49.337V65.5123H55.9638V67.7258ZM47.9854 34.689C47.8726 34.4182 47.8726 34.1141 47.9856 33.8433C48.0985 33.5725 48.3151 33.3571 48.5879 33.2445L68.8927 24.9308C69.0236 24.8755 69.1643 24.8472 69.3065 24.8477C69.5651 24.8437 69.817 24.9294 70.0187 25.0899C70.2204 25.2504 70.3593 25.4757 70.4114 25.727C70.4636 25.9782 70.4257 26.2396 70.3043 26.4661C70.1829 26.6926 69.9857 26.87 69.7466 26.9677L49.4418 35.3126C49.3051 35.3687 49.1585 35.3971 49.0106 35.396C48.8627 35.3949 48.7165 35.3644 48.5807 35.3063C48.4449 35.2481 48.3222 35.1635 48.2199 35.0575C48.1177 34.9515 48.038 34.8262 47.9854 34.689ZM63.8112 54.5589C62.8233 54.9483 61.7207 54.9372 60.7408 54.528C59.761 54.1189 58.9824 53.3444 58.5726 52.3713L52.4959 37.9314L69.4637 30.9635L75.4881 45.4138C75.8973 46.3978 75.896 47.5027 75.4844 48.4857C75.0728 49.4688 74.2847 50.2496 73.2932 50.6566L63.8112 54.5589ZM75.6714 61.0592C75.5347 61.3378 75.4192 61.6261 75.3257 61.9218H68.856L66.8811 57.1985L73.005 54.6836L75.6714 61.0592ZM76.4939 102.628V105.527H50.8248V102.264L52.6897 100.409H72.0254L76.4939 102.628ZM56.6396 96.8083L58.4574 85.8965H70.8991L69.0761 96.8083H56.6396ZM79.4275 76.4604H77.725C76.6244 76.4686 75.5712 76.9059 74.7929 77.6778C74.0147 78.4498 73.5737 79.4944 73.5655 80.5861V81.7449C73.5655 81.8827 73.5103 82.0148 73.4121 82.1123C73.3139 82.2097 73.1806 82.2645 73.0417 82.2645H54.869C54.5739 82.2645 54.2909 82.1486 54.0818 81.9421C53.8727 81.7357 53.7545 81.4555 53.7531 81.1629V78.2531C53.7556 77.9643 53.8703 77.6875 54.0732 77.4804C54.2761 77.2733 54.5518 77.1518 54.8427 77.1411C55.4579 77.1549 56.0698 77.0479 56.6431 76.8263C57.2164 76.6047 57.7399 76.2728 58.1834 75.8498C58.6269 75.4267 58.9817 74.9209 59.2275 74.3613C59.4732 73.8018 59.6049 73.1996 59.6151 72.5893V65.5123H75.3309C75.6294 66.4708 76.159 67.3427 76.8737 68.0525C77.5884 68.7623 78.4668 69.2887 79.4328 69.586L79.4275 76.4604ZM81.2401 66.2865C80.7293 66.2865 80.23 66.1362 79.8053 65.8548C79.3806 65.5733 79.0495 65.1732 78.8541 64.7051C78.6586 64.237 78.6075 63.722 78.7071 63.2251C78.8068 62.7281 79.0527 62.2717 79.4139 61.9134C79.7751 61.5552 80.2353 61.3112 80.7362 61.2124C81.2372 61.1135 81.7565 61.1642 82.2284 61.3581C82.7003 61.552 83.1037 61.8804 83.3875 62.3016C83.6712 62.7229 83.8227 63.2182 83.8227 63.7248C83.82 64.4024 83.5466 65.0513 83.0626 65.5295C82.5786 66.0076 81.9232 66.2761 81.2401 66.2761V66.2865ZM89.6847 76.4604H83.0841V69.586C84.0501 69.2887 84.9284 68.7623 85.6431 68.0525C86.3579 67.3427 86.8874 66.4708 87.1859 65.5123H89.7109L89.6847 76.4604ZM95.5467 73.9455L93.3151 74.4963V67.4764L95.5467 68.0272V73.9455Z" fill="#A4A2A0"/>
<path d="M59.4582 39.4071C59.2574 38.9901 58.9029 38.6655 58.4678 38.5002C58.0328 38.335 57.5503 38.3417 57.1201 38.5191C56.6899 38.6964 56.3448 39.0308 56.156 39.4533C55.9672 39.8757 55.9491 40.354 56.1055 40.7893L60.5897 51.5296C60.7113 51.8239 60.909 52.0812 61.1628 52.2755C61.4167 52.4698 61.7177 52.5943 62.0355 52.6364C62.114 52.6415 62.1928 52.6415 62.2713 52.6364C62.5713 52.6376 62.8669 52.565 63.1315 52.425C63.3962 52.285 63.6218 52.0821 63.7879 51.8344C63.9541 51.5866 64.0556 51.3019 64.0835 51.0057C64.1114 50.7094 64.0647 50.411 63.9477 50.137L59.4582 39.4071Z" fill="#A4A2A0"/>
</svg>
