<svg width="23" height="24" viewBox="0 0 23 24" fill="none" xmlns="http://www.w3.org/2000/svg">
<path d="M15.784 0.5H7.17453C3.21276 0.5 0 3.71276 0 7.67453V16.284C0 20.2457 3.21276 23.4585 7.17453 23.4585H15.784C19.7457 23.4585 22.9585 20.2457 22.9585 16.284V7.67453C22.9585 3.71276 19.7457 0.5 15.784 0.5ZM20.8061 16.284C20.8061 19.0533 18.5533 21.3061 15.784 21.3061H7.17453C4.40516 21.3061 2.15236 19.0533 2.15236 16.284V7.67453C2.15236 4.90516 4.40516 2.65236 7.17453 2.65236H15.784C18.5533 2.65236 20.8061 4.90516 20.8061 7.67453V16.284Z" fill="#EDCA70"/>
<path d="M11.4792 6.23975C8.30954 6.23975 5.73962 8.80966 5.73962 11.9794C5.73962 15.1491 8.30954 17.719 11.4792 17.719C14.649 17.719 17.2189 15.1491 17.2189 11.9794C17.2189 8.80966 14.649 6.23975 11.4792 6.23975ZM11.4792 15.5666C9.50195 15.5666 7.89198 13.9567 7.89198 11.9794C7.89198 10.0006 9.50195 8.39211 11.4792 8.39211C13.4566 8.39211 15.0665 10.0006 15.0665 11.9794C15.0665 13.9567 13.4566 15.5666 11.4792 15.5666Z" fill="#EDCA70"/>
<path d="M17.6493 6.57404C18.0717 6.57404 18.4141 6.23163 18.4141 5.80924C18.4141 5.38685 18.0717 5.04443 17.6493 5.04443C17.2269 5.04443 16.8845 5.38685 16.8845 5.80924C16.8845 6.23163 17.2269 6.57404 17.6493 6.57404Z" fill="#EDCA70"/>
</svg>
