<svg width="116" height="14" viewBox="0 0 116 14" fill="none" xmlns="http://www.w3.org/2000/svg">
<g clip-path="url(#clip0_37_724)">
<path fill-rule="evenodd" clip-rule="evenodd" d="M14.461 11.828C14.6425 11.3915 15.0964 11.1055 15.608 11.1055C16.2847 11.1055 16.8292 11.6022 16.8292 12.2194C16.8292 12.8366 16.2847 13.3334 15.608 13.3334C14.9314 13.3334 14.3867 12.8366 14.3867 12.2194C14.3867 12.0915 14.4115 11.956 14.461 11.828Z" fill="#2C0552"/>
<path fill-rule="evenodd" clip-rule="evenodd" d="M8.3703 2.31525C9.59156 1.6002 10.4662 0.456137 12.1661 0.501298C16.2507 2.00665 12.5869 9.60114 12.9418 13.1839C12.1166 13.628 11.6297 13.4097 11.1429 13.0559C11.5307 9.3076 13.3296 2.84964 11.9186 1.73568C10.8458 1.91633 10.0702 2.72169 9.43478 3.51953C10.2104 7.88504 8.7994 13.0108 7.14905 13.5C4.02989 12.8753 5.58947 5.16788 7.43786 3.39157C6.17534 3.07545 3.60905 7.20011 1.40584 6.77861C0.456892 6.71087 -0.393037 5.06251 0.82822 4.18941C1.47185 3.78296 2.89115 3.69264 2.51983 4.87434C2.19801 5.13025 2.30528 4.99477 1.99996 4.94961C1.88444 4.97972 1.53787 5.16036 1.77717 5.5367C2.53633 5.6496 6.01856 1.21634 8.3703 2.31525ZM8.08149 5.47648C6.81898 7.82483 7.00877 9.06674 7.05828 11.2495C7.44611 10.5269 8.13101 7.64419 8.08149 5.47648Z" fill="#2C0552"/>
<path fill-rule="evenodd" clip-rule="evenodd" d="M31.0072 6.93227C31.0827 6.93227 31.1582 6.93227 31.2338 6.93227C31.3093 6.93227 31.4226 6.93227 31.5736 6.93227C32.4045 6.93227 33.0465 6.75382 33.4243 6.39692C33.8397 6.04001 34.0285 5.50465 34.0285 4.79084C34.0285 4.04134 33.8397 3.50598 33.462 3.14907C33.0843 2.79217 32.5178 2.61372 31.7248 2.61372C31.4226 2.61372 31.2338 2.64941 31.1205 2.72079C31.0449 2.79217 30.9694 2.97063 30.9694 3.22046V6.93227H31.0072ZM34.0662 7.14642C34.3306 7.25349 34.7838 7.71746 35.4258 8.53835L35.5391 8.68111L37.1253 10.7512C37.3519 11.0724 37.5785 11.2865 37.8428 11.465C38.1072 11.6434 38.3716 11.7148 38.636 11.7505V12.3215C38.4471 12.3215 38.1827 12.2859 37.8428 12.2859C37.5029 12.2859 37.0875 12.2859 36.5587 12.2859C36.2189 12.2859 35.9545 12.2859 35.7657 12.2859C35.5769 12.2859 35.4258 12.2859 35.3125 12.3215L32.7066 8.78818C32.329 8.28851 32.0647 7.9673 31.8758 7.82454C31.687 7.68177 31.4603 7.61039 31.2338 7.61039C31.2338 7.61039 31.196 7.61039 31.1582 7.61039C31.1205 7.61039 31.0827 7.61039 31.0827 7.61039V10.2515C31.0827 10.7869 31.196 11.1438 31.3848 11.3579C31.6114 11.572 31.9891 11.6434 32.5934 11.6434V12.2859C31.7248 12.2859 31.0072 12.2502 30.3652 12.2502C29.7231 12.2502 29.2322 12.2502 28.8168 12.2502C28.288 12.2502 27.8726 12.2502 27.6082 12.2502C27.3439 12.2502 27.1173 12.2859 26.9285 12.2859V11.6434C27.5705 11.6434 27.9859 11.5364 28.1747 11.3579C28.3636 11.1794 28.5147 10.7512 28.5147 10.1801V3.8272C28.5147 3.32753 28.4014 2.97062 28.2125 2.82786C28.0236 2.6851 27.5705 2.57803 26.9285 2.57803V1.9356C27.1173 1.9356 27.3439 1.97129 27.6082 1.97129C27.8348 1.97129 28.2125 1.97129 28.7035 1.97129C29.1567 1.97129 29.7609 1.97129 30.554 1.9356C31.3471 1.9356 31.9514 1.89991 32.2912 1.89991C33.8019 1.89991 34.9348 2.11405 35.6524 2.54234C36.3699 2.97062 36.7477 3.61305 36.7477 4.50532C36.7477 5.18344 36.521 5.75449 36.0301 6.21846C35.5769 6.71813 34.9349 7.03935 34.0662 7.14642ZM39.1646 2.00698C39.7311 2.00698 40.2221 2.04267 40.7131 2.04267C41.204 2.04267 41.6195 2.04267 42.0349 2.04267C42.4881 2.04267 42.979 2.04267 43.4322 2.04267C43.9232 2.04267 44.3763 2.00698 44.8673 2.00698V2.64941H44.6784C44.1498 2.64941 43.7721 2.72079 43.5833 2.89924C43.3945 3.07769 43.319 3.4346 43.319 4.00565V10.2515C43.319 10.8582 43.4322 11.2865 43.6211 11.465C43.8099 11.6434 44.2253 11.7505 44.8673 11.7505V12.3572C44.3008 12.3572 43.7721 12.3215 43.2812 12.3215C42.7902 12.3215 42.3748 12.3215 41.9971 12.3215C41.5439 12.3215 41.0907 12.3215 40.5998 12.3215C40.1088 12.3215 39.6556 12.3572 39.1269 12.3572V11.7505C39.7689 11.7148 40.1844 11.6434 40.3732 11.465C40.562 11.2865 40.6753 10.8939 40.6753 10.2515V4.00565C40.6753 3.4346 40.562 3.07769 40.4109 2.89924C40.2221 2.72079 39.8444 2.64941 39.3157 2.64941H39.1646V2.00698ZM52.1562 2.50665C51.0987 2.50665 50.3434 2.89924 49.8524 3.64874C49.3615 4.43394 49.0971 5.61172 49.0971 7.18211C49.0971 8.68111 49.3615 9.82321 49.928 10.6084C50.4945 11.3936 51.3253 11.7862 52.3827 11.7862C53.478 11.7862 54.271 11.3936 54.762 10.6441C55.2908 9.89459 55.5173 8.7168 55.5173 7.14642C55.5173 5.61172 55.2152 4.43394 54.6487 3.64874C54.1577 2.89924 53.2892 2.50665 52.1562 2.50665ZM52.2317 1.75715C53.2135 1.75715 54.0822 1.89991 54.8375 2.11405C55.5929 2.36388 56.2348 2.75648 56.8392 3.29184C57.4056 3.79151 57.821 4.36256 58.0854 5.00499C58.3498 5.64742 58.5009 6.36122 58.5009 7.11073C58.5009 7.89592 58.3498 8.60973 58.0476 9.25216C57.7455 9.89459 57.3301 10.4656 56.7259 10.9653C56.1593 11.465 55.4796 11.8576 54.762 12.1074C54.0067 12.3572 53.2135 12.5 52.345 12.5C51.363 12.5 50.5322 12.3929 49.8146 12.1431C49.0971 11.8933 48.4551 11.5364 47.8886 11.0367C47.2843 10.537 46.8689 9.93028 46.5668 9.28785C46.2646 8.64542 46.1136 7.89592 46.1136 7.11073C46.1136 6.28984 46.2646 5.57603 46.5668 4.9336C46.8689 4.29117 47.2843 3.68443 47.8886 3.18477C48.4174 2.72079 49.0593 2.32819 49.7769 2.07836C50.57 1.89991 51.363 1.75715 52.2317 1.75715ZM72.7957 1.78552C73.2111 1.78552 73.5509 1.82122 73.8532 1.82122C74.1553 1.82122 74.4196 1.82122 74.6462 1.82122C74.9105 1.82122 75.2127 1.82122 75.5526 1.82122C75.8925 1.82122 76.2701 1.78552 76.6478 1.78552V2.39226C76.0813 2.42795 75.7037 2.57072 75.4771 2.82055C75.2504 3.07039 75.1749 3.57005 75.1749 4.28386V12.3499H74.2686L66.8286 4.1411V9.63747C66.8286 10.2799 66.9419 10.7439 67.1686 11.0294C67.3952 11.3149 67.7728 11.4934 68.3015 11.4934V12.1358C67.8106 12.1358 67.3574 12.1001 66.9419 12.1001C66.5265 12.1001 66.1866 12.1001 65.8467 12.1001C65.5446 12.1001 65.2802 12.1001 65.0536 12.1001C64.827 12.1001 64.6004 12.1358 64.4116 12.1358V11.4934C64.9781 11.422 65.3557 11.2792 65.5824 11.0294C65.809 10.7796 65.8845 10.3156 65.8845 9.63747V3.17746C65.7335 2.89193 65.5446 2.71348 65.318 2.60641C65.0914 2.49934 64.7515 2.42795 64.2983 2.39226V1.78552C64.4494 1.78552 64.6382 1.82122 64.8648 1.82122C65.0914 1.82122 65.4314 1.82122 65.8845 1.82122C66.4132 1.82122 66.7908 1.82122 67.0553 1.82122C67.3196 1.82122 67.5462 1.78552 67.735 1.78552L74.193 8.78089V4.17679C74.193 3.53436 74.0797 3.07039 73.8532 2.78486C73.6265 2.49934 73.2488 2.39227 72.6824 2.35658V1.78552H72.7957ZM77.743 1.74984H77.9318C79.518 1.78553 80.6888 1.82122 81.4063 1.82122C81.8595 1.82122 82.5771 1.82122 83.5212 1.82122C84.4654 1.82122 85.5229 1.78552 86.6935 1.78552V4.42663H86.0138C85.8627 3.71282 85.5606 3.21315 85.1073 2.92762C84.6542 2.6421 83.8611 2.53503 82.6904 2.53503C82.275 2.53503 82.0106 2.57072 81.8972 2.6421C81.7839 2.71348 81.7462 2.82055 81.7462 3.03469V6.38962H82.0105C82.6526 6.38962 83.1058 6.28253 83.3701 6.0327C83.6722 5.78287 83.8611 5.35458 83.9744 4.67646H84.6542C84.6164 4.92629 84.6164 5.24751 84.5787 5.56872C84.5787 5.88994 84.5409 6.24686 84.5409 6.71084C84.5409 7.06774 84.5409 7.42465 84.5787 7.78156C84.5787 8.13846 84.6164 8.49537 84.6542 8.81658H84.0122C83.8989 8.17415 83.6722 7.71018 83.3701 7.46034C83.068 7.21051 82.5771 7.06775 81.8972 7.06775H81.7084V9.81592C81.7084 10.3513 81.8595 10.7439 82.1239 10.958C82.426 11.2078 82.8792 11.3149 83.5589 11.3149C84.5409 11.3149 85.2584 11.1365 85.7117 10.8153C86.1648 10.4583 86.4669 9.8873 86.6558 9.03073H87.2601V12.1358C86.4292 12.1001 85.5606 12.1001 84.6919 12.1001C83.8234 12.1001 82.6904 12.1001 81.3308 12.1001H80.4244C79.6313 12.1001 79.0649 12.1001 78.725 12.1001C78.3472 12.1001 78.0451 12.1358 77.743 12.1715V11.5291C78.3472 11.5291 78.7627 11.422 78.9516 11.1722C79.1404 10.9223 79.2537 10.387 79.2537 9.53039V3.85558C79.2537 3.28453 79.1404 2.92762 78.9516 2.67779C78.725 2.46365 78.385 2.35658 77.8563 2.35658H77.743V1.74984ZM88.6197 1.78552C89.1861 1.78552 89.6771 1.82122 90.168 1.82122C90.659 1.82122 91.0744 1.82122 91.4898 1.82122C91.943 1.82122 92.434 1.82122 92.8872 1.82122C93.3781 1.82122 93.8314 1.78552 94.3223 1.78552V2.42796H94.1335C93.6048 2.42796 93.227 2.49934 93.0382 2.67779C92.8494 2.85624 92.7739 3.21315 92.7739 3.7842V10.0301C92.7739 10.6368 92.8872 11.0651 93.076 11.2435C93.2648 11.422 93.6803 11.5291 94.3223 11.5291V12.1358C93.7558 12.1358 93.2271 12.1001 92.7361 12.1001C92.2452 12.1001 91.8297 12.1001 91.4521 12.1001C90.9989 12.1001 90.5457 12.1001 90.0547 12.1001C89.5638 12.1001 89.1106 12.1358 88.5818 12.1358V11.5291C89.2239 11.4934 89.6393 11.422 89.8281 11.2435C90.0169 11.0651 90.1302 10.6725 90.1302 10.0301V3.7842C90.1302 3.21315 90.0169 2.85624 89.8659 2.67779C89.6771 2.49934 89.2994 2.42796 88.7707 2.42796H88.6197V1.78552ZM100.554 1.78552V2.42796H100.44C99.9872 2.42796 99.6473 2.49933 99.4585 2.57071C99.2696 2.67779 99.1564 2.85624 99.1564 3.10607C99.1564 3.17745 99.1941 3.28453 99.2319 3.42729C99.2696 3.57006 99.3452 3.7485 99.4207 3.92696L101.536 9.24487L103.311 4.99767C103.462 4.60508 103.574 4.24817 103.688 3.92696C103.764 3.60574 103.84 3.35591 103.84 3.17746C103.84 2.89193 103.726 2.67779 103.537 2.57071C103.348 2.46364 102.971 2.39226 102.442 2.39226V1.78552C102.895 1.82121 103.311 1.82122 103.613 1.82122C103.952 1.82122 104.255 1.82122 104.556 1.82122C104.821 1.82122 105.123 1.82122 105.425 1.82122C105.728 1.82122 106.106 1.78552 106.597 1.78552V2.39226C106.143 2.42795 105.765 2.53503 105.501 2.71348C105.237 2.89193 104.973 3.35591 104.67 4.03403L101.12 12.2786H100.327L96.626 3.49867C96.4372 3.07038 96.2484 2.74917 96.0218 2.6421C95.7952 2.49934 95.4553 2.42796 95.002 2.42796V1.78552C95.3419 1.82121 95.7196 1.82122 96.1728 1.82122C96.626 1.82122 97.1548 1.82122 97.759 1.82122C98.3632 1.82122 98.892 1.82122 99.3452 1.82122C99.7228 1.82122 100.176 1.78552 100.554 1.78552ZM109.919 1.57139L105.992 10.2799C105.803 10.6725 105.614 10.958 105.35 11.1365C105.086 11.3149 104.783 11.422 104.368 11.4577V12.1001C104.67 12.1001 105.01 12.0644 105.312 12.0644C105.614 12.0644 105.955 12.0644 106.256 12.0644C106.597 12.0644 106.898 12.0644 107.238 12.0644C107.579 12.0644 107.918 12.1001 108.258 12.1001V11.4577C107.804 11.4577 107.465 11.3863 107.238 11.2435C107.012 11.1008 106.898 10.8866 106.898 10.6011C106.898 10.494 106.936 10.3156 106.974 10.1014C107.049 9.8873 107.125 9.67316 107.238 9.42333L107.503 8.81658H111.128L111.468 9.63747C111.582 9.8873 111.657 10.1371 111.694 10.3156C111.77 10.5297 111.77 10.6725 111.77 10.7796C111.77 10.9937 111.694 11.1365 111.506 11.2435C111.317 11.3149 110.939 11.3863 110.373 11.422V12.0644C110.788 12.0644 111.242 12.0287 111.733 12.0287C112.185 12.0287 112.676 12.0287 113.167 12.0287C113.658 12.0287 114.112 12.0287 114.603 12.0287C115.055 12.0287 115.509 12.0644 116 12.0644V11.422C115.585 11.3863 115.245 11.2792 114.98 11.1008C114.716 10.9223 114.527 10.6011 114.339 10.1728L110.675 1.5H109.919V1.57139ZM109.428 4.56939L110.864 8.13846H107.88L109.428 4.56939Z" fill="#2C0552"/>
</g>
<defs>
<clipPath id="clip0_37_724">
<rect width="116" height="13" fill="white" transform="translate(0 0.5)"/>
</clipPath>
</defs>
</svg>
