<svg width="22" height="23" viewBox="0 0 22 23" fill="none" xmlns="http://www.w3.org/2000/svg">
<path d="M20.4511 0.5H1.19475C0.535355 0.5 0 1.03429 0 1.69477V20.9515C0 21.6119 0.535355 22.1469 1.19475 22.1469H11.5618V13.764H8.74104V10.4965H11.5618V8.08705C11.5618 5.29154 13.2687 3.7685 15.763 3.7685C16.9588 3.7685 17.9843 3.85796 18.2833 3.89682V6.81886L16.5532 6.81957C15.197 6.81957 14.9354 7.46436 14.9354 8.40998V10.4955H18.1711L17.748 13.7626H14.9351V22.1459H20.4508C21.1109 22.1459 21.6466 21.6102 21.6466 20.9515V1.69405C21.6462 1.03429 21.1112 0.5 20.4511 0.5Z" fill="#EDCA70"/>
</svg>
